<svg width="199" height="83" viewBox="0 0 199 83" fill="none" xmlns="http://www.w3.org/2000/svg">
<g clip-path="url(#clip0_794_5217)">
<mask id="mask0_794_5217" style="mask-type:luminance" maskUnits="userSpaceOnUse" x="0" y="0" width="50" height="83">
<path d="M49.5891 0H0V83H49.5891V0Z" fill="white"/>
</mask>
<g mask="url(#mask0_794_5217)">
<path d="M46.8581 44.5302C42.5604 46.4273 34.1737 49.2204 25.2129 46.4625C10.5276 41.948 0.000784278 24.2062 1.35796 2.86332C19.2796 0.017607 36.0529 7.00893 43.5522 20.1835C48.5981 29.0544 48.0065 38.2415 47.4149 42.5804C44.0741 38.1186 39.7764 33.1298 34.3303 28.1234C25.9437 20.4119 17.6092 15.265 10.9626 11.8572C17.731 16.7581 25.0389 22.6428 32.5034 29.6692C37.8973 34.7459 42.6648 39.7522 46.8581 44.5302Z" fill="#464646"/>
<path d="M47.3098 50.2216C48.3016 53.5592 49.6239 59.9708 46.8748 66.3298C42.3509 76.764 28.6399 83 13.3282 80.1719C12.8062 66.7338 19.2789 54.9645 29.4403 50.5729C36.2784 47.6218 42.8555 48.8339 45.9526 49.6419C42.4553 51.7323 38.4707 54.455 34.3992 58.0385C28.1179 63.5719 23.681 69.2633 20.6535 73.8656C24.7598 69.2984 29.6491 64.415 35.3562 59.5141C39.4799 55.9833 43.4992 52.8917 47.3272 50.204L47.3098 50.2216Z" fill="#464646"/>
</g>
<path d="M190.125 74.8844H171.699V42.9141H190.125V49.1149H178.502V55.6495H188.907V61.8504H178.502V68.666H190.125V74.8669V74.8844ZM174.761 71.7752H175.423V46.0057H174.761V71.7752ZM152.072 74.8844H133.646V42.9141H152.072V49.1149H140.449V55.6495H150.854V61.8504H140.449V68.666H152.072V74.8669V74.8844ZM136.708 71.7752H137.37V46.0057H136.708V71.7752ZM115.446 74.8844H107.39L100.587 63.0976H98.4988V74.8844H91.6955V42.9492H102.448C104.832 42.9492 106.903 43.3883 108.608 44.2315C110.348 45.1098 111.688 46.3219 112.575 47.8501C113.445 49.3433 113.897 51.0647 113.897 52.9795C113.897 55.2982 113.219 57.3886 111.896 59.1627C110.905 60.4802 109.565 61.4815 107.895 62.149L115.446 74.8669V74.8844ZM109.165 71.7752H110.035L103.162 60.1991L104.502 59.9005C103.875 60.0235 103.197 60.0762 102.466 60.0762H102.414L109.165 71.7752ZM94.7752 71.7752H95.4364V46.0584H94.7752V71.7752ZM103.162 46.076C105.267 46.1814 106.92 46.7962 108.069 47.8853C109.374 49.1149 110.052 50.8364 110.052 52.9795C110.052 55.1225 109.391 56.8089 108.069 58.1263C107.268 58.9168 106.259 59.4614 105.041 59.7776L105.232 59.7424C107.146 59.3208 108.521 58.5304 109.426 57.3007C110.365 56.0535 110.818 54.6482 110.818 52.9795C110.818 51.6269 110.522 50.4499 109.913 49.4311C109.321 48.4123 108.451 47.6218 107.233 47.0245C106.12 46.4624 104.745 46.1462 103.144 46.076H103.162ZM98.4988 56.9845H102.448C104.049 56.9845 105.198 56.6332 105.911 55.9306C106.624 55.2104 106.972 54.2618 106.972 52.997C106.972 51.7323 106.642 50.8013 105.963 50.1689C105.267 49.5014 104.084 49.1676 102.448 49.1676H98.4988V56.9845ZM60.8111 74.8844H54.0078V42.9492H73.217V49.1149H60.8111V55.7373H70.8855V61.9031H60.8111V74.8844ZM57.0876 71.7752H57.7487V46.0584H57.0876V71.7752Z" fill="#464646"/>
<path d="M71.7037 44.5126V47.5691H59.2977V57.2831H69.3722V60.3396H59.2977V73.321H55.5742V44.495H71.7211L71.7037 44.5126Z" fill="#464646"/>
<path d="M108.277 73.3386L101.474 61.5517H96.9677V73.3386H93.2441V44.5126H102.466C104.624 44.5126 106.45 44.8815 107.929 45.6368C109.426 46.3746 110.539 47.3934 111.27 48.6582C112.001 49.9229 112.366 51.3809 112.366 52.997C112.366 54.982 111.792 56.7386 110.661 58.2493C109.53 59.76 107.825 60.7788 105.563 61.2707L112.732 73.3386H108.26H108.277ZM96.9677 58.5303H102.449C104.467 58.5303 105.981 58.0209 106.99 57.0197C107.999 56.0184 108.504 54.6658 108.504 52.9795C108.504 51.2931 107.999 49.9405 107.007 49.0095C106.015 48.0785 104.484 47.6042 102.449 47.6042H96.9677V58.5303Z" fill="#464646"/>
<path d="M138.919 47.5691V57.2129H149.324V60.3221H138.919V70.247H150.559V73.3562H135.195V44.495H150.559V47.6042H138.919V47.5691Z" fill="#464646"/>
<path d="M176.954 47.5691V57.2129H187.359V60.3221H176.954V70.247H188.594V73.3562H173.23V44.495H188.594V47.6042H176.954V47.5691Z" fill="#464646"/>
<path d="M50.5467 15.5813V10.1709H59.8729V35.0094H53.87V15.5813H50.5293H50.5467Z" fill="#464646"/>
<path d="M63.9613 13.0341C65.4577 10.7856 67.8589 9.66138 71.1822 9.66138C74.5056 9.66138 76.9067 10.7856 78.4031 13.0341C79.8995 15.2825 80.6476 18.3566 80.6476 22.2563C80.6476 26.156 79.8995 29.3003 78.4031 31.5488C76.9067 33.7972 74.5056 34.9215 71.1822 34.9215C67.8589 34.9215 65.4403 33.7972 63.9613 31.5488C62.465 29.3003 61.7168 26.2087 61.7168 22.2563C61.7168 18.3039 62.465 15.2825 63.9613 13.0341ZM74.262 16.9689C73.7748 15.7393 72.7482 15.1069 71.1996 15.1069C69.651 15.1069 68.6245 15.7217 68.1373 16.9689C67.6501 18.2161 67.3891 19.9727 67.3891 22.2563C67.3891 23.8021 67.4761 25.0669 67.6675 26.0857C67.8415 27.087 68.2069 27.9126 68.7637 28.5274C69.3205 29.1422 70.1208 29.4584 71.1996 29.4584C72.2784 29.4584 73.0962 29.1422 73.6356 28.5274C74.175 27.9126 74.5578 27.087 74.7317 26.0857C74.9057 25.0844 75.0101 23.8021 75.0101 22.2563C75.0101 19.9727 74.7665 18.1985 74.262 16.9689Z" fill="#464646"/>
<path d="M83.8481 13.0341C85.3444 10.7856 87.7456 9.66138 91.0689 9.66138C94.3923 9.66138 96.7934 10.7856 98.2898 13.0341C99.7862 15.2825 100.534 18.3566 100.534 22.2563C100.534 26.156 99.7862 29.3003 98.2898 31.5488C96.7934 33.7972 94.3923 34.9215 91.0689 34.9215C87.7456 34.9215 85.3444 33.7972 83.8481 31.5488C82.3517 29.3003 81.6035 26.2087 81.6035 22.2563C81.6035 18.3039 82.3517 15.2825 83.8481 13.0341ZM94.1487 16.9689C93.6615 15.7393 92.6349 15.1069 91.0863 15.1069C89.5378 15.1069 88.5112 15.7217 88.024 16.9689C87.5368 18.1985 87.2758 19.9727 87.2758 22.2563C87.2758 23.8021 87.3628 25.0669 87.5542 26.0857C87.7282 27.087 88.0936 27.9126 88.6504 28.5274C89.2072 29.1422 90.0075 29.4584 91.0863 29.4584C92.1651 29.4584 92.9829 29.1422 93.5223 28.5274C94.0617 27.9126 94.4445 27.087 94.6185 26.0857C94.7925 25.0844 94.8969 23.8021 94.8969 22.2563C94.8969 19.9727 94.6533 18.1985 94.1487 16.9689Z" fill="#464646"/>
<path d="M102.572 12.1733C103.616 11.172 104.973 10.6802 106.626 10.6802C108.279 10.6802 109.636 11.172 110.663 12.1733C111.689 13.1746 112.211 14.5974 112.211 16.4243C112.211 18.2512 111.689 19.674 110.663 20.6753C109.636 21.6766 108.279 22.1684 106.626 22.1684C104.973 22.1684 103.616 21.6766 102.572 20.6753C101.528 19.674 101.006 18.2687 101.006 16.4243C101.006 14.5799 101.528 13.1746 102.572 12.1733ZM104.973 16.4243C104.973 17.9701 105.512 18.743 106.591 18.743C107.113 18.743 107.513 18.5498 107.809 18.1634C108.105 17.7769 108.244 17.1972 108.244 16.4243C108.244 14.8609 107.687 14.0704 106.591 14.0704C105.495 14.0704 104.973 14.8609 104.973 16.4243ZM123.869 11.0491L110.889 34.9917H105.321L118.301 11.0491H123.869ZM118.58 25.3655C119.606 24.3642 120.963 23.8723 122.616 23.8723C124.269 23.8723 125.626 24.3642 126.653 25.3655C127.68 26.3667 128.202 27.7896 128.202 29.6165C128.202 31.4434 127.68 32.8662 126.653 33.8675C125.626 34.8687 124.269 35.3606 122.616 35.3606C120.963 35.3606 119.606 34.8687 118.58 33.8675C117.553 32.8662 117.031 31.4434 117.031 29.6165C117.031 27.7896 117.553 26.3667 118.58 25.3655ZM121.398 27.8423C121.12 28.2287 120.981 28.826 120.981 29.6165C120.981 31.1623 121.52 31.9352 122.599 31.9352C123.121 31.9352 123.521 31.742 123.817 31.3555C124.113 30.9691 124.252 30.3894 124.252 29.6165C124.252 28.8436 124.113 28.2639 123.817 27.8599C123.521 27.4558 123.121 27.2626 122.599 27.2626C122.077 27.2626 121.677 27.4558 121.398 27.8423Z" fill="#464646"/>
<path d="M148.333 22.6076C147.706 23.7494 146.732 24.6804 145.427 25.3831C144.122 26.0857 142.504 26.4371 140.572 26.4371H137.005V35.0093H131.246V11.1194H140.572C142.451 11.1194 144.052 11.4531 145.357 12.1031C146.662 12.753 147.637 13.6665 148.28 14.8258C148.942 15.9852 149.255 17.3027 149.255 18.8134C149.255 20.2011 148.942 21.4658 148.315 22.6076H148.333ZM142.608 21.0267C143.147 20.4997 143.408 19.7619 143.408 18.8134C143.408 17.8648 143.13 17.127 142.608 16.6C142.069 16.073 141.251 15.8095 140.155 15.8095H137.023V21.7996H140.155C141.251 21.7996 142.069 21.5361 142.608 21.0091V21.0267Z" fill="#464646"/>
<path d="M174.467 11.1194L166.08 34.9918H158.877L150.49 11.1194H156.615L162.479 29.1422L168.377 11.1194H174.467Z" fill="#464646"/>
<path d="M177.389 16.723C178.398 14.8786 179.807 13.4382 181.617 12.4018C183.426 11.3654 185.48 10.856 187.759 10.856C190.56 10.856 192.979 11.6113 194.962 13.1044C196.963 14.5975 198.303 16.6352 198.964 19.235H192.631C192.161 18.2337 191.482 17.4784 190.63 16.9514C189.76 16.4244 188.786 16.1609 187.689 16.1609C185.915 16.1609 184.47 16.7757 183.374 18.0229C182.278 19.2701 181.721 20.9389 181.721 23.0293C181.721 25.1197 182.278 26.7884 183.374 28.0356C184.47 29.2828 185.915 29.8976 187.689 29.8976C188.786 29.8976 189.777 29.6342 190.63 29.1072C191.5 28.5802 192.161 27.8248 192.631 26.8236H198.964C198.286 29.4058 196.946 31.4435 194.962 32.9366C192.961 34.4297 190.56 35.1675 187.759 35.1675C185.462 35.1675 183.409 34.6581 181.617 33.6217C179.825 32.5853 178.398 31.1624 177.389 29.318C176.38 27.4735 175.875 25.3832 175.875 23.0293C175.875 20.6754 176.38 18.5675 177.389 16.723Z" fill="#464646"/>
</g>
<defs>
<clipPath id="clip0_794_5217">
<rect width="199" height="83" fill="white"/>
</clipPath>
</defs>
</svg>
