<svg width="442" height="42" viewBox="0 0 442 42" fill="none" xmlns="http://www.w3.org/2000/svg">
<g clip-path="url(#clip0_776_1285)">
<path d="M66.9967 28.0063H47.8853L40.0801 0.158203H48.713L66.9967 28.0063Z" fill="black"/>
<path d="M0 28.0063H19.1688L27.0224 0.158203H18.314L0 28.0063Z" fill="black"/>
<path d="M39.0772 5.04688H28.1094L20.8086 41.1016H46.224L39.0772 5.04688Z" fill="black"/>
<path d="M148.309 27.7825C148.309 31.8155 146.215 33.8889 142.935 33.8889C139.654 33.8889 137.733 31.8155 137.733 27.7825V11.0342H129.137V30.4722C129.137 37.3624 132.925 41.6168 139.428 41.6168C143.784 41.6168 146.327 39.3221 148.306 36.7999V41.0573H156.902V11.0342H148.306V27.7825H148.309Z" fill="black"/>
<path d="M171.329 11.0342H162.732V41.0573H171.329V11.0342Z" fill="black"/>
<path d="M171.553 0.167969H162.506V7.72836H171.553V0.167969Z" fill="black"/>
<path d="M190.725 34.3915C186.031 34.3915 183.035 30.6936 183.035 26.1011V25.9874C183.035 21.5624 186.088 17.8107 190.384 17.8107C193.438 17.8107 195.362 19.0972 197.286 21.1137L202.545 15.5129C199.717 12.3775 196.153 10.4717 190.441 10.4717C181.168 10.4717 174.553 17.5294 174.553 26.1011V26.2148C174.553 34.7834 181.225 41.7305 190.332 41.7305C196.383 41.7305 199.775 39.4327 202.717 36.2404L197.685 31.1992C195.591 33.1588 193.613 34.3915 190.728 34.3915H190.725Z" fill="black"/>
<path d="M233.877 11.0343H223.583L213.519 21.9576V0.167969H204.922V41.0605H213.519V31.9294L216.515 28.791L224.435 41.0605H234.273L222.339 22.8521L233.877 11.0343Z" fill="black"/>
<path d="M251.691 19.9971C242.303 18.0913 240.156 15.5721 240.156 11.4254V11.3147C240.156 7.22488 244.004 3.91889 249.825 3.91889C254.18 3.91889 257.914 5.15153 261.644 8.34383L263.511 6.04909C259.497 2.85679 255.706 1.28906 249.936 1.28906C242.584 1.28906 237.214 5.76785 237.214 11.596V11.7097C237.214 17.6485 241.059 20.8408 250.559 22.7436C259.551 24.5357 261.756 26.9441 261.756 31.0908V31.2015C261.756 35.6833 257.684 38.9863 251.746 38.9863C245.807 38.9863 241.905 37.1373 237.552 33.1612L235.631 35.3452C240.379 39.5458 245.245 41.6191 251.577 41.6191C259.213 41.6191 264.698 37.251 264.698 30.9203V30.8096C264.698 25.0952 260.853 21.846 251.691 20.0001V19.9971Z" fill="black"/>
<path d="M290.601 29.0152C290.601 34.954 286.245 39.2114 280.591 39.2114C274.936 39.2114 271.429 35.3459 271.429 29.4639V12.4912H268.656V29.9696C268.656 36.8029 272.897 41.7335 280.192 41.7335C285.451 41.7335 288.677 39.1007 290.598 35.7378V41.0603H293.368V12.4912H290.598V29.0152H290.601Z" fill="black"/>
<path d="M301.01 20.6135V12.4906H298.24V41.0598H301.01V29.3527C301.01 20.054 306.837 15.0696 313.509 15.0696H313.79V12.0448C308.078 11.8205 303.273 15.5184 301.01 20.6165V20.6135Z" fill="black"/>
<path d="M321.426 9.69059V12.491H317.242V15.0131H321.426V41.0601H324.196V15.0131H334.263V12.491H324.196V9.74743C324.196 4.87372 326.062 2.51913 330.019 2.51913C331.49 2.51913 332.678 2.74352 334.318 3.24914V0.673165C333.019 0.224388 331.774 0 330.019 0C324.591 0 321.423 3.52738 321.423 9.69059H321.426Z" fill="black"/>
<path d="M347.554 12.042C343.594 12.042 340.486 13.0502 337.318 14.5073L338.335 16.9157C340.994 15.5724 343.878 14.618 347.382 14.618C353.321 14.618 356.885 17.5889 356.885 23.3572V24.5898C354.115 23.8628 351.345 23.3572 347.328 23.3572C339.864 23.3572 334.717 26.72 334.717 32.6558V32.7695C334.717 38.7053 340.486 41.7331 345.857 41.7331C351.227 41.7331 354.907 39.0434 356.885 36.2999V41.0599H359.601V23.2465C359.601 15.8536 354.964 12.042 347.554 12.042ZM356.942 30.3581C356.942 35.5669 351.91 39.1511 346.026 39.1511C341.616 39.1511 337.656 36.7427 337.656 32.599V32.4853C337.656 28.5091 341.048 25.8194 347.159 25.8194C351.288 25.8194 354.511 26.4926 356.942 27.1059V30.3551V30.3581Z" fill="black"/>
<path d="M377.923 39.1538C371.308 39.1538 366.049 33.6638 366.049 26.7765V26.6629C366.049 19.8295 371.139 14.3963 377.697 14.3963C381.995 14.3963 384.822 16.5803 387.314 19.1025L389.293 17.086C386.58 14.2856 383.185 11.8203 377.757 11.8203C369.502 11.8203 363.053 18.7644 363.053 26.7765V26.8872C363.053 34.8964 369.444 41.7328 377.757 41.7328C383.073 41.7328 386.58 39.3782 389.519 36.0752L387.598 34.3938C385.164 37.0835 381.998 39.1538 377.926 39.1538H377.923Z" fill="black"/>
<path d="M405.919 11.8174C398.114 11.8174 392.232 18.4294 392.232 26.7168V26.8275C392.232 35.7342 398.793 41.7298 406.372 41.7298C411.915 41.7298 415.364 39.489 418.306 36.3505L416.382 34.6691C414.008 37.1912 410.954 39.1509 406.487 39.1509C400.832 39.1509 395.685 35.0072 395.178 27.8926H419.098C419.155 27.4438 419.155 27.2762 419.155 26.8843V26.7736C419.155 18.3157 414.011 11.8174 405.922 11.8174H405.919ZM395.174 25.4303C395.682 19.0995 400.092 14.3395 405.804 14.3395C412.422 14.3395 415.76 19.659 416.156 25.4303H395.174Z" fill="black"/>
<path d="M432.5 25.1496C428.371 23.9738 424.472 22.798 424.472 19.6057V19.492C424.472 16.6348 427.072 14.5076 431.029 14.5076C434.083 14.5076 437.252 15.6296 439.91 17.3648L441.381 15.0671C438.496 13.1613 434.594 11.9316 431.144 11.9316C425.544 11.9316 421.641 15.2346 421.641 19.8271V19.9408C421.641 25.0359 426.843 26.4391 431.537 27.7824C435.551 28.9044 439.173 30.134 439.173 33.4939V33.6076C439.173 36.9135 436.119 39.0407 432.216 39.0407C428.543 39.0407 425.036 37.6974 421.868 35.289L420.225 37.473C423.281 39.9383 427.861 41.6197 432.047 41.6197C437.59 41.6197 442 38.3706 442 33.2755V33.1618C442 28.1205 437.137 26.4391 432.497 25.1526L432.5 25.1496Z" fill="black"/>
<path d="M115.445 38.3732L115.895 38.7621L115.451 38.3672C115.451 38.3672 115.448 38.3672 115.445 38.3702V38.3732Z" fill="black"/>
<path d="M102.277 41.7304H103.688C103.214 41.7304 102.743 41.7125 102.277 41.6855V41.7304Z" fill="black"/>
<path d="M121.31 32.653C123.546 29.4158 124.781 25.5174 124.781 21.4515V21.3408C124.781 10.1932 116.015 1.17578 103.8 1.17578C91.5846 1.17578 82.707 10.3069 82.707 21.4545V21.5652C82.707 32.276 90.8023 41.0182 102.278 41.6854C102.743 41.7123 103.214 41.7302 103.688 41.7302C108.092 41.7302 112.101 40.5006 115.435 38.3794C115.438 38.3794 115.444 38.3734 115.444 38.3734C115.45 38.3734 118.852 41.0152 118.852 41.0152H130.961L121.316 32.653H121.31ZM103.797 33.7749C103.277 33.7749 102.77 33.733 102.275 33.6732C96.0763 32.9282 91.8081 27.6746 91.8081 21.4515V21.3408C91.8081 20.2967 91.938 19.2884 92.1615 18.3191C93.3819 13.0504 97.7587 9.12811 103.682 9.12811C110.696 9.12811 115.671 14.7288 115.671 21.4515V21.5622C115.671 23.2825 115.39 24.8622 114.828 26.3222C114.759 26.5018 114.704 26.6842 114.626 26.8578L108.05 21.0835L102.549 27.2736L102.555 27.2796L108.896 32.7457C107.391 33.392 105.676 33.7719 103.794 33.7719L103.797 33.7749Z" fill="black"/>
<path d="M102.562 27.2838L102.559 27.2764L102.562 27.2838Z" fill="black"/>
</g>
<defs>
<clipPath id="clip0_776_1285">
<rect width="442" height="41.7303" fill="white"/>
</clipPath>
</defs>
</svg>
