<svg width="127" height="201" viewBox="0 0 127 201" fill="none" xmlns="http://www.w3.org/2000/svg">
<path d="M54.9313 116.097C55.485 116.653 55.8081 117.419 55.8081 118.253C55.8081 119.483 55.0697 120.549 54.0314 121.036C53.7545 121.176 53.4545 121.245 53.1546 121.291H53.0623H47.6399V126.533H45.6094V115.169H52.7392C53.5699 115.169 54.3313 115.517 54.8851 116.073L54.9313 116.097ZM53.2007 119.227C53.5699 119.065 53.8237 118.694 53.8237 118.277C53.8237 117.906 53.6391 117.65 53.5237 117.534C53.3853 117.395 53.1546 117.233 52.8085 117.233H47.686V119.32H52.8085C52.9469 119.32 53.1084 119.297 53.2238 119.227H53.2007Z" fill="#464646"/>
<path d="M59.4313 118.23V119.297H66.6996V121.338H59.4313V123.472C59.4313 124.052 59.8927 124.515 60.4696 124.515H68.7301V126.556H60.4696C58.7852 126.556 57.4238 125.165 57.4238 123.495V118.254C57.4238 116.561 58.7852 115.192 60.4696 115.192H68.7301V117.233H60.4696C59.8927 117.233 59.4313 117.697 59.4313 118.277V118.23Z" fill="#464646"/>
<path d="M81.6285 115.192V117.233H76.9906V126.579H74.9601V117.233H70.3223V115.192H81.6285Z" fill="#464646"/>
<path d="M30.9348 135.81V137.85H22.6743C22.0974 137.85 21.636 138.314 21.636 138.894V139.961H28.9043V142.002H21.6129V147.22H19.6055V138.917C19.6055 137.224 20.9668 135.856 22.6512 135.856H30.9348V135.81Z" fill="#464646"/>
<path d="M41.6408 145.155L42.6792 147.196H40.4179L39.3796 145.155L38.2951 143.021L38.249 142.929C37.9029 142.349 37.2568 141.955 36.5415 141.955H34.511V147.196H32.4805V135.832H39.6334C40.4641 135.832 41.2255 136.18 41.7793 136.736C42.3331 137.316 42.6792 138.058 42.6792 138.916C42.6792 140.146 41.9408 141.212 40.9025 141.699C40.6256 141.839 40.3256 141.908 40.0257 141.955L41.6408 145.178V145.155ZM39.6334 139.914C39.7719 139.914 39.9334 139.891 40.0487 139.821C40.4179 139.659 40.6717 139.288 40.6717 138.87C40.6717 138.499 40.4871 138.244 40.3718 138.128C40.2333 137.989 40.0026 137.826 39.6334 137.826H34.511V139.914H39.6334Z" fill="#464646"/>
<path d="M44.3184 147.173V135.81H46.3489V147.173H44.3184Z" fill="#464646"/>
<path d="M49.9703 138.87V139.937H57.2386V141.978H49.9703V144.111C49.9703 144.691 50.4318 145.155 51.0087 145.155H59.2691V147.196H51.0087C49.3243 147.196 47.9629 145.804 47.9629 144.135V138.893C47.9629 137.2 49.3243 135.832 51.0087 135.832H59.2691V137.873H51.0087C50.4318 137.873 49.9703 138.337 49.9703 138.916V138.87Z" fill="#464646"/>
<path d="M72.1672 135.833V147.197L70.1367 145.643L62.8684 140.007V147.197H60.8379V135.856L62.8684 137.41L70.1367 143.045V135.81H72.1672V135.833Z" fill="#464646"/>
<path d="M79.4367 135.833C82.5517 135.833 85.0898 138.361 85.0898 141.491C85.0898 142.883 84.5822 144.182 83.7515 145.156C83.6592 145.272 83.5438 145.388 83.4285 145.504C82.4132 146.547 81.0057 147.173 79.4598 147.173H73.8066V135.81H79.4367V135.833ZM75.791 145.179H79.4367C81.4441 145.179 83.0824 143.532 83.0824 141.515C83.0824 139.497 81.4441 137.85 79.4367 137.85H75.791V145.156V145.179Z" fill="#464646"/>
<path d="M96.0266 145.155V147.196H90.2812C89.7043 147.196 89.1736 147.057 88.6891 146.825C87.9738 146.477 87.3969 145.874 87.0508 145.178C86.797 144.691 86.6816 144.158 86.6816 143.578V135.832H88.7121V143.764C88.8044 144.482 89.3813 145.039 90.0966 145.155H96.0266Z" fill="#464646"/>
<path d="M108.302 135.786L103.918 141.491L103.688 141.792V147.15H101.657V141.816L101.38 141.468L96.9961 135.763H99.5573L102.649 139.798L105.741 135.763H108.279L108.302 135.786Z" fill="#464646"/>
<path d="M63.5605 201C28.9034 201 0.707031 172.66 0.707031 137.827V63.1734C0.707031 28.3399 28.9034 0 63.5605 0C98.2176 0 126.414 28.3399 126.414 63.1734V137.827C126.414 172.66 98.2176 201 63.5605 201ZM63.5605 1.8785C29.9187 1.8785 2.57602 29.3835 2.57602 63.1734V137.827C2.57602 171.64 29.9417 199.122 63.5605 199.122C97.1793 199.122 124.545 171.616 124.545 137.827V63.1734C124.545 29.3603 97.1793 1.8785 63.5605 1.8785Z" fill="#464646"/>
<path d="M82.3655 98.3772C80.6811 98.3772 79.1582 98.4467 77.6353 98.3308C77.2661 98.3076 76.8047 97.6814 76.6432 97.2408C75.3049 93.5765 74.0127 89.9123 72.7437 86.2249C72.4668 85.4132 72.0745 85.0653 71.1977 84.9493C64.2063 83.9985 57.2379 82.9781 50.2465 81.9808C49.8312 81.9113 49.4159 81.9113 48.8621 81.8649C47.7546 85.274 46.6701 88.6368 45.5625 92.0227C44.9857 93.8085 44.3857 95.5942 43.855 97.3799C43.6243 98.1221 43.2782 98.4699 42.4706 98.4235C41.1092 98.354 39.771 98.4235 38.1558 98.4235C38.1558 97.7974 38.1558 97.264 38.1558 96.7306C38.1789 88.057 38.2019 79.3602 38.2711 70.6866C38.2711 69.6894 37.9942 69.1328 37.0944 68.5994C32.7565 66.0251 31.2797 59.1605 34.164 54.3135C34.1871 54.9396 34.2101 55.3107 34.2332 55.6818C34.3716 61.7811 39.0095 66.3962 45.101 66.4426C52.0002 66.4658 58.8993 66.4426 65.7984 66.4658C66.7675 66.4658 67.229 66.1875 67.4366 65.2366C67.6674 64.2394 68.0596 63.2886 68.4288 62.129C69.2364 62.5464 69.9748 62.9175 70.7131 63.3117C74.3588 65.283 78.0276 67.2079 81.6502 69.2487C82.0655 69.4807 82.3655 70.2924 82.3655 70.8258C82.4116 75.9511 82.3655 81.0532 82.3655 86.1785C82.3655 89.7036 82.3655 93.2287 82.3655 96.7306C82.3655 97.2408 82.3655 97.751 82.3655 98.4004V98.3772Z" fill="#464646"/>
<path d="M84.2105 62.2453C83.8874 63.9383 83.5644 65.4689 83.2183 67.2547C78.465 64.7036 73.9195 62.2685 69.3047 59.7871C71.1968 54.6617 73.0657 49.6756 74.9809 44.5039C77.4498 45.4316 79.2496 47.0086 80.8417 48.9567C81.4416 49.6988 82.2953 50.3713 83.1952 50.7424C86.864 52.2266 90.602 53.5717 94.4322 55.0096C93.2324 58.2564 92.0556 61.3873 90.8558 64.6572C88.5484 63.8224 86.3794 63.0338 84.2105 62.2453Z" fill="#464646"/>
</svg>
