<svg width="127" height="201" viewBox="0 0 127 201" fill="none" xmlns="http://www.w3.org/2000/svg">
<path d="M29.1406 118.323V118.253C29.1406 117.674 28.6792 117.21 28.1023 117.21H23.5106C22.9337 117.21 22.4723 117.674 22.4723 118.253V118.323C22.4723 118.903 22.9337 119.367 23.5106 119.367H27.5716C28.633 119.367 29.556 119.83 30.2021 120.526C30.2482 120.573 30.2944 120.619 30.3405 120.665C30.8481 121.291 31.1481 122.08 31.1481 122.938C31.1481 124.909 29.556 126.533 27.5716 126.533H24.0413C22.08 126.533 20.4648 124.933 20.4648 122.938H22.4954C22.4954 123.796 23.1876 124.492 24.0413 124.492H27.5716C28.4254 124.492 29.1406 123.796 29.1406 122.938C29.1406 122.08 28.4254 121.384 27.5716 121.384H23.5106C22.6799 121.384 21.9416 121.06 21.3878 120.526C21.2493 120.387 21.1109 120.225 20.9955 120.039C20.6494 119.552 20.4648 118.949 20.4648 118.3V118.23C20.4648 116.537 21.8262 115.169 23.5106 115.169H28.1023C29.7867 115.169 31.1481 116.56 31.1481 118.23V118.3H29.1176L29.1406 118.323Z" fill="#464646"/>
<path d="M34.6324 120.85C34.6324 122.868 36.2707 124.514 38.2781 124.514H43.9312V126.555H38.2781C35.1631 126.555 32.625 124.004 32.625 120.873C32.625 117.742 35.1631 115.191 38.2781 115.191H43.9312V117.232H38.2781C36.2707 117.232 34.6324 118.879 34.6324 120.897V120.85Z" fill="#464646"/>
<path d="M54.6604 124.538L55.6987 126.579H53.4375L52.3991 124.538L51.3147 122.404L51.2685 122.311C50.9224 121.732 50.2763 121.337 49.561 121.337H47.5305V126.579H45.5V115.215H52.6529C53.4836 115.215 54.2451 115.563 54.7988 116.119C55.3526 116.699 55.6987 117.441 55.6987 118.299C55.6987 119.528 54.9603 120.595 53.922 121.082C53.6451 121.221 53.3452 121.291 53.0452 121.337L54.6604 124.561V124.538ZM52.6529 119.297C52.7914 119.297 52.9529 119.273 53.0683 119.204C53.4375 119.041 53.6913 118.67 53.6913 118.253C53.6913 117.882 53.5067 117.627 53.3913 117.511C53.2529 117.372 53.0221 117.209 52.6529 117.209H47.5305V119.297H52.6529Z" fill="#464646"/>
<path d="M68.2284 126.532H65.9672L64.9288 124.492L62.4599 119.621L59.991 124.492L58.9526 126.532H56.6914L57.7297 124.492L62.4599 115.146L67.1901 124.492L68.2284 126.532Z" fill="#464646"/>
<path d="M80.5035 115.191V117.232H75.8656V126.578H73.8352V117.232H69.1973V115.191H80.5035Z" fill="#464646"/>
<path d="M83.9879 120.85C83.9879 122.868 85.6261 124.514 87.6336 124.514H93.2867V126.555H87.6336C84.5186 126.555 81.9805 124.004 81.9805 120.873C81.9805 117.742 84.5186 115.191 87.6336 115.191H93.2867V117.232H87.6336C85.6261 117.232 83.9879 118.879 83.9879 120.897V120.85Z" fill="#464646"/>
<path d="M106.185 115.169V126.533H104.154V121.315H96.886V126.533H94.8555V115.169H96.886V119.297H104.154V115.169H106.185Z" fill="#464646"/>
<path d="M21.4572 145.155L22.4956 147.196H20.2343L19.196 145.155L18.1115 143.021L18.0654 142.929C17.7193 142.349 17.0732 141.955 16.3579 141.955H14.3274V147.196H12.2969V135.832H19.4498C20.2805 135.832 21.0419 136.18 21.5957 136.736C22.1495 137.316 22.4956 138.058 22.4956 138.916C22.4956 140.146 21.7572 141.212 20.7189 141.699C20.442 141.839 20.142 141.908 19.8421 141.955L21.4572 145.178V145.155ZM19.4498 139.914C19.5883 139.914 19.7498 139.891 19.8651 139.821C20.2343 139.659 20.4881 139.288 20.4881 138.87C20.4881 138.499 20.3036 138.244 20.1882 138.128C20.0498 137.989 19.819 137.826 19.4498 137.826H14.3274V139.914H19.4498Z" fill="#464646"/>
<path d="M26.1422 138.87V139.937H33.4105V141.978H26.1422V144.111C26.1422 144.691 26.6037 145.155 27.1805 145.155H35.441V147.196H27.1805C25.4961 147.196 24.1348 145.804 24.1348 144.135V138.893C24.1348 137.2 25.4961 135.832 27.1805 135.832H35.441V137.873H27.1805C26.6037 137.873 26.1422 138.337 26.1422 138.916V138.87Z" fill="#464646"/>
<path d="M45.7305 138.963V138.893C45.7305 138.313 45.269 137.849 44.6922 137.849H40.1004C39.5236 137.849 39.0621 138.313 39.0621 138.893V138.963C39.0621 139.542 39.5236 140.006 40.1004 140.006H44.1615C45.2229 140.006 46.1458 140.47 46.7919 141.166C46.8381 141.212 46.8842 141.259 46.9303 141.305C47.438 141.931 47.7379 142.72 47.7379 143.578C47.7379 145.549 46.1458 147.172 44.1615 147.172H40.6311C38.6698 147.172 37.0547 145.572 37.0547 143.578H39.0852C39.0852 144.436 39.7774 145.132 40.6311 145.132H44.1615C45.0152 145.132 45.7305 144.436 45.7305 143.578C45.7305 142.72 45.0152 142.024 44.1615 142.024H40.1004C39.2698 142.024 38.5314 141.699 37.9776 141.166C37.8392 141.027 37.7007 140.864 37.5854 140.679C37.2393 140.192 37.0547 139.589 37.0547 138.939V138.87C37.0547 137.177 38.416 135.809 40.1004 135.809H44.6922C46.3766 135.809 47.7379 137.2 47.7379 138.87V138.939H45.7074L45.7305 138.963Z" fill="#464646"/>
<path d="M49.3535 147.172V135.809H51.384V147.172H49.3535Z" fill="#464646"/>
<path d="M61.6758 138.963V138.893C61.6758 138.313 61.2144 137.849 60.6375 137.849H56.0458C55.4689 137.849 55.0075 138.313 55.0075 138.893V138.963C55.0075 139.542 55.4689 140.006 56.0458 140.006H60.1068C61.1682 140.006 62.0911 140.47 62.7372 141.166C62.7834 141.212 62.8295 141.259 62.8757 141.305C63.3833 141.931 63.6833 142.72 63.6833 143.578C63.6833 145.549 62.0911 147.172 60.1068 147.172H56.5765C54.6152 147.172 53 145.572 53 143.578H55.0305C55.0305 144.436 55.7227 145.132 56.5765 145.132H60.1068C60.9605 145.132 61.6758 144.436 61.6758 143.578C61.6758 142.72 60.9605 142.024 60.1068 142.024H56.0458C55.2151 142.024 54.4768 141.699 53.923 141.166C53.7845 141.027 53.6461 140.864 53.5307 140.679C53.1846 140.192 53 139.589 53 138.939V138.87C53 137.177 54.3614 135.809 56.0458 135.809H60.6375C62.3219 135.809 63.6833 137.2 63.6833 138.87V138.939H61.6527L61.6758 138.963Z" fill="#464646"/>
<path d="M76.6031 135.832V137.873H71.9653V147.219H69.9348V137.873H65.2969V135.832H76.6031Z" fill="#464646"/>
<path d="M89.1327 147.173H86.8714L85.8331 145.132L83.3642 140.262L80.8953 145.132L79.8569 147.173H77.5957L78.634 145.132L83.3642 135.786L88.0944 145.132L89.1327 147.173Z" fill="#464646"/>
<path d="M101.409 135.832V147.196L99.3789 145.642L92.1106 140.006V147.196H90.0801V135.855L92.1106 137.409L99.3789 143.044V135.809H101.409V135.832Z" fill="#464646"/>
<path d="M114.306 135.832V137.873H109.668V147.219H107.638V137.873H103V135.832H114.306Z" fill="#464646"/>
<path d="M63.2676 201C28.6105 201 0.414062 172.66 0.414062 137.827V63.1734C0.414062 28.3399 28.6105 0 63.2676 0C97.9247 0 126.121 28.3399 126.121 63.1734V137.827C126.121 172.66 97.9247 201 63.2676 201ZM63.2676 1.8785C29.6257 1.8785 2.28305 29.3835 2.28305 63.1734V137.827C2.28305 171.64 29.6488 199.122 63.2676 199.122C96.8863 199.122 124.252 171.616 124.252 137.827V63.1734C124.252 29.3603 96.8863 1.8785 63.2676 1.8785Z" fill="#464646"/>
<path d="M51.985 101.601C51.6619 98.3314 51.1774 95.3861 51.1543 92.4176C51.1543 91.2116 52.0773 89.9593 52.7002 88.8229C55.1692 84.3238 57.7073 79.8478 60.1993 75.3487C64.7449 67.0926 69.2443 58.8132 73.8129 50.5803C74.2975 49.699 74.3436 49.0264 73.8591 48.1452C72.6592 45.9188 71.5517 43.646 70.6056 41.2109C78.0585 45.339 85.5114 49.4439 93.2873 53.7575C90.3339 54.0358 87.7957 54.2909 85.2345 54.4764C84.3577 54.546 83.8039 54.8243 83.3655 55.636C79.3507 63.0109 75.2896 70.3857 71.2517 77.7374C67.8598 83.9063 64.491 90.0984 61.053 96.2442C60.6838 96.9167 59.9685 97.5197 59.2763 97.8908C56.9458 99.1431 54.5692 100.303 51.9619 101.601H51.985ZM53.1848 98.6097C53.1848 98.6097 53.3925 98.6561 53.4848 98.7025C53.5771 98.285 53.6693 97.8676 53.7616 97.4733C54.1308 96.0122 54.2693 94.4352 54.9384 93.1365C57.1535 88.8461 59.5532 84.6716 61.8837 80.4508C67.0522 71.0119 72.2208 61.5962 77.3663 52.1573C77.5048 51.9022 77.597 51.6007 77.7355 51.276C77.2971 51.0441 76.9048 50.8586 76.4664 50.6498C73.7668 55.5664 71.1133 60.3902 68.4828 65.2141C65.2294 71.1742 61.999 77.1576 58.7456 83.1178C57.0381 86.2487 55.2614 89.3563 53.5078 92.4872C53.3232 92.835 53.1387 93.2293 53.1387 93.6003C53.1156 95.2701 53.1387 96.9631 53.1387 98.6329L53.1848 98.6097Z" fill="#464646"/>
<path d="M64.9981 97.8447C65.2289 98.4013 65.4135 98.842 65.6442 99.3522C62.7138 100.117 59.8757 100.86 57.0145 101.602C57.0145 101.555 56.9684 101.509 56.9453 101.486C59.5757 100.303 62.2062 99.0971 64.975 97.8447H64.9981Z" fill="#464646"/>
<path d="M47.646 101.764C45.4771 101.462 43.3312 101.161 41.0469 100.836C41.1392 100.303 41.2315 99.8388 41.3468 99.1895C43.5158 100.001 45.5694 100.79 47.646 101.578C47.646 101.648 47.646 101.717 47.623 101.764H47.646Z" fill="#464646"/>
<path d="M42.5702 94.7133C41.6241 93.9016 40.6781 93.1131 39.709 92.2782C40.0089 91.6984 40.2858 91.165 40.6089 90.5156C41.8318 91.6056 42.9855 92.626 42.9393 94.3654C42.824 94.4814 42.6855 94.5973 42.5702 94.7133Z" fill="#464646"/>
<path d="M48.2238 99.3518C46.6316 98.0299 44.9703 96.7312 43.4474 95.3165C43.0782 94.9918 43.1244 94.2033 42.9629 93.6467C43.0552 93.6003 43.1706 93.5539 43.2629 93.4844C44.9703 95.3629 46.6547 97.2182 48.3622 99.0967C48.316 99.1663 48.2699 99.259 48.2238 99.3286V99.3518Z" fill="#464646"/>
</svg>
