<svg width="127" height="201" viewBox="0 0 127 201" fill="none" xmlns="http://www.w3.org/2000/svg">
<path d="M98.8003 82.7469H101.062V83.6745H98.8003L94.5547 86.2719V85.2747L97.9927 83.1875L94.5547 81.0771V80.1494L98.8234 82.7469H98.8003Z" fill="#464646"/>
<path d="M100.231 74.4678H101.038V79.222H94.5312V74.6069H95.3389V78.2944H97.3463V75.0244H98.1309V78.2944H100.231V74.491V74.4678Z" fill="#464646"/>
<path d="M99.4233 68.7857V72.2645L101.062 72.9834V73.9574L94.5547 70.9889V70.0613L101.062 67.0928V68.0668L99.4233 68.7857ZM98.6849 69.1104L95.5007 70.5251L98.6849 71.9398V69.1104Z" fill="#464646"/>
<path d="M101.038 61.7355L99.0303 63.1502C99.0303 63.3357 99.0303 63.4517 99.0303 63.5676V65.191H101.015V66.1187H94.5078V63.5676C94.5078 62.7096 94.7154 62.0602 95.1077 61.5732C95.4999 61.0861 96.0768 60.8542 96.769 60.8542C97.2766 60.8542 97.692 60.9702 98.0612 61.2253C98.4073 61.4804 98.6611 61.8283 98.8226 62.2921L101.015 60.7383V61.7587L101.038 61.7355ZM97.8766 62.2225C97.6228 61.921 97.2536 61.7587 96.7921 61.7587C96.3306 61.7587 95.9614 61.921 95.7076 62.2225C95.4538 62.524 95.3384 62.9878 95.3384 63.5676V65.1678H98.2689V63.5676C98.2689 62.9647 98.1535 62.524 97.8766 62.2225Z" fill="#464646"/>
<path d="M100.9 58.8363C100.739 59.3002 100.554 59.648 100.3 59.9263L99.5849 59.5785C99.8156 59.3234 100 58.9987 100.139 58.6276C100.277 58.2334 100.346 57.8391 100.346 57.4217C100.346 56.8883 100.254 56.4708 100.07 56.2157C99.8849 55.9374 99.6311 55.8215 99.3311 55.8215C99.1004 55.8215 98.9158 55.891 98.7774 56.0302C98.6389 56.1693 98.5235 56.3549 98.4543 56.5636C98.3851 56.7723 98.2928 57.0738 98.2005 57.468C98.0852 57.9551 97.9697 58.3493 97.8544 58.6508C97.739 58.9523 97.5544 59.2074 97.3006 59.4161C97.0468 59.6248 96.7238 59.7408 96.3084 59.7408C95.9623 59.7408 95.6393 59.648 95.3624 59.4625C95.0855 59.277 94.8548 58.9987 94.6932 58.6276C94.5317 58.2566 94.4395 57.7927 94.4395 57.2361C94.4395 56.8419 94.4856 56.4708 94.5779 56.0997C94.6702 55.7287 94.8317 55.404 95.0163 55.1257L95.7547 55.4272C95.5701 55.7055 95.4547 55.9838 95.3624 56.3085C95.2701 56.61 95.224 56.9346 95.224 57.2129C95.224 57.7463 95.3162 58.1406 95.5008 58.3957C95.6854 58.6508 95.9393 58.79 96.2392 58.79C96.47 58.79 96.6545 58.7204 96.793 58.558C96.9314 58.3957 97.0468 58.2334 97.116 58.0014C97.1853 57.7695 97.2775 57.4912 97.3698 57.097C97.4852 56.61 97.6005 56.2157 97.7159 55.9142C97.8313 55.6127 98.0159 55.3576 98.2466 55.1489C98.4774 54.9402 98.8235 54.8242 99.2158 54.8242C99.5619 54.8242 99.8618 54.917 100.162 55.1025C100.439 55.288 100.669 55.5663 100.831 55.9606C100.992 56.3317 101.085 56.8187 101.085 57.3521C101.085 57.8391 101.016 58.3261 100.854 58.7668L100.9 58.8363Z" fill="#464646"/>
<path d="M56.275 80.6361V86.0861H26.002V77.111C26.002 75.8355 26.2558 74.6759 26.7403 73.5859C28.0325 70.455 31.0782 68.2287 34.6316 68.0895H47.7838C49.6066 67.904 50.991 66.3966 50.991 64.5644C50.991 62.5932 49.422 60.9929 47.4838 60.9929H26.0943V55.543H47.4838C52.4216 55.543 56.4134 59.5551 56.4134 64.518C56.4134 65.7936 56.1596 66.9531 55.675 68.0431C55.2366 69.0404 54.6368 69.968 53.8522 70.7565C52.2832 72.3799 50.1142 73.4235 47.7376 73.4931H34.6316C32.8549 73.6787 31.4705 75.1861 31.4705 77.0182V80.5433L56.275 80.6361Z" fill="#464646"/>
<path d="M90.3328 73.632C90.8173 74.722 91.0711 75.9048 91.0711 77.1571C91.0711 82.1201 87.0793 86.1322 82.1415 86.1322H60.752V80.6822H82.1415C84.1028 80.6822 85.6488 79.0588 85.6488 77.1107C85.6488 75.2786 84.3105 73.748 82.5338 73.5857H60.752V55.6123H88.5561V61.0623H66.1743V68.1357H82.4877C86.0411 68.2284 89.0868 70.4548 90.3789 73.5857L90.3328 73.632Z" fill="#464646"/>
<path d="M45.175 115.168V126.532H43.1445V121.314H35.8762V126.532H33.8457V115.168H35.8762V119.296H43.1445V115.168H45.175Z" fill="#464646"/>
<path d="M48.8219 118.229V119.296H56.0902V121.337H48.8219V123.471C48.8219 124.051 49.2834 124.514 49.8602 124.514H58.1207V126.555H49.8602C48.1758 126.555 46.8145 125.164 46.8145 123.494V118.253C46.8145 116.56 48.1758 115.191 49.8602 115.191H58.1207V117.232H49.8602C49.2834 117.232 48.8219 117.696 48.8219 118.276V118.229Z" fill="#464646"/>
<path d="M70.6268 126.532H68.3656L67.3273 124.492L64.8583 119.621L62.3894 124.492L61.3511 126.532H59.0898L60.1282 124.492L64.8583 115.146L69.5885 124.492L70.6268 126.532Z" fill="#464646"/>
<path d="M82.4862 115.168L81.4478 117.209L76.7177 126.555L71.9875 117.209L70.9492 115.168H73.2104L74.2488 117.209L76.7177 122.079L79.1866 117.209L80.2249 115.168H82.4862Z" fill="#464646"/>
<path d="M94.1148 115.145L89.7308 120.85L89.5 121.152V126.509H87.4695V121.175L87.1926 120.827L82.8086 115.122H85.3698L88.4617 119.157L91.5536 115.122H94.0918L94.1148 115.145Z" fill="#464646"/>
<path d="M21.2944 145.457L22.1712 147.196H20.233L19.3561 145.457L18.4332 143.625L18.387 143.532C18.087 143.022 17.5333 142.697 16.9103 142.697H15.1798V147.173H13.4492V137.433H19.5638C20.2791 137.433 20.9252 137.734 21.4098 138.198C21.8712 138.685 22.1712 139.334 22.1712 140.053C22.1712 141.12 21.5482 142.025 20.6483 142.442C20.4175 142.558 20.1637 142.627 19.9099 142.651L21.2944 145.41V145.457ZM19.5869 140.981C19.7023 140.981 19.8407 140.958 19.9561 140.888C20.2791 140.749 20.4868 140.424 20.4868 140.076C20.4868 139.752 20.3253 139.543 20.233 139.427C20.1176 139.311 19.91 139.172 19.61 139.172H15.2259V140.958H19.61L19.5869 140.981Z" fill="#464646"/>
<path d="M25.3087 140.076V140.98H31.5387V142.72H25.3087V144.552C25.3087 145.039 25.7009 145.433 26.1855 145.433H33.2461V147.172H26.1855C24.7549 147.172 23.5781 145.99 23.5781 144.552V140.076C23.5781 138.638 24.7318 137.455 26.1855 137.455H33.2461V139.194H26.1855C25.7009 139.194 25.3087 139.589 25.3087 140.076Z" fill="#464646"/>
<path d="M42.0845 140.1C42.0845 139.613 41.6922 139.218 41.2076 139.218H37.285C36.8005 139.218 36.4083 139.613 36.4083 140.1V140.146C36.4083 140.633 36.8005 141.027 37.285 141.027H40.7692C41.6691 141.027 42.4767 141.422 43.0305 142.025C43.0766 142.071 43.0997 142.117 43.1458 142.14C43.5842 142.674 43.8381 143.346 43.8381 144.089C43.8381 145.782 42.4767 147.173 40.7692 147.173H37.7465C36.0621 147.173 34.6777 145.805 34.6777 144.089H36.4083C36.4083 144.831 37.0082 145.434 37.7465 145.434H40.7692C41.5076 145.434 42.1076 144.831 42.1076 144.089C42.1076 143.346 41.5076 142.743 40.7692 142.743H37.285C36.5697 142.743 35.9468 142.465 35.4622 142.001C35.3469 141.885 35.2315 141.746 35.1392 141.584C34.8392 141.166 34.6777 140.656 34.6777 140.1V140.053C34.6777 138.615 35.8314 137.433 37.285 137.433H41.2076C42.6382 137.433 43.815 138.615 43.815 140.053V140.1H42.0845Z" fill="#464646"/>
<path d="M45.1992 147.173V137.433H46.9298V147.173H45.1992Z" fill="#464646"/>
<path d="M53.1366 137.455C55.8131 137.455 57.982 139.635 57.982 142.302C57.982 143.508 57.5436 144.598 56.8283 145.456C56.736 145.549 56.6438 145.642 56.5515 145.758C55.6747 146.639 54.4749 147.195 53.1366 147.195H48.291V137.455H53.1135H53.1366ZM50.0216 145.456H53.1366C54.844 145.456 56.2515 144.041 56.2515 142.325C56.2515 140.609 54.844 139.194 53.1366 139.194H50.0216V145.456Z" fill="#464646"/>
<path d="M61.1192 140.076V140.98H67.3491V142.72H61.1192V144.552C61.1192 145.039 61.5115 145.433 61.996 145.433H69.0567V147.172H61.996C60.5655 147.172 59.3887 145.99 59.3887 144.552V140.076C59.3887 138.638 60.5424 137.455 61.996 137.455H69.0567V139.194H61.996C61.5115 139.194 61.1192 139.589 61.1192 140.076Z" fill="#464646"/>
<path d="M80.1559 137.455V147.195L78.4254 145.85L72.1954 141.027V147.195H70.4648V137.478L72.1954 138.823L78.4254 143.647V137.455H80.1559Z" fill="#464646"/>
<path d="M91.209 137.455V139.194H87.2403V147.195H85.5097V139.194H81.541V137.455H91.209Z" fill="#464646"/>
<path d="M92.6152 147.173V137.433H94.3458V147.173H92.6152Z" fill="#464646"/>
<path d="M105.077 147.173H103.139L102.262 145.434L100.139 141.259L98.0162 145.434L97.1394 147.173H95.2012L96.078 145.434L100.139 137.433L104.2 145.434L105.077 147.173Z" fill="#464646"/>
<path d="M113.889 145.456V147.195H108.975C108.49 147.195 108.029 147.08 107.613 146.871C107.013 146.569 106.506 146.059 106.206 145.456C105.998 145.039 105.883 144.575 105.883 144.088V137.455H107.613V144.25C107.706 144.853 108.19 145.34 108.79 145.433H113.866L113.889 145.456Z" fill="#464646"/>
<path d="M63.6816 201C29.0245 201 0.828125 172.66 0.828125 137.827V63.1734C0.828125 28.3399 29.0245 0 63.6816 0C98.3387 0 126.535 28.3399 126.535 63.1734V137.827C126.535 172.66 98.3387 201 63.6816 201ZM63.6816 1.8785C30.0397 1.8785 2.69711 29.3835 2.69711 63.1734V137.827C2.69711 171.64 30.0628 199.122 63.6816 199.122C97.3004 199.122 124.666 171.616 124.666 137.827V63.1734C124.666 29.3603 97.3004 1.8785 63.6816 1.8785Z" fill="#464646"/>
</svg>
