<svg width="126" height="201" viewBox="0 0 126 201" fill="none" xmlns="http://www.w3.org/2000/svg">
<path d="M54.5305 115.169V117.21H46.27C45.6932 117.21 45.2317 117.674 45.2317 118.253V119.32H52.5V121.361H45.2086V126.579H43.2012V118.277C43.2012 116.584 44.5626 115.215 46.247 115.215H54.5305V115.169Z" fill="#464646"/>
<path d="M56.1211 126.533V115.169H58.1516V126.533H56.1211Z" fill="#464646"/>
<path d="M68.9045 124.538L69.9429 126.579H67.6816L66.6432 124.538L65.5588 122.404L65.5126 122.311C65.1665 121.732 64.5205 121.337 63.8052 121.337H61.7747V126.579H59.7441V115.215H66.8971C67.7277 115.215 68.4892 115.563 69.0429 116.119C69.5967 116.699 69.9429 117.441 69.9429 118.299C69.9429 119.528 69.2045 120.595 68.1661 121.082C67.8892 121.221 67.5893 121.291 67.2893 121.337L68.9045 124.561V124.538ZM66.8971 119.297C67.0355 119.297 67.197 119.273 67.3124 119.204C67.6816 119.041 67.9354 118.67 67.9354 118.253C67.9354 117.882 67.7508 117.627 67.6355 117.511C67.497 117.372 67.2663 117.209 66.8971 117.209H61.7747V119.297H66.8971Z" fill="#464646"/>
<path d="M73.566 118.23V119.297H80.8344V121.338H73.566V123.472C73.566 124.052 74.0275 124.515 74.6044 124.515H82.8648V126.556H74.6044C72.92 126.556 71.5586 125.165 71.5586 123.495V118.254C71.5586 116.561 72.92 115.192 74.6044 115.192H82.8648V117.233H74.6044C74.0275 117.233 73.566 117.697 73.566 118.277V118.23Z" fill="#464646"/>
<path d="M21.1877 145.155L22.226 147.196H19.9648L18.9264 145.155L17.842 143.021L17.7958 142.929C17.4497 142.349 16.8036 141.955 16.0883 141.955H14.0578V147.196H12.0273V135.832H19.1803C20.0109 135.832 20.7724 136.18 21.3261 136.736C21.8799 137.316 22.226 138.058 22.226 138.916C22.226 140.146 21.4877 141.212 20.4493 141.699C20.1724 141.839 19.8725 141.908 19.5725 141.955L21.1877 145.178V145.155ZM19.1803 139.914C19.3187 139.914 19.4802 139.891 19.5956 139.821C19.9648 139.659 20.2186 139.288 20.2186 138.87C20.2186 138.499 20.034 138.244 19.9186 138.128C19.7802 137.989 19.5494 137.826 19.1803 137.826H14.0578V139.914H19.1803Z" fill="#464646"/>
<path d="M25.8492 138.87V139.937H33.1175V141.978H25.8492V144.111C25.8492 144.691 26.3107 145.155 26.8876 145.155H35.148V147.196H26.8876C25.2032 147.196 23.8418 145.804 23.8418 144.135V138.893C23.8418 137.2 25.2032 135.832 26.8876 135.832H35.148V137.873H26.8876C26.3107 137.873 25.8492 138.337 25.8492 138.916V138.87Z" fill="#464646"/>
<path d="M45.4375 138.964V138.894C45.4375 138.314 44.976 137.85 44.3992 137.85H39.8075C39.2306 137.85 38.7691 138.314 38.7691 138.894V138.964C38.7691 139.543 39.2306 140.007 39.8075 140.007H43.8685C44.9299 140.007 45.8529 140.471 46.4989 141.167C46.5451 141.213 46.5912 141.26 46.6374 141.306C47.145 141.932 47.4449 142.721 47.4449 143.579C47.4449 145.55 45.8529 147.173 43.8685 147.173H40.3382C38.3769 147.173 36.7617 145.573 36.7617 143.579H38.7922C38.7922 144.437 39.4844 145.133 40.3382 145.133H43.8685C44.7222 145.133 45.4375 144.437 45.4375 143.579C45.4375 142.721 44.7222 142.025 43.8685 142.025H39.8075C38.9768 142.025 38.2384 141.7 37.6847 141.167C37.5462 141.028 37.4078 140.865 37.2924 140.68C36.9463 140.193 36.7617 139.59 36.7617 138.94V138.871C36.7617 137.178 38.1231 135.81 39.8075 135.81H44.3992C46.0836 135.81 47.4449 137.201 47.4449 138.871V138.94H45.4145L45.4375 138.964Z" fill="#464646"/>
<path d="M49.0605 147.173V135.81H51.091V147.173H49.0605Z" fill="#464646"/>
<path d="M61.3828 138.964V138.894C61.3828 138.314 60.9214 137.85 60.3445 137.85H55.7528C55.1759 137.85 54.7145 138.314 54.7145 138.894V138.964C54.7145 139.543 55.1759 140.007 55.7528 140.007H59.8138C60.8752 140.007 61.7982 140.471 62.4443 141.167C62.4904 141.213 62.5366 141.26 62.5827 141.306C63.0903 141.932 63.3903 142.721 63.3903 143.579C63.3903 145.55 61.7982 147.173 59.8138 147.173H56.2835C54.3222 147.173 52.707 145.573 52.707 143.579H54.7376C54.7376 144.437 55.4298 145.133 56.2835 145.133H59.8138C60.6676 145.133 61.3828 144.437 61.3828 143.579C61.3828 142.721 60.6676 142.025 59.8138 142.025H55.7528C54.9221 142.025 54.1838 141.7 53.63 141.167C53.4916 141.028 53.3531 140.865 53.2378 140.68C52.8916 140.193 52.707 139.59 52.707 138.94V138.871C52.707 137.178 54.0684 135.81 55.7528 135.81H60.3445C62.0289 135.81 63.3903 137.201 63.3903 138.871V138.94H61.3598L61.3828 138.964Z" fill="#464646"/>
<path d="M76.3121 135.832V137.873H71.6743V147.219H69.6437V137.873H65.0059V135.832H76.3121Z" fill="#464646"/>
<path d="M88.8397 147.173H86.5784L85.5401 145.132L83.0712 140.262L80.6023 145.132L79.5639 147.173H77.3027L78.341 145.132L83.0712 135.786L87.8014 145.132L88.8397 147.173Z" fill="#464646"/>
<path d="M101.116 135.833V147.197L99.086 145.643L91.8176 140.007V147.197H89.7871V135.856L91.8176 137.41L99.086 143.045V135.81H101.116V135.833Z" fill="#464646"/>
<path d="M114.013 135.832V137.873H109.375V147.219H107.345V137.873H102.707V135.832H114.013Z" fill="#464646"/>
<path d="M62.9746 201C28.3175 201 0.121094 172.66 0.121094 137.827V63.1734C0.121094 28.3399 28.3175 0 62.9746 0C97.6317 0 125.828 28.3399 125.828 63.1734V137.827C125.828 172.66 97.6317 201 62.9746 201ZM62.9746 1.8785C29.3327 1.8785 1.99008 29.3835 1.99008 63.1734V137.827C1.99008 171.64 29.3558 199.122 62.9746 199.122C96.5933 199.122 123.959 171.616 123.959 137.827V63.1734C123.959 29.3603 96.5933 1.8785 62.9746 1.8785Z" fill="#464646"/>
<path d="M70.773 103.271C76.057 95.1543 75.7801 92.4409 69.4117 84.8109C65.5814 80.2422 65.3276 79.5697 64.7507 74.9778C57.8516 79.2914 53.1215 88.4288 58.0362 96.453C57.8747 96.6617 57.7362 96.8705 57.5747 97.0792C55.8903 95.85 54.2059 94.6209 52.5908 93.4381C51.0217 96.4762 51.5063 98.0996 56.0749 103.225C49.6373 102.019 45.0225 98.8185 42.2998 93.2758C38.7002 85.9473 39.3002 78.6188 42.7151 71.3367C44.2841 73.7486 45.7147 75.9518 47.1453 78.155C47.3991 78.0622 47.676 77.9694 47.9298 77.8767C44.5149 71.4295 46.9838 66.2114 50.9755 61.2484C55.9595 55.0795 59.213 48.2381 58.6131 39.6572C69.7809 46.1972 75.6878 55.2419 74.0496 68.6001C74.4418 68.6001 74.811 68.6001 75.2033 68.6001C76.4262 66.4201 77.626 64.2169 78.9181 61.8978C83.7867 70.3163 87.6631 79.129 85.1712 89.3332C83.3483 96.7313 77.949 100.674 70.773 103.271Z" fill="#464646"/>
</svg>
