<svg width="116" height="184" viewBox="0 0 116 184" fill="none" xmlns="http://www.w3.org/2000/svg">
<path d="M50.1844 105.367V107.226H42.6262C42.0984 107.226 41.6762 107.649 41.6762 108.177V109.15H48.3265V111.009H41.6551V115.764H39.8184V108.199C39.8184 106.656 41.064 105.409 42.6051 105.409H50.1844V105.367Z" fill="#464646"/>
<path d="M51.6426 115.722V105.367H53.5004V115.722H51.6426Z" fill="#464646"/>
<path d="M63.317 113.905L64.267 115.765H62.1981L61.248 113.905L60.2558 111.961L60.2136 111.876C59.8969 111.348 59.3057 110.988 58.6512 110.988H56.7934V115.765H54.9355V105.409H61.4802C62.2403 105.409 62.937 105.726 63.4437 106.233C63.9504 106.762 64.267 107.438 64.267 108.22C64.267 109.34 63.5915 110.312 62.6414 110.756C62.3881 110.883 62.1136 110.946 61.8392 110.988L63.317 113.926V113.905ZM61.4802 109.129C61.6069 109.129 61.7547 109.108 61.8603 109.044C62.1981 108.896 62.4303 108.558 62.4303 108.178C62.4303 107.84 62.2614 107.607 62.1558 107.501C62.0292 107.375 61.818 107.227 61.4802 107.227H56.7934V109.129H61.4802Z" fill="#464646"/>
<path d="M67.6024 108.156V109.128H74.2526V110.988H67.6024V112.932C67.6024 113.461 68.0246 113.883 68.5524 113.883H76.1105V115.743H68.5524C67.0112 115.743 65.7656 114.475 65.7656 112.954V108.177C65.7656 106.635 67.0112 105.388 68.5524 105.388H76.1105V107.247H68.5524C68.0246 107.247 67.6024 107.67 67.6024 108.198V108.156Z" fill="#464646"/>
<path d="M19.6569 132.693L20.6069 134.552H18.5379L17.5879 132.693L16.5956 130.748L16.5534 130.664C16.2367 130.135 15.6456 129.776 14.9911 129.776H13.1333V134.552H11.2754V124.197H17.8201C18.5801 124.197 19.2768 124.514 19.7835 125.021C20.2902 125.549 20.6069 126.226 20.6069 127.008C20.6069 128.128 19.9313 129.1 18.9813 129.544C18.7279 129.67 18.4535 129.734 18.179 129.776L19.6569 132.714V132.693ZM17.8201 127.916C17.9468 127.916 18.0946 127.895 18.2001 127.832C18.5379 127.684 18.7702 127.346 18.7702 126.965C18.7702 126.627 18.6013 126.395 18.4957 126.289C18.369 126.162 18.1579 126.014 17.8201 126.014H13.1333V127.916H17.8201Z" fill="#464646"/>
<path d="M23.9422 126.965V127.937H30.5925V129.797H23.9422V131.742C23.9422 132.27 24.3644 132.693 24.8922 132.693H32.4504V134.552H24.8922C23.3511 134.552 22.1055 133.284 22.1055 131.763V126.986C22.1055 125.444 23.3511 124.197 24.8922 124.197H32.4504V126.057H24.8922C24.3644 126.057 23.9422 126.479 23.9422 127.008V126.965Z" fill="#464646"/>
<path d="M41.8463 127.05V126.987C41.8463 126.458 41.4241 126.036 40.8963 126.036H36.695C36.1672 126.036 35.7449 126.458 35.7449 126.987V127.05C35.7449 127.578 36.1672 128.001 36.695 128.001H40.4107C41.3819 128.001 42.2263 128.424 42.8175 129.058C42.8597 129.1 42.9019 129.142 42.9442 129.184C43.4086 129.755 43.6831 130.474 43.6831 131.256C43.6831 133.052 42.2263 134.531 40.4107 134.531H37.1806C35.3861 134.531 33.9082 133.073 33.9082 131.256H35.766C35.766 132.038 36.3994 132.672 37.1806 132.672H40.4107C41.1919 132.672 41.8463 132.038 41.8463 131.256C41.8463 130.474 41.1919 129.84 40.4107 129.84H36.695C35.9349 129.84 35.2594 129.544 34.7527 129.058C34.626 128.931 34.4993 128.783 34.3938 128.614C34.0771 128.17 33.9082 127.621 33.9082 127.029V126.965C33.9082 125.423 35.1538 124.176 36.695 124.176H40.8963C42.4375 124.176 43.6831 125.444 43.6831 126.965V127.029H41.8252L41.8463 127.05Z" fill="#464646"/>
<path d="M45.1816 134.531V124.176H47.0395V134.531H45.1816Z" fill="#464646"/>
<path d="M56.4342 127.05V126.987C56.4342 126.458 56.012 126.036 55.4842 126.036H51.2829C50.7551 126.036 50.3328 126.458 50.3328 126.987V127.05C50.3328 127.578 50.7551 128.001 51.2829 128.001H54.9986C55.9698 128.001 56.8142 128.424 57.4054 129.058C57.4476 129.1 57.4898 129.142 57.532 129.184C57.9965 129.755 58.271 130.474 58.271 131.256C58.271 133.052 56.8143 134.531 54.9986 134.531H51.7685C49.974 134.531 48.4961 133.073 48.4961 131.256H50.354C50.354 132.038 50.9874 132.672 51.7685 132.672H54.9986C55.7798 132.672 56.4342 132.038 56.4342 131.256C56.4342 130.474 55.7798 129.84 54.9986 129.84H51.2829C50.5229 129.84 49.8473 129.544 49.3406 129.058C49.2139 128.931 49.0873 128.783 48.9817 128.614C48.665 128.17 48.4961 127.621 48.4961 127.029V126.965C48.4961 125.423 49.7417 124.176 51.2829 124.176H55.4842C57.0254 124.176 58.271 125.444 58.271 126.965V127.029H56.4131L56.4342 127.05Z" fill="#464646"/>
<path d="M70.0929 124.197V126.057H65.8494V134.573H63.9915V126.057H59.748V124.197H70.0929Z" fill="#464646"/>
<path d="M81.558 134.531H79.489L78.539 132.672L76.28 128.234L74.021 132.672L73.071 134.531H71.002L71.952 132.672L76.28 124.155L80.608 132.672L81.558 134.531Z" fill="#464646"/>
<path d="M92.7898 124.197V134.552L90.932 133.136L84.2817 128.001V134.552H82.4238V124.218L84.2817 125.634L90.932 130.769V124.176H92.7898V124.197Z" fill="#464646"/>
<path d="M104.591 124.197V126.057H100.347V134.573H98.4896V126.057H94.2461V124.197H104.591Z" fill="#464646"/>
<path d="M57.8901 183.583C26.1798 183.583 0.380859 157.757 0.380859 126.015V57.9852C0.380859 26.2424 26.1798 0.416992 57.8901 0.416992C89.6003 0.416992 115.399 26.2424 115.399 57.9852V126.015C115.399 157.757 89.6003 183.583 57.8901 183.583ZM57.8901 2.12882C27.1087 2.12882 2.09093 27.1934 2.09093 57.9852V126.015C2.09093 156.827 27.1298 181.871 57.8901 181.871C88.6503 181.871 113.689 156.806 113.689 126.015V57.9852C113.689 27.1722 88.6503 2.12882 57.8901 2.12882Z" fill="#464646"/>
<path d="M65.0257 94.5254C69.8604 87.1286 69.607 84.6559 63.7801 77.703C60.2755 73.5396 60.0432 72.9267 59.5154 68.7423C53.2029 72.6731 48.875 80.9998 53.3718 88.3121C53.2241 88.5023 53.0974 88.6925 52.9496 88.8827C51.4085 87.7626 49.8673 86.6425 48.3894 85.5647C46.9538 88.3332 47.3972 89.8126 51.5774 94.4831C45.6871 93.3841 41.4647 90.4677 38.9734 85.4168C35.68 78.7385 36.2289 72.0603 39.3535 65.4243C40.7891 67.6222 42.098 69.6299 43.407 71.6376C43.6392 71.5531 43.8926 71.4685 44.1248 71.384C41.0002 65.5088 43.2592 60.7537 46.9116 56.2311C51.4718 50.6096 54.4485 44.3751 53.8996 36.5557C64.1179 42.5154 69.5225 50.7575 68.0236 62.9305C68.3825 62.9305 68.7203 62.9305 69.0792 62.9305C70.1981 60.9439 71.296 58.9362 72.4783 56.8229C76.9329 64.4944 80.4797 72.5252 78.1996 81.824C76.5318 88.5657 71.5916 92.1584 65.0257 94.5254Z" fill="#464646"/>
</svg>
