<svg width="550" height="55" viewBox="0 0 550 55" fill="none" xmlns="http://www.w3.org/2000/svg">
<g clip-path="url(#clip0_794_4403)">
<mask id="mask0_794_4403" style="mask-type:luminance" maskUnits="userSpaceOnUse" x="0" y="0" width="126" height="49">
<path d="M125.08 0H0V48.97H125.08V0Z" fill="white"/>
</mask>
<g mask="url(#mask0_794_4403)">
<mask id="mask1_794_4403" style="mask-type:luminance" maskUnits="userSpaceOnUse" x="0" y="0" width="125" height="49">
<path d="M31.7891 17.6201L30.5991 22.4001C30.4591 22.9501 30.3191 23.5101 30.1791 24.0601C29.9791 24.8601 29.6391 25.1401 28.7991 25.1201L15.5291 24.9001C10.4591 24.8001 5.37914 24.6901 0.319141 24.5801L0.119141 24.5601L0.369141 24.3901C8.57914 24.2301 16.5891 24.0701 24.6191 23.9201L28.4591 23.8601C28.7891 23.8601 28.9191 23.7301 28.9791 23.4401L30.8991 14.5601C30.9691 14.2401 31.1191 13.8701 31.3591 13.6601C31.9291 13.1801 32.6991 13.5501 32.8691 14.3801L33.7291 18.4401C34.5491 22.3001 35.3591 26.1601 36.1791 30.0101L36.2191 30.0601L36.9891 27.1201C37.1591 26.3501 37.3291 25.5801 37.4991 24.8101C37.7291 23.8101 38.2791 23.3601 39.3191 23.3501L50.9591 23.2701C51.3691 23.2701 51.5291 23.1401 51.6491 22.7601L57.6691 1.62006C57.9991 0.50006 58.6691 0.0100596 59.5891 0.25006C60.2191 0.41006 60.5891 0.84006 60.6791 1.47006L62.0591 11.1001C62.5691 14.6701 63.0791 18.2501 63.5791 21.8301L64.0191 25.4001C64.4191 28.1901 64.8491 30.9701 65.2491 33.7601L66.2891 41.1601C66.2891 41.2401 66.3191 41.3101 66.4391 41.3901L67.3291 38.4001C68.6791 33.8501 70.0291 29.3001 71.3791 24.7501C71.6991 23.6701 72.2891 23.2401 73.4291 23.2501L84.8091 23.3401H85.5391L86.5191 19.3101C86.9191 17.6501 87.3091 16.0101 87.7091 14.3501C87.8991 13.5901 88.3191 13.2201 88.9491 13.2201C89.5791 13.2201 89.9891 13.6001 90.1391 14.3901L92.3091 25.8501C92.6391 27.5901 92.9491 29.3301 93.2791 31.0701L93.3291 31.1501L94.4091 27.2101C94.6091 26.4101 94.7991 25.6101 95.0091 24.8101L95.5091 23.8301C101.519 23.9301 106.809 24.0101 112.089 24.1101L124.409 24.3801C124.599 24.3801 124.779 24.3801 124.959 24.3801V24.4801L124.699 24.5801C118.749 24.7001 112.949 24.8201 107.139 24.9301L96.7691 25.1101C96.3891 25.1101 96.2591 25.2301 96.1891 25.5901L94.2991 34.4501C94.1391 35.1901 93.7791 35.5801 93.2391 35.5501L92.4391 35.2201C91.6391 31.5101 90.9791 28.3901 90.3191 25.2801L89.0391 19.2101C89.0191 19.1101 88.9691 19.0101 88.8991 18.7901L87.6891 24.1601C87.4491 25.1901 86.8691 25.6601 85.8391 25.6601L74.2591 25.7301C73.8391 25.7301 73.6591 25.8401 73.5391 26.2601L67.4591 47.5301C67.0691 48.8901 65.6691 49.1201 64.9791 48.4001L64.4991 47.6201C63.6291 41.6401 62.8391 36.0901 62.0691 30.5301L61.4191 25.5301C61.3391 24.8901 61.0891 24.2701 61.1191 23.6401C61.1491 22.5301 60.6991 21.5201 60.6091 20.4301L60.1791 17.1401C59.7591 14.0701 59.3191 10.9901 58.8991 7.92006L58.8291 7.69006C58.1991 9.38006 57.6591 11.1901 57.1291 13.0001L53.7591 24.3301C53.4691 25.3101 52.8991 25.7301 51.8591 25.7201L40.1691 25.6301C39.7691 25.6301 39.6091 25.7301 39.5091 26.1401L37.4491 34.6601C37.2691 35.3801 36.8491 35.7501 36.2291 35.7401C35.6091 35.7301 35.1891 35.3601 35.0491 34.6101L32.5991 21.5901C32.3791 20.4201 32.1691 19.2501 31.9491 18.0701L31.8691 17.8201" fill="white"/>
</mask>
<g mask="url(#mask1_794_4403)">
<path d="M124.89 0.19043H0V48.7804H124.89V0.19043Z" fill="black"/>
</g>
</g>
<path d="M157.079 3.71918C159.389 4.75918 161.159 6.24918 162.409 8.15918C163.659 10.0792 164.279 12.3492 164.279 14.9792C164.279 17.6092 163.659 19.8392 162.409 21.7692C161.159 23.7092 159.389 25.1892 157.079 26.2092C154.769 27.2392 152.059 27.7492 148.919 27.7492H141.799V37.4992H133.619V2.15918H148.919C152.049 2.15918 154.769 2.67918 157.079 3.72918V3.71918ZM154.079 19.4992C155.359 18.4392 155.999 16.9292 155.999 14.9792C155.999 13.0292 155.359 11.4692 154.079 10.4092C152.799 9.34918 150.929 8.81918 148.469 8.81918H141.799V21.0892H148.469C150.929 21.0892 152.799 20.5592 154.079 19.4992Z" fill="white"/>
<path d="M177.128 33.9192C174.318 31.1292 172.908 27.1392 172.908 21.9492V2.15918H181.088V21.6492C181.088 27.9792 183.718 31.1392 188.968 31.1392C191.528 31.1392 193.478 30.3692 194.828 28.8392C196.178 27.3092 196.848 24.9092 196.848 21.6392V2.15918H204.928V21.9592C204.928 27.1492 203.518 31.1292 200.708 33.9292C197.898 36.7192 193.968 38.1192 188.918 38.1192C183.868 38.1192 179.938 36.7192 177.128 33.9292V33.9192Z" fill="white"/>
<path d="M215.629 2.15918H223.809V30.8492H241.539V37.5192H215.629V2.15918Z" fill="white"/>
<path d="M252.269 36.9796C249.659 36.2196 247.559 35.2396 245.979 34.0296L248.759 27.8696C250.269 28.9796 252.079 29.8696 254.159 30.5496C256.249 31.2196 258.329 31.5596 260.419 31.5596C262.739 31.5596 264.459 31.2196 265.569 30.5196C266.679 29.8296 267.239 28.9096 267.239 27.7696C267.239 26.9296 266.909 26.2296 266.259 25.6696C265.599 25.1096 264.759 24.6696 263.729 24.3296C262.699 23.9896 261.309 23.6196 259.559 23.2196C256.869 22.5796 254.659 21.9396 252.939 21.2996C251.219 20.6596 249.749 19.6296 248.519 18.2196C247.289 16.8096 246.679 14.9196 246.679 12.5596C246.679 10.5096 247.239 8.64957 248.349 6.97957C249.459 5.30957 251.139 3.98957 253.369 3.01957C255.609 2.03957 258.339 1.55957 261.579 1.55957C263.829 1.55957 266.039 1.82957 268.199 2.36957C270.349 2.90957 272.239 3.67957 273.859 4.68957L271.329 10.8996C268.059 9.04957 264.799 8.11957 261.529 8.11957C259.239 8.11957 257.549 8.48957 256.449 9.22957C255.359 9.96957 254.809 10.9496 254.809 12.1596C254.809 13.3696 255.439 14.2696 256.699 14.8596C257.959 15.4496 259.889 16.0296 262.479 16.5996C265.169 17.2396 267.379 17.8796 269.099 18.5196C270.819 19.1596 272.289 20.1696 273.519 21.5496C274.749 22.9296 275.359 24.7996 275.359 27.1596C275.359 29.1796 274.799 31.0196 273.669 32.6896C272.539 34.3596 270.849 35.6796 268.589 36.6496C266.329 37.6296 263.589 38.1096 260.359 38.1096C257.569 38.1096 254.859 37.7296 252.249 36.9696L252.269 36.9796Z" fill="white"/>
<path d="M310.979 30.9392V37.5092H283.609V2.15918H310.329V8.72918H291.749V16.4092H308.159V22.7692H291.749V30.9492H310.989L310.979 30.9392Z" fill="white"/>
<path d="M341.359 2.17969V37.5297H333.179V8.73969H326.109V2.17969H341.359Z" fill="black"/>
<path d="M351.308 36.5199C350.368 35.5799 349.898 34.3999 349.898 32.9799C349.898 31.5599 350.368 30.3599 351.308 29.4699C352.248 28.5799 353.408 28.1299 354.788 28.1299C356.168 28.1299 357.328 28.5799 358.268 29.4699C359.208 30.3599 359.678 31.5299 359.678 32.9799C359.678 34.4299 359.208 35.5699 358.268 36.5199C357.328 37.4599 356.168 37.9299 354.788 37.9299C353.408 37.9299 352.248 37.4599 351.308 36.5199Z" fill="black"/>
<path d="M373.32 35.9593C371.03 34.5093 369.24 32.4193 367.94 29.6693C366.64 26.9293 366 23.6493 366 19.8493C366 16.0493 366.65 12.7693 367.94 10.0293C369.24 7.28934 371.03 5.18934 373.32 3.73934C375.61 2.28934 378.22 1.56934 381.15 1.56934C384.08 1.56934 386.69 2.28934 388.98 3.73934C391.27 5.18934 393.06 7.27934 394.36 10.0293C395.66 12.7693 396.3 16.0493 396.3 19.8493C396.3 23.6493 395.65 26.9293 394.36 29.6693C393.06 32.4193 391.27 34.5093 388.98 35.9593C386.69 37.4093 384.08 38.1293 381.15 38.1293C378.22 38.1293 375.61 37.4093 373.32 35.9593ZM386.22 28.4293C387.45 26.5793 388.06 23.7193 388.06 19.8493C388.06 15.9793 387.45 13.1193 386.22 11.2693C384.99 9.41934 383.3 8.48934 381.14 8.48934C378.98 8.48934 377.34 9.41934 376.12 11.2693C374.89 13.1193 374.28 15.9793 374.28 19.8493C374.28 23.7193 374.89 26.5793 376.12 28.4293C377.35 30.2793 379.02 31.2093 381.14 31.2093C383.26 31.2093 384.99 30.2793 386.22 28.4293Z" fill="black"/>
<path d="M150.608 43.1797L147.558 54.8697H144.108L142.248 47.1797L140.318 54.8697H136.868L133.908 43.1797H136.958L138.638 51.6897L140.718 43.1797H143.848L145.848 51.6897L147.548 43.1797H150.608Z" fill="white"/>
<path d="M159.31 52.7999H154.95L154.25 54.8599H151.27L155.5 43.1699H158.8L163.03 54.8599H160.02L159.32 52.7999H159.31ZM158.58 50.5999L157.13 46.3199L155.7 50.5999H158.58Z" fill="white"/>
<path d="M172.708 43.1797V45.4597H169.608V54.8697H166.758V45.4597H163.658V43.1797H172.698H172.708Z" fill="white"/>
<path d="M176.989 45.4599V47.8199H180.799V50.0199H176.989V52.5799H181.299V54.8599H174.139V43.1699H181.299V45.4499H176.989V45.4599Z" fill="white"/>
<path d="M189.099 54.8697L186.669 50.4597H185.989V54.8697H183.139V43.1797H187.919C188.839 43.1797 189.629 43.3397 190.279 43.6597C190.929 43.9797 191.409 44.4197 191.739 44.9797C192.069 45.5397 192.219 46.1597 192.219 46.8497C192.219 47.6297 191.999 48.3197 191.559 48.9297C191.119 49.5397 190.479 49.9697 189.619 50.2297L192.319 54.8597H189.109L189.099 54.8697ZM185.989 48.4397H187.749C188.269 48.4397 188.659 48.3097 188.919 48.0597C189.179 47.8097 189.309 47.4397 189.309 46.9797C189.309 46.5197 189.179 46.1897 188.919 45.9297C188.659 45.6797 188.269 45.5497 187.749 45.5497H185.989V48.4497V48.4397Z" fill="white"/>
<path d="M202.44 48.7995C202.13 49.3595 201.65 49.8095 201.01 50.1595C200.37 50.4995 199.57 50.6795 198.61 50.6795H196.85V54.8795H194V43.1895H198.61C199.54 43.1895 200.33 43.3495 200.97 43.6695C201.61 43.9895 202.1 44.4395 202.42 44.9995C202.74 45.5695 202.9 46.2095 202.9 46.9495C202.9 47.6295 202.74 48.2495 202.43 48.8095L202.44 48.7995ZM199.61 48.0295C199.88 47.7795 200.01 47.4095 200.01 46.9495C200.01 46.4895 199.88 46.1195 199.61 45.8695C199.34 45.6195 198.94 45.4895 198.39 45.4895H196.84V48.4195H198.39C198.93 48.4195 199.34 48.2895 199.61 48.0395V48.0295Z" fill="white"/>
<path d="M210.339 54.8697L207.909 50.4597H207.229V54.8697H204.379V43.1797H209.159C210.079 43.1797 210.869 43.3397 211.519 43.6597C212.169 43.9797 212.649 44.4197 212.979 44.9797C213.309 45.5397 213.459 46.1597 213.459 46.8497C213.459 47.6297 213.239 48.3197 212.799 48.9297C212.359 49.5397 211.719 49.9697 210.859 50.2297L213.559 54.8597H210.349L210.339 54.8697ZM207.229 48.4397H208.989C209.509 48.4397 209.899 48.3097 210.159 48.0597C210.419 47.8097 210.549 47.4397 210.549 46.9797C210.549 46.5197 210.419 46.1897 210.159 45.9297C209.899 45.6797 209.509 45.5497 208.989 45.5497H207.229V48.4497V48.4397Z" fill="white"/>
<path d="M217.74 54.2198C216.82 53.7098 216.1 52.9998 215.56 52.0798C215.02 51.1598 214.75 50.1298 214.75 48.9898C214.75 47.8498 215.02 46.8198 215.56 45.9098C216.1 44.9998 216.83 44.2898 217.74 43.7798C218.66 43.2698 219.66 43.0098 220.76 43.0098C221.86 43.0098 222.87 43.2698 223.78 43.7798C224.7 44.2898 225.42 44.9998 225.94 45.9098C226.47 46.8198 226.73 47.8498 226.73 48.9898C226.73 50.1298 226.46 51.1598 225.93 52.0798C225.4 52.9998 224.68 53.7098 223.77 54.2198C222.86 54.7298 221.86 54.9898 220.76 54.9898C219.66 54.9898 218.65 54.7398 217.74 54.2198ZM223 51.4598C223.56 50.8398 223.84 50.0198 223.84 48.9998C223.84 47.9798 223.56 47.1398 223 46.5298C222.44 45.9098 221.69 45.6098 220.76 45.6098C219.83 45.6098 219.06 45.9198 218.5 46.5298C217.94 47.1398 217.66 47.9698 217.66 49.0098C217.66 50.0498 217.94 50.8698 218.5 51.4798C219.06 52.0998 219.81 52.3998 220.76 52.3998C221.71 52.3998 222.44 52.0898 223 51.4698V51.4598Z" fill="white"/>
<path d="M230.82 54.2198C229.9 53.7098 229.18 52.9998 228.64 52.0798C228.1 51.1598 227.83 50.1298 227.83 48.9898C227.83 47.8498 228.1 46.8198 228.64 45.9098C229.18 44.9998 229.91 44.2898 230.82 43.7798C231.74 43.2698 232.74 43.0098 233.84 43.0098C234.94 43.0098 235.95 43.2698 236.86 43.7798C237.78 44.2898 238.5 44.9998 239.02 45.9098C239.55 46.8198 239.81 47.8498 239.81 48.9898C239.81 50.1298 239.54 51.1598 239.01 52.0798C238.48 52.9998 237.76 53.7098 236.85 54.2198C235.94 54.7298 234.94 54.9898 233.84 54.9898C232.74 54.9898 231.73 54.7398 230.82 54.2198ZM236.08 51.4598C236.64 50.8398 236.92 50.0198 236.92 48.9998C236.92 47.9798 236.64 47.1398 236.08 46.5298C235.52 45.9098 234.77 45.6098 233.84 45.6098C232.91 45.6098 232.14 45.9198 231.58 46.5298C231.02 47.1398 230.74 47.9698 230.74 49.0098C230.74 50.0498 231.02 50.8698 231.58 51.4798C232.14 52.0998 232.89 52.3998 233.84 52.3998C234.79 52.3998 235.52 52.0898 236.08 51.4698V51.4598Z" fill="white"/>
<path d="M249.008 43.1799V45.4599H244.248V47.9199H247.808V50.1299H244.248V54.8599H241.398V43.1699H249.008V43.1799Z" fill="white"/>
<path d="M256.249 43.2998L257.179 44.9998L255.129 45.7198L257.179 46.4198L256.179 48.1798L254.519 46.7198L254.939 48.8798H252.989L253.389 46.7198L251.739 48.1998L250.709 46.3998L252.759 45.6798L250.729 45.0098L251.679 43.2998L253.409 44.7498L252.979 42.5498H254.959L254.529 44.7498L256.259 43.2998H256.249Z" fill="white"/>
<path d="M269.28 54.8695L266.52 50.1295H264.69V54.8695H263.17V43.2695H266.92C267.8 43.2695 268.54 43.4195 269.14 43.7195C269.74 44.0195 270.2 44.4295 270.5 44.9295C270.8 45.4395 270.95 46.0195 270.95 46.6795C270.95 47.4795 270.72 48.1795 270.26 48.7895C269.8 49.3995 269.11 49.8095 268.19 50.0095L271.1 54.8695H269.29H269.28ZM264.69 48.9095H266.92C267.74 48.9095 268.36 48.7095 268.77 48.2995C269.18 47.8995 269.39 47.3495 269.39 46.6795C269.39 46.0095 269.19 45.4595 268.78 45.0795C268.37 44.6995 267.76 44.5095 266.92 44.5095H264.69V48.8995V48.9095Z" fill="white"/>
<path d="M274.809 43.2598V54.8598H273.289V43.2598H274.809Z" fill="white"/>
<path d="M286.178 46.6294C285.858 45.9494 285.388 45.4294 284.778 45.0594C284.168 44.6894 283.458 44.4994 282.648 44.4994C281.838 44.4994 281.108 44.6894 280.458 45.0594C279.808 45.4294 279.298 45.9694 278.928 46.6594C278.558 47.3494 278.368 48.1594 278.368 49.0694C278.368 49.9794 278.558 50.7794 278.928 51.4694C279.298 52.1594 279.808 52.6894 280.458 53.0594C281.108 53.4294 281.838 53.6194 282.648 53.6194C283.778 53.6194 284.708 53.2794 285.448 52.6094C286.188 51.9394 286.608 51.0194 286.728 49.8594H282.098V48.6294H288.338V49.7994C288.248 50.7494 287.948 51.6294 287.438 52.4194C286.928 53.2094 286.258 53.8394 285.428 54.2994C284.598 54.7594 283.668 54.9894 282.648 54.9894C281.568 54.9894 280.588 54.7394 279.698 54.2294C278.808 53.7294 278.108 53.0194 277.588 52.1194C277.068 51.2194 276.818 50.2094 276.818 49.0694C276.818 47.9294 277.078 46.9194 277.588 46.0194C278.098 45.1194 278.808 44.4094 279.698 43.9094C280.588 43.4094 281.568 43.1494 282.648 43.1494C283.878 43.1494 284.968 43.4594 285.918 44.0694C286.868 44.6794 287.558 45.5394 287.988 46.6494H286.178V46.6294Z" fill="white"/>
<path d="M291.85 43.2598V54.8598H290.33V43.2598H291.85Z" fill="white"/>
<path d="M301.33 43.9695C302.26 44.4395 302.97 45.1195 303.46 45.9895C303.95 46.8695 304.2 47.8995 304.2 49.0895C304.2 50.2795 303.95 51.3095 303.46 52.1795C302.97 53.0495 302.26 53.7195 301.33 54.1795C300.4 54.6395 299.31 54.8695 298.04 54.8695H294.43V43.2695H298.04C299.31 43.2695 300.4 43.5095 301.33 43.9795V43.9695ZM301.47 52.4295C302.26 51.6395 302.65 50.5195 302.65 49.0895C302.65 47.6595 302.25 46.5195 301.46 45.7095C300.67 44.8995 299.53 44.4895 298.04 44.4895H295.94V53.6095H298.04C299.54 53.6095 300.68 53.2095 301.47 52.4195V52.4295Z" fill="white"/>
<path d="M310.838 45.9994C311.348 45.0994 312.048 44.3894 312.928 43.8794C313.808 43.3694 314.788 43.1094 315.868 43.1094C317.138 43.1094 318.238 43.4194 319.178 44.0294C320.118 44.6394 320.808 45.5094 321.238 46.6294H319.428C319.108 45.9294 318.638 45.3894 318.038 45.0194C317.438 44.6394 316.708 44.4494 315.868 44.4494C315.028 44.4494 314.328 44.6394 313.688 45.0194C313.048 45.3994 312.538 45.9294 312.178 46.6294C311.818 47.3294 311.628 48.1394 311.628 49.0694C311.628 49.9994 311.808 50.7994 312.178 51.4894C312.548 52.1794 313.048 52.7194 313.688 53.0994C314.328 53.4794 315.058 53.6694 315.868 53.6694C316.678 53.6694 317.438 53.4794 318.038 53.1094C318.638 52.7394 319.108 52.1994 319.428 51.4994H321.238C320.808 52.6094 320.118 53.4694 319.178 54.0694C318.238 54.6794 317.128 54.9794 315.868 54.9794C314.788 54.9794 313.808 54.7294 312.928 54.2194C312.048 53.7094 311.348 53.0094 310.838 52.1094C310.328 51.2094 310.068 50.1994 310.068 49.0594C310.068 47.9194 310.328 46.9094 310.838 46.0094V45.9994Z" fill="white"/>
<path d="M325.8 54.2294C324.91 53.7294 324.21 53.0194 323.69 52.1194C323.17 51.2194 322.92 50.1994 322.92 49.0694C322.92 47.9394 323.18 46.9194 323.69 46.0194C324.2 45.1194 324.91 44.4094 325.8 43.9094C326.69 43.4094 327.67 43.1494 328.75 43.1494C329.83 43.1494 330.83 43.3994 331.71 43.9094C332.6 44.4094 333.3 45.1194 333.81 46.0194C334.32 46.9194 334.58 47.9394 334.58 49.0794C334.58 50.2194 334.32 51.2394 333.81 52.1394C333.3 53.0394 332.6 53.7394 331.71 54.2494C330.82 54.7494 329.83 55.0094 328.75 55.0094C327.67 55.0094 326.69 54.7594 325.8 54.2494V54.2294ZM330.94 53.1094C331.59 52.7294 332.1 52.1894 332.47 51.4994C332.84 50.7994 333.03 49.9894 333.03 49.0694C333.03 48.1494 332.84 47.3194 332.47 46.6294C332.1 45.9394 331.59 45.3994 330.95 45.0194C330.31 44.6394 329.57 44.4494 328.75 44.4494C327.93 44.4494 327.2 44.6394 326.55 45.0194C325.91 45.3994 325.4 45.9294 325.03 46.6294C324.66 47.3194 324.47 48.1394 324.47 49.0694C324.47 49.9994 324.66 50.7994 325.03 51.4994C325.4 52.1994 325.91 52.7394 326.56 53.1094C327.21 53.4894 327.94 53.6794 328.75 53.6794C329.56 53.6794 330.29 53.4894 330.94 53.1094Z" fill="white"/>
<path d="M342.678 54.8695L339.918 50.1295H338.088V54.8695H336.568V43.2695H340.318C341.198 43.2695 341.938 43.4195 342.538 43.7195C343.138 44.0195 343.598 44.4295 343.898 44.9295C344.198 45.4395 344.348 46.0195 344.348 46.6795C344.348 47.4795 344.118 48.1795 343.658 48.7895C343.198 49.3995 342.508 49.8095 341.588 50.0095L344.498 54.8695H342.688H342.678ZM338.088 48.9095H340.318C341.138 48.9095 341.758 48.7095 342.168 48.2995C342.578 47.8995 342.788 47.3495 342.788 46.6795C342.788 46.0095 342.588 45.4595 342.178 45.0795C341.768 44.6995 341.158 44.5095 340.318 44.5095H338.088V48.8995V48.9095Z" fill="white"/>
<path d="M348.209 44.4998V48.3798H352.439V49.6298H348.209V53.6298H352.939V54.8798H346.699V43.2598H352.939V44.5098H348.209V44.4998Z" fill="white"/>
<path d="M370.399 43.1797L366.249 54.8697H362.689L358.539 43.1797H361.569L364.469 51.9997L367.379 43.1797H370.389H370.399Z" fill="white"/>
<path d="M374.43 43.1797V54.8697H371.58V43.1797H374.43Z" fill="white"/>
<path d="M386.948 54.8697H384.098L379.338 47.6597V54.8697H376.488V43.1797H379.338L384.098 50.4197V43.1797H386.948V54.8697Z" fill="white"/>
<path d="M399.03 43.1797L394.99 50.9997V54.8597H392.14V50.9997L388.1 43.1797H391.33L393.59 48.0697L395.84 43.1797H399.04H399.03Z" fill="white"/>
<path d="M403.02 52.6697H406.75V54.8697H400.17V43.1797H403.02V52.6697Z" fill="white"/>
<mask id="mask2_794_4403" style="mask-type:luminance" maskUnits="userSpaceOnUse" x="424" y="0" width="126" height="49">
<path d="M549.769 0H424.689V48.97H549.769V0Z" fill="white"/>
</mask>
<g mask="url(#mask2_794_4403)">
<mask id="mask3_794_4403" style="mask-type:luminance" maskUnits="userSpaceOnUse" x="424" y="0" width="126" height="49">
<path d="M456.469 17.6196L455.279 22.3996C455.139 22.9496 454.999 23.5096 454.859 24.0596C454.659 24.8596 454.319 25.1396 453.479 25.1196L440.209 24.8996C435.139 24.7996 430.059 24.6896 424.999 24.5796L424.799 24.5596L425.049 24.3896C433.259 24.2296 441.269 24.0696 449.299 23.9196L453.139 23.8596C453.469 23.8596 453.599 23.7296 453.659 23.4396L455.579 14.5596C455.649 14.2396 455.799 13.8696 456.039 13.6596C456.609 13.1796 457.379 13.5496 457.549 14.3796L458.409 18.4396C459.229 22.2996 460.039 26.1596 460.859 30.0096L460.899 30.0596L461.669 27.1196C461.839 26.3496 462.009 25.5796 462.179 24.8096C462.409 23.8096 462.959 23.3596 463.999 23.3496L475.639 23.2696C476.049 23.2696 476.209 23.1396 476.329 22.7596L482.369 1.63959C482.699 0.519591 483.369 0.0295909 484.289 0.269591C484.919 0.429591 485.289 0.859591 485.379 1.48959L486.759 11.1196C487.269 14.6896 487.779 18.2696 488.279 21.8496L488.719 25.4196C489.119 28.2096 489.549 30.9896 489.949 33.7796L490.989 41.1796C490.989 41.2596 491.019 41.3296 491.139 41.4096L492.029 38.4196C493.379 33.8696 494.729 29.3196 496.079 24.7696C496.399 23.6896 496.989 23.2596 498.129 23.2696L509.509 23.3596H510.239L511.219 19.3296C511.619 17.6696 512.009 16.0296 512.409 14.3696C512.599 13.6096 513.019 13.2396 513.649 13.2396C514.279 13.2396 514.689 13.6196 514.839 14.4096L517.009 25.8696C517.339 27.6096 517.649 29.3496 517.979 31.0896L518.029 31.1696L519.109 27.2296C519.309 26.4296 519.499 25.6296 519.709 24.8296L520.209 23.8496C526.219 23.9496 531.509 24.0296 536.789 24.1296L549.109 24.3996C549.299 24.3996 549.479 24.3996 549.659 24.3996V24.4996L549.399 24.5996C543.449 24.7196 537.649 24.8396 531.839 24.9496L521.469 25.1296C521.089 25.1296 520.959 25.2496 520.889 25.6096L518.999 34.4696C518.839 35.2096 518.479 35.5996 517.939 35.5696L517.139 35.2396C516.339 31.5296 515.679 28.4096 515.019 25.2996L513.739 19.2296C513.719 19.1296 513.669 19.0296 513.599 18.8096L512.389 24.1796C512.149 25.2096 511.569 25.6796 510.539 25.6796L498.959 25.7496C498.539 25.7496 498.359 25.8596 498.239 26.2796L492.159 47.5496C491.769 48.9096 490.369 49.1396 489.679 48.4196L489.199 47.6396C488.329 41.6596 487.539 36.1096 486.769 30.5496L486.119 25.5496C486.039 24.9096 485.789 24.2896 485.819 23.6596C485.849 22.5496 485.399 21.5396 485.309 20.4496L484.879 17.1596C484.459 14.0896 484.019 11.0096 483.599 7.93959L483.529 7.70959C482.899 9.39959 482.359 11.2096 481.829 13.0196L478.459 24.3496C478.169 25.3296 477.599 25.7496 476.559 25.7396L464.869 25.6496C464.469 25.6496 464.309 25.7496 464.209 26.1596L462.149 34.6796C461.969 35.3996 461.549 35.7696 460.929 35.7596C460.309 35.7596 459.889 35.3796 459.749 34.6296L457.299 21.6096C457.079 20.4396 456.869 19.2696 456.649 18.0896L456.569 17.8396" fill="white"/>
</mask>
<g mask="url(#mask3_794_4403)">
<path d="M549.579 0.189453H424.689V48.7795H549.579V0.189453Z" fill="black"/>
</g>
</g>
</g>
<defs>
<clipPath id="clip0_794_4403">
<rect width="549.77" height="54.98" fill="white"/>
</clipPath>
</defs>
</svg>
