<svg width="550" height="55" viewBox="0 0 550 55" fill="none" xmlns="http://www.w3.org/2000/svg">
<g clip-path="url(#clip0_794_4649)">
<mask id="mask0_794_4649" style="mask-type:luminance" maskUnits="userSpaceOnUse" x="0" y="0" width="126" height="49">
<path d="M125.08 0H0V48.97H125.08V0Z" fill="white"/>
</mask>
<g mask="url(#mask0_794_4649)">
<mask id="mask1_794_4649" style="mask-type:luminance" maskUnits="userSpaceOnUse" x="0" y="0" width="125" height="49">
<path d="M31.7891 17.6201L30.5991 22.4001C30.4591 22.9501 30.3191 23.5101 30.1791 24.0601C29.9791 24.8601 29.6391 25.1401 28.7991 25.1201L15.5291 24.9001C10.4591 24.8001 5.37914 24.6901 0.319141 24.5801L0.119141 24.5601L0.369141 24.3901C8.57914 24.2301 16.5891 24.0701 24.6191 23.9201L28.4591 23.8601C28.7891 23.8601 28.9191 23.7301 28.9791 23.4401L30.8991 14.5601C30.9691 14.2401 31.1191 13.8701 31.3591 13.6601C31.9291 13.1801 32.6991 13.5501 32.8691 14.3801L33.7291 18.4401C34.5491 22.3001 35.3591 26.1601 36.1791 30.0101L36.2191 30.0601L36.9891 27.1201C37.1591 26.3501 37.3291 25.5801 37.4991 24.8101C37.7291 23.8101 38.2791 23.3601 39.3191 23.3501L50.9591 23.2701C51.3691 23.2701 51.5291 23.1401 51.6491 22.7601L57.6691 1.62006C57.9991 0.50006 58.6691 0.0100596 59.5891 0.25006C60.2191 0.41006 60.5891 0.84006 60.6791 1.47006L62.0591 11.1001C62.5691 14.6701 63.0791 18.2501 63.5791 21.8301L64.0191 25.4001C64.4191 28.1901 64.8491 30.9701 65.2491 33.7601L66.2891 41.1601C66.2891 41.2401 66.3191 41.3101 66.4391 41.3901L67.3291 38.4001C68.6791 33.8501 70.0291 29.3001 71.3791 24.7501C71.6991 23.6701 72.2891 23.2401 73.4291 23.2501L84.8091 23.3401H85.5391L86.5191 19.3101C86.9191 17.6501 87.3091 16.0101 87.7091 14.3501C87.8991 13.5901 88.3191 13.2201 88.9491 13.2201C89.5791 13.2201 89.9891 13.6001 90.1391 14.3901L92.3091 25.8501C92.6391 27.5901 92.9491 29.3301 93.2791 31.0701L93.3291 31.1501L94.4091 27.2101C94.6091 26.4101 94.7991 25.6101 95.0091 24.8101L95.5091 23.8301C101.519 23.9301 106.809 24.0101 112.089 24.1101L124.409 24.3801C124.599 24.3801 124.779 24.3801 124.959 24.3801V24.4801L124.699 24.5801C118.749 24.7001 112.949 24.8201 107.139 24.9301L96.7691 25.1101C96.3891 25.1101 96.2591 25.2301 96.1891 25.5901L94.2991 34.4501C94.1391 35.1901 93.7791 35.5801 93.2391 35.5501L92.4391 35.2201C91.6391 31.5101 90.9791 28.3901 90.3191 25.2801L89.0391 19.2101C89.0191 19.1101 88.9691 19.0101 88.8991 18.7901L87.6891 24.1601C87.4491 25.1901 86.8691 25.6601 85.8391 25.6601L74.2591 25.7301C73.8391 25.7301 73.6591 25.8401 73.5391 26.2601L67.4591 47.5301C67.0691 48.8901 65.6691 49.1201 64.9791 48.4001L64.4991 47.6201C63.6291 41.6401 62.8391 36.0901 62.0691 30.5301L61.4191 25.5301C61.3391 24.8901 61.0891 24.2701 61.1191 23.6401C61.1491 22.5301 60.6991 21.5201 60.6091 20.4301L60.1791 17.1401C59.7591 14.0701 59.3191 10.9901 58.8991 7.92006L58.8291 7.69006C58.1991 9.38006 57.6591 11.1901 57.1291 13.0001L53.7591 24.3301C53.4691 25.3101 52.8991 25.7301 51.8591 25.7201L40.1691 25.6301C39.7691 25.6301 39.6091 25.7301 39.5091 26.1401L37.4491 34.6601C37.2691 35.3801 36.8491 35.7501 36.2291 35.7401C35.6091 35.7301 35.1891 35.3601 35.0491 34.6101L32.5991 21.5901C32.3791 20.4201 32.1691 19.2501 31.9491 18.0701L31.8691 17.8201" fill="white"/>
</mask>
<g mask="url(#mask1_794_4649)">
<path d="M124.89 0.19043H0V48.7804H124.89V0.19043Z" fill="white"/>
</g>
</g>
<path d="M157.079 3.72016C159.389 4.76016 161.159 6.25016 162.409 8.16016C163.659 10.0802 164.279 12.3502 164.279 14.9802C164.279 17.6102 163.659 19.8402 162.409 21.7702C161.159 23.7102 159.389 25.1902 157.079 26.2102C154.769 27.2402 152.059 27.7502 148.919 27.7502H141.799V37.5002H133.619V2.16016H148.919C152.049 2.16016 154.769 2.68016 157.079 3.73016V3.72016ZM154.079 19.5002C155.359 18.4402 155.999 16.9302 155.999 14.9802C155.999 13.0302 155.359 11.4702 154.079 10.4102C152.799 9.35016 150.929 8.82016 148.469 8.82016H141.799V21.0902H148.469C150.929 21.0902 152.799 20.5602 154.079 19.5002Z" fill="#000204"/>
<path d="M177.13 33.9202C174.32 31.1302 172.91 27.1402 172.91 21.9502V2.16016H181.09V21.6502C181.09 27.9802 183.72 31.1402 188.97 31.1402C191.53 31.1402 193.48 30.3702 194.83 28.8402C196.18 27.3102 196.85 24.9102 196.85 21.6402V2.16016H204.93V21.9602C204.93 27.1502 203.52 31.1302 200.71 33.9302C197.9 36.7202 193.97 38.1202 188.92 38.1202C183.87 38.1202 179.94 36.7202 177.13 33.9302V33.9202Z" fill="#000204"/>
<path d="M215.631 2.16016H223.811V30.8502H241.541V37.5202H215.631V2.16016Z" fill="#000204"/>
<path d="M252.27 36.9796C249.66 36.2196 247.56 35.2396 245.98 34.0296L248.76 27.8696C250.27 28.9796 252.08 29.8696 254.16 30.5496C256.25 31.2196 258.33 31.5596 260.42 31.5596C262.74 31.5596 264.46 31.2196 265.57 30.5196C266.68 29.8296 267.24 28.9096 267.24 27.7696C267.24 26.9296 266.91 26.2296 266.26 25.6696C265.6 25.1096 264.76 24.6696 263.73 24.3296C262.7 23.9896 261.31 23.6196 259.56 23.2196C256.87 22.5796 254.66 21.9396 252.94 21.2996C251.22 20.6596 249.75 19.6296 248.52 18.2196C247.29 16.8096 246.68 14.9196 246.68 12.5596C246.68 10.5096 247.24 8.64957 248.35 6.97957C249.46 5.30957 251.14 3.98957 253.37 3.01957C255.61 2.03957 258.34 1.55957 261.58 1.55957C263.83 1.55957 266.04 1.82957 268.2 2.36957C270.35 2.90957 272.24 3.67957 273.86 4.68957L271.33 10.8996C268.06 9.04957 264.8 8.11957 261.53 8.11957C259.24 8.11957 257.55 8.48957 256.45 9.22957C255.36 9.96957 254.81 10.9496 254.81 12.1596C254.81 13.3696 255.44 14.2696 256.7 14.8596C257.96 15.4496 259.89 16.0296 262.48 16.5996C265.17 17.2396 267.38 17.8796 269.1 18.5196C270.82 19.1596 272.29 20.1696 273.52 21.5496C274.75 22.9296 275.36 24.7996 275.36 27.1596C275.36 29.1796 274.8 31.0196 273.67 32.6896C272.54 34.3596 270.85 35.6796 268.59 36.6496C266.33 37.6296 263.59 38.1096 260.36 38.1096C257.57 38.1096 254.86 37.7296 252.25 36.9696L252.27 36.9796Z" fill="#000204"/>
<path d="M310.979 30.9402V37.5102H283.609V2.16016H310.329V8.73016H291.749V16.4102H308.159V22.7702H291.749V30.9502H310.989L310.979 30.9402Z" fill="#000204"/>
<path d="M354.131 30.8603V37.5303H327.421V32.2303L341.051 19.3503C342.501 17.9703 343.471 16.7803 343.981 15.7903C344.491 14.8003 344.741 13.8103 344.741 12.8403C344.741 11.4303 344.261 10.3403 343.301 9.58031C342.341 8.82031 340.931 8.44031 339.081 8.44031C337.531 8.44031 336.131 8.73031 334.891 9.32031C333.641 9.91031 332.601 10.7903 331.761 11.9703L325.801 8.13031C327.181 6.08031 329.081 4.47031 331.511 3.31031C333.931 2.15031 336.711 1.57031 339.841 1.57031C342.471 1.57031 344.761 2.00031 346.731 2.86031C348.701 3.72031 350.231 4.93031 351.331 6.50031C352.421 8.07031 352.971 9.91031 352.971 12.0303C352.971 13.9503 352.571 15.7503 351.761 17.4303C350.951 19.1103 349.391 21.0303 347.061 23.1903L338.931 30.8703H354.131V30.8603Z" fill="white"/>
<path d="M361.301 36.5199C360.361 35.5799 359.891 34.3999 359.891 32.9799C359.891 31.5599 360.361 30.3599 361.301 29.4699C362.241 28.5799 363.401 28.1299 364.791 28.1299C366.181 28.1299 367.331 28.5799 368.271 29.4699C369.211 30.3599 369.681 31.5299 369.681 32.9799C369.681 34.4299 369.211 35.5699 368.271 36.5199C367.331 37.4599 366.171 37.9299 364.791 37.9299C363.411 37.9299 362.251 37.4599 361.301 36.5199Z" fill="white"/>
<path d="M383.32 35.9603C381.03 34.5103 379.24 32.4203 377.94 29.6703C376.64 26.9303 376 23.6503 376 19.8503C376 16.0503 376.65 12.7703 377.94 10.0303C379.24 7.29031 381.03 5.19031 383.32 3.74031C385.61 2.29031 388.22 1.57031 391.15 1.57031C394.08 1.57031 396.69 2.29031 398.98 3.74031C401.27 5.19031 403.06 7.28031 404.36 10.0303C405.66 12.7803 406.31 16.0503 406.31 19.8503C406.31 23.6503 405.66 26.9303 404.36 29.6703C403.06 32.4203 401.27 34.5103 398.98 35.9603C396.69 37.4103 394.08 38.1303 391.15 38.1303C388.22 38.1303 385.61 37.4103 383.32 35.9603ZM396.22 28.4303C397.45 26.5803 398.06 23.7203 398.06 19.8503C398.06 15.9803 397.45 13.1203 396.22 11.2703C394.99 9.42031 393.3 8.49031 391.14 8.49031C388.98 8.49031 387.34 9.42031 386.12 11.2703C384.89 13.1203 384.28 15.9803 384.28 19.8503C384.28 23.7203 384.89 26.5803 386.12 28.4303C387.35 30.2803 389.02 31.2103 391.14 31.2103C393.26 31.2103 394.99 30.2803 396.22 28.4303Z" fill="white"/>
<path d="M150.61 43.1797L147.56 54.8697H144.11L142.25 47.1797L140.32 54.8697H136.87L133.91 43.1797H136.96L138.64 51.6897L140.72 43.1797H143.85L145.85 51.6897L147.55 43.1797H150.61Z" fill="#000204"/>
<path d="M159.31 52.7999H154.95L154.25 54.8599H151.27L155.5 43.1699H158.8L163.03 54.8599H160.02L159.32 52.7999H159.31ZM158.58 50.5999L157.13 46.3199L155.7 50.5999H158.58Z" fill="#000204"/>
<path d="M172.71 43.1797V45.4597H169.61V54.8697H166.76V45.4597H163.66V43.1797H172.7H172.71Z" fill="#000204"/>
<path d="M176.991 45.4599V47.8199H180.801V50.0199H176.991V52.5799H181.301V54.8599H174.141V43.1699H181.301V45.4499H176.991V45.4599Z" fill="#000204"/>
<path d="M189.101 54.8697L186.671 50.4597H185.991V54.8697H183.141V43.1797H187.921C188.841 43.1797 189.631 43.3397 190.281 43.6597C190.931 43.9797 191.411 44.4197 191.741 44.9797C192.071 45.5397 192.221 46.1597 192.221 46.8497C192.221 47.6297 192.001 48.3197 191.561 48.9297C191.121 49.5397 190.481 49.9697 189.621 50.2297L192.321 54.8597H189.111L189.101 54.8697ZM185.991 48.4397H187.751C188.271 48.4397 188.661 48.3097 188.921 48.0597C189.181 47.8097 189.311 47.4397 189.311 46.9797C189.311 46.5197 189.181 46.1897 188.921 45.9297C188.661 45.6797 188.271 45.5497 187.751 45.5497H185.991V48.4497V48.4397Z" fill="#000204"/>
<path d="M202.44 48.8004C202.13 49.3604 201.65 49.8104 201.01 50.1604C200.37 50.5004 199.57 50.6804 198.61 50.6804H196.85V54.8804H194V43.1904H198.61C199.54 43.1904 200.33 43.3504 200.97 43.6704C201.61 43.9904 202.1 44.4404 202.42 45.0004C202.74 45.5704 202.9 46.2104 202.9 46.9504C202.9 47.6304 202.74 48.2504 202.43 48.8104L202.44 48.8004ZM199.61 48.0304C199.88 47.7804 200.01 47.4104 200.01 46.9504C200.01 46.4904 199.88 46.1204 199.61 45.8704C199.34 45.6204 198.94 45.4904 198.39 45.4904H196.84V48.4204H198.39C198.93 48.4204 199.34 48.2904 199.61 48.0404V48.0304Z" fill="#000204"/>
<path d="M210.341 54.8697L207.911 50.4597H207.231V54.8697H204.381V43.1797H209.161C210.081 43.1797 210.871 43.3397 211.521 43.6597C212.171 43.9797 212.651 44.4197 212.981 44.9797C213.311 45.5397 213.461 46.1597 213.461 46.8497C213.461 47.6297 213.241 48.3197 212.801 48.9297C212.361 49.5397 211.721 49.9697 210.861 50.2297L213.561 54.8597H210.351L210.341 54.8697ZM207.231 48.4397H208.991C209.511 48.4397 209.901 48.3097 210.161 48.0597C210.421 47.8097 210.551 47.4397 210.551 46.9797C210.551 46.5197 210.421 46.1897 210.161 45.9297C209.901 45.6797 209.511 45.5497 208.991 45.5497H207.231V48.4497V48.4397Z" fill="#000204"/>
<path d="M217.74 54.2198C216.82 53.7098 216.1 52.9998 215.56 52.0798C215.02 51.1598 214.75 50.1298 214.75 48.9898C214.75 47.8498 215.02 46.8198 215.56 45.9098C216.1 44.9998 216.83 44.2898 217.74 43.7798C218.66 43.2698 219.66 43.0098 220.76 43.0098C221.86 43.0098 222.87 43.2698 223.78 43.7798C224.7 44.2898 225.42 44.9998 225.94 45.9098C226.47 46.8198 226.73 47.8498 226.73 48.9898C226.73 50.1298 226.46 51.1598 225.93 52.0798C225.4 52.9998 224.68 53.7098 223.77 54.2198C222.86 54.7298 221.86 54.9898 220.76 54.9898C219.66 54.9898 218.65 54.7398 217.74 54.2198ZM223 51.4598C223.56 50.8398 223.84 50.0198 223.84 48.9998C223.84 47.9798 223.56 47.1398 223 46.5298C222.44 45.9098 221.69 45.6098 220.76 45.6098C219.83 45.6098 219.06 45.9198 218.5 46.5298C217.94 47.1398 217.66 47.9698 217.66 49.0098C217.66 50.0498 217.94 50.8698 218.5 51.4798C219.06 52.0998 219.81 52.3998 220.76 52.3998C221.71 52.3998 222.44 52.0898 223 51.4698V51.4598Z" fill="#000204"/>
<path d="M230.82 54.2198C229.9 53.7098 229.18 52.9998 228.64 52.0798C228.1 51.1598 227.83 50.1298 227.83 48.9898C227.83 47.8498 228.1 46.8198 228.64 45.9098C229.18 44.9998 229.91 44.2898 230.82 43.7798C231.74 43.2698 232.74 43.0098 233.84 43.0098C234.94 43.0098 235.95 43.2698 236.86 43.7798C237.78 44.2898 238.5 44.9998 239.02 45.9098C239.55 46.8198 239.81 47.8498 239.81 48.9898C239.81 50.1298 239.54 51.1598 239.01 52.0798C238.48 52.9998 237.76 53.7098 236.85 54.2198C235.94 54.7298 234.94 54.9898 233.84 54.9898C232.74 54.9898 231.73 54.7398 230.82 54.2198ZM236.08 51.4598C236.64 50.8398 236.92 50.0198 236.92 48.9998C236.92 47.9798 236.64 47.1398 236.08 46.5298C235.52 45.9098 234.77 45.6098 233.84 45.6098C232.91 45.6098 232.14 45.9198 231.58 46.5298C231.02 47.1398 230.74 47.9698 230.74 49.0098C230.74 50.0498 231.02 50.8698 231.58 51.4798C232.14 52.0998 232.89 52.3998 233.84 52.3998C234.79 52.3998 235.52 52.0898 236.08 51.4698V51.4598Z" fill="#000204"/>
<path d="M249.001 43.1799V45.4599H244.241V47.9199H247.801V50.1299H244.241V54.8599H241.391V43.1699H249.001V43.1799Z" fill="#000204"/>
<path d="M256.251 43.2998L257.181 44.9998L255.131 45.7198L257.181 46.4198L256.181 48.1798L254.521 46.7198L254.941 48.8798H252.991L253.391 46.7198L251.741 48.1998L250.711 46.3998L252.761 45.6798L250.731 45.0098L251.681 43.2998L253.411 44.7498L252.981 42.5498H254.961L254.531 44.7498L256.261 43.2998H256.251Z" fill="#000204"/>
<path d="M269.28 54.8695L266.52 50.1295H264.69V54.8695H263.17V43.2695H266.92C267.8 43.2695 268.54 43.4195 269.14 43.7195C269.74 44.0195 270.2 44.4295 270.5 44.9295C270.8 45.4395 270.95 46.0195 270.95 46.6795C270.95 47.4795 270.72 48.1795 270.26 48.7895C269.8 49.3995 269.11 49.8095 268.19 50.0095L271.1 54.8695H269.29H269.28ZM264.69 48.9095H266.92C267.74 48.9095 268.36 48.7095 268.77 48.2995C269.18 47.8995 269.39 47.3495 269.39 46.6795C269.39 46.0095 269.19 45.4595 268.78 45.0795C268.37 44.6995 267.76 44.5095 266.92 44.5095H264.69V48.8995V48.9095Z" fill="white"/>
<path d="M274.809 43.2598V54.8598H273.289V43.2598H274.809Z" fill="white"/>
<path d="M286.18 46.6304C285.86 45.9504 285.39 45.4304 284.78 45.0604C284.17 44.6904 283.46 44.5004 282.65 44.5004C281.84 44.5004 281.11 44.6904 280.46 45.0604C279.81 45.4304 279.3 45.9704 278.93 46.6604C278.56 47.3504 278.37 48.1604 278.37 49.0704C278.37 49.9804 278.56 50.7804 278.93 51.4704C279.3 52.1604 279.81 52.6904 280.46 53.0604C281.11 53.4304 281.84 53.6204 282.65 53.6204C283.78 53.6204 284.71 53.2804 285.45 52.6104C286.19 51.9404 286.61 51.0204 286.73 49.8604H282.1V48.6304H288.34V49.8004C288.25 50.7504 287.95 51.6304 287.44 52.4204C286.93 53.2104 286.26 53.8404 285.43 54.3004C284.6 54.7604 283.67 54.9904 282.65 54.9904C281.57 54.9904 280.59 54.7404 279.7 54.2304C278.81 53.7304 278.11 53.0204 277.59 52.1204C277.07 51.2204 276.82 50.2104 276.82 49.0704C276.82 47.9304 277.08 46.9204 277.59 46.0204C278.1 45.1204 278.81 44.4104 279.7 43.9104C280.59 43.4104 281.57 43.1504 282.65 43.1504C283.88 43.1504 284.97 43.4604 285.92 44.0704C286.87 44.6804 287.56 45.5404 287.99 46.6504H286.18V46.6304Z" fill="white"/>
<path d="M291.85 43.2598V54.8598H290.34V43.2598H291.85Z" fill="white"/>
<path d="M301.33 43.9695C302.26 44.4395 302.97 45.1195 303.46 45.9895C303.95 46.8695 304.2 47.8995 304.2 49.0895C304.2 50.2795 303.95 51.3095 303.46 52.1795C302.97 53.0495 302.26 53.7195 301.33 54.1795C300.4 54.6395 299.31 54.8695 298.04 54.8695H294.43V43.2695H298.04C299.3 43.2695 300.4 43.5095 301.33 43.9795V43.9695ZM301.47 52.4295C302.26 51.6395 302.65 50.5195 302.65 49.0895C302.65 47.6595 302.25 46.5195 301.46 45.7095C300.67 44.8995 299.53 44.4895 298.04 44.4895H295.94V53.6095H298.04C299.54 53.6095 300.68 53.2095 301.47 52.4195V52.4295Z" fill="white"/>
<path d="M310.84 46.0004C311.35 45.1004 312.05 44.3904 312.93 43.8804C313.81 43.3704 314.79 43.1104 315.87 43.1104C317.14 43.1104 318.24 43.4203 319.18 44.0303C320.12 44.6403 320.81 45.5104 321.24 46.6304H319.43C319.11 45.9304 318.64 45.3904 318.04 45.0204C317.43 44.6404 316.71 44.4504 315.87 44.4504C315.03 44.4504 314.33 44.6404 313.69 45.0204C313.05 45.4004 312.54 45.9304 312.18 46.6304C311.82 47.3304 311.63 48.1404 311.63 49.0704C311.63 50.0004 311.81 50.8004 312.18 51.4904C312.55 52.1804 313.05 52.7203 313.69 53.1003C314.33 53.4803 315.06 53.6703 315.87 53.6703C316.68 53.6703 317.44 53.4804 318.04 53.1104C318.64 52.7404 319.11 52.2004 319.43 51.5004H321.24C320.81 52.6104 320.12 53.4704 319.18 54.0704C318.24 54.6804 317.13 54.9804 315.87 54.9804C314.79 54.9804 313.81 54.7304 312.93 54.2204C312.05 53.7204 311.35 53.0104 310.84 52.1104C310.33 51.2104 310.07 50.2004 310.07 49.0604C310.07 47.9204 310.32 46.9103 310.84 46.0103V46.0004Z" fill="white"/>
<path d="M325.8 54.2304C324.91 53.7304 324.21 53.0204 323.69 52.1204C323.17 51.2204 322.92 50.2004 322.92 49.0704C322.92 47.9404 323.18 46.9204 323.69 46.0204C324.21 45.1204 324.91 44.4104 325.8 43.9104C326.69 43.4104 327.67 43.1504 328.75 43.1504C329.83 43.1504 330.83 43.4004 331.71 43.9104C332.59 44.4204 333.3 45.1204 333.81 46.0204C334.32 46.9204 334.58 47.9404 334.58 49.0804C334.58 50.2204 334.33 51.2404 333.81 52.1404C333.3 53.0404 332.6 53.7404 331.71 54.2504C330.82 54.7604 329.83 55.0104 328.75 55.0104C327.67 55.0104 326.69 54.7604 325.8 54.2504V54.2304ZM330.94 53.1104C331.59 52.7304 332.1 52.1904 332.47 51.5004C332.84 50.8104 333.03 49.9904 333.03 49.0704C333.03 48.1504 332.84 47.3204 332.47 46.6304C332.1 45.9404 331.59 45.4004 330.95 45.0204C330.31 44.6404 329.57 44.4504 328.75 44.4504C327.93 44.4504 327.2 44.6404 326.55 45.0204C325.91 45.4004 325.4 45.9304 325.03 46.6304C324.66 47.3304 324.47 48.1404 324.47 49.0704C324.47 50.0004 324.66 50.8004 325.03 51.5004C325.4 52.2004 325.91 52.7404 326.56 53.1104C327.21 53.4904 327.94 53.6804 328.75 53.6804C329.56 53.6804 330.29 53.4904 330.94 53.1104Z" fill="white"/>
<path d="M342.68 54.8695L339.92 50.1295H338.09V54.8695H336.58V43.2695H340.33C341.21 43.2695 341.95 43.4195 342.55 43.7195C343.15 44.0195 343.61 44.4295 343.91 44.9295C344.21 45.4395 344.36 46.0195 344.36 46.6795C344.36 47.4795 344.13 48.1795 343.67 48.7895C343.21 49.3995 342.52 49.8095 341.6 50.0095L344.51 54.8695H342.7H342.68ZM338.09 48.9095H340.32C341.14 48.9095 341.76 48.7095 342.17 48.2995C342.58 47.8995 342.79 47.3495 342.79 46.6795C342.79 46.0095 342.59 45.4595 342.18 45.0795C341.77 44.6995 341.16 44.5095 340.32 44.5095H338.09V48.8995V48.9095Z" fill="white"/>
<path d="M348.209 44.4998V48.3798H352.439V49.6298H348.209V53.6298H352.939V54.8798H346.699V43.2598H352.939V44.5098H348.209V44.4998Z" fill="white"/>
<path d="M370.401 43.1797L366.261 54.8697H362.701L358.551 43.1797H361.581L364.481 51.9997L367.391 43.1797H370.401Z" fill="#000204"/>
<path d="M374.43 43.1797V54.8697H371.58V43.1797H374.43Z" fill="#000204"/>
<path d="M386.95 54.8697H384.1L379.34 47.6597V54.8697H376.49V43.1797H379.34L384.1 50.4197V43.1797H386.95V54.8697Z" fill="#000204"/>
<path d="M399.03 43.1797L394.98 50.9997V54.8597H392.13V50.9997L388.08 43.1797H391.31L393.57 48.0697L395.82 43.1797H399.02H399.03Z" fill="#000204"/>
<path d="M403.02 52.6697H406.75V54.8697H400.17V43.1797H403.02V52.6697Z" fill="#000204"/>
<mask id="mask2_794_4649" style="mask-type:luminance" maskUnits="userSpaceOnUse" x="424" y="0" width="126" height="49">
<path d="M456.471 17.6196L455.281 22.3996C455.141 22.9496 455.001 23.5096 454.861 24.0596C454.661 24.8596 454.321 25.1396 453.481 25.1196L440.211 24.8996C435.141 24.7996 430.061 24.6896 425.001 24.5796L424.801 24.5596L425.051 24.3896C433.261 24.2296 441.271 24.0696 449.301 23.9196L453.141 23.8596C453.471 23.8596 453.601 23.7296 453.661 23.4396L455.581 14.5596C455.651 14.2396 455.801 13.8696 456.041 13.6596C456.611 13.1796 457.381 13.5496 457.551 14.3796L458.411 18.4396C459.231 22.2996 460.041 26.1596 460.861 30.0096L460.901 30.0596L461.671 27.1196C461.841 26.3496 462.011 25.5796 462.181 24.8096C462.411 23.8096 462.961 23.3596 464.001 23.3496L475.641 23.2696C476.051 23.2696 476.211 23.1396 476.331 22.7596L482.371 1.63959C482.701 0.519591 483.371 0.0295909 484.291 0.269591C484.921 0.429591 485.291 0.859591 485.381 1.48959L486.761 11.1196C487.271 14.6896 487.781 18.2696 488.281 21.8496L488.721 25.4196C489.121 28.2096 489.551 30.9896 489.951 33.7796L490.991 41.1796C490.991 41.2596 491.021 41.3296 491.141 41.4096L492.031 38.4196C493.381 33.8696 494.731 29.3196 496.081 24.7696C496.401 23.6896 496.991 23.2596 498.131 23.2696L509.511 23.3596H510.241L511.221 19.3296C511.621 17.6696 512.011 16.0296 512.411 14.3696C512.601 13.6096 513.021 13.2396 513.651 13.2396C514.281 13.2396 514.691 13.6196 514.841 14.4096L517.011 25.8696C517.341 27.6096 517.651 29.3496 517.981 31.0896L518.031 31.1696L519.111 27.2296C519.311 26.4296 519.501 25.6296 519.711 24.8296L520.211 23.8496C526.221 23.9496 531.511 24.0296 536.791 24.1296L549.111 24.3996C549.301 24.3996 549.481 24.3996 549.661 24.3996V24.4996L549.401 24.5996C543.451 24.7196 537.651 24.8396 531.841 24.9496L521.471 25.1296C521.091 25.1296 520.961 25.2496 520.891 25.6096L519.001 34.4696C518.841 35.2096 518.481 35.5996 517.941 35.5696L517.141 35.2396C516.341 31.5296 515.681 28.4096 515.021 25.2996L513.741 19.2296C513.721 19.1296 513.671 19.0296 513.601 18.8096L512.391 24.1796C512.151 25.2096 511.571 25.6796 510.541 25.6796L498.961 25.7496C498.541 25.7496 498.361 25.8596 498.241 26.2796L492.161 47.5496C491.771 48.9096 490.371 49.1396 489.681 48.4196L489.201 47.6396C488.331 41.6596 487.541 36.1096 486.771 30.5496L486.121 25.5496C486.041 24.9096 485.791 24.2896 485.821 23.6596C485.851 22.5496 485.401 21.5396 485.311 20.4496L484.881 17.1596C484.461 14.0896 484.021 11.0096 483.601 7.93959L483.531 7.70959C482.901 9.39959 482.361 11.2096 481.831 13.0196L478.461 24.3496C478.171 25.3296 477.601 25.7496 476.561 25.7396L464.871 25.6496C464.471 25.6496 464.311 25.7496 464.211 26.1596L462.151 34.6796C461.971 35.3996 461.551 35.7696 460.931 35.7596C460.311 35.7596 459.891 35.3796 459.751 34.6296L457.301 21.6096C457.081 20.4396 456.871 19.2696 456.651 18.0896L456.571 17.8396" fill="white"/>
</mask>
<g mask="url(#mask2_794_4649)">
<path d="M549.581 0.189453H424.691V48.7795H549.581V0.189453Z" fill="white"/>
</g>
</g>
<defs>
<clipPath id="clip0_794_4649">
<rect width="549.77" height="54.98" fill="white"/>
</clipPath>
</defs>
</svg>
