<svg width="630" height="71" viewBox="0 0 630 71" fill="none" xmlns="http://www.w3.org/2000/svg">
<g clip-path="url(#clip0_794_5247)">
<mask id="mask0_794_5247" style="mask-type:luminance" maskUnits="userSpaceOnUse" x="0" y="1" width="136" height="54">
<path d="M135.384 1.41528H0V54.7252H135.384V1.41528Z" fill="white"/>
</mask>
<g mask="url(#mask0_794_5247)">
<mask id="mask1_794_5247" style="mask-type:luminance" maskUnits="userSpaceOnUse" x="0" y="1" width="136" height="54">
<path d="M34.4099 20.5968L33.1218 25.8004C32.9703 26.3992 32.8188 27.0088 32.6672 27.6075C32.4508 28.4784 32.0828 28.7833 31.1736 28.7615L16.8104 28.522C11.3227 28.4131 5.82418 28.2934 0.347336 28.1736L0.130859 28.1519L0.401455 27.9668C9.2878 27.7926 17.9577 27.6184 26.6492 27.4551L30.8055 27.3898C31.1627 27.3898 31.3034 27.2483 31.3684 26.9326L33.4466 17.2656C33.5223 16.9173 33.6847 16.5145 33.9445 16.2859C34.5614 15.7633 35.3948 16.1661 35.5788 17.0697L36.5097 21.4895C37.3972 25.6916 38.274 29.8937 39.1615 34.0849L39.2048 34.1393L40.0383 30.9387C40.2223 30.1005 40.4063 29.2623 40.5903 28.424C40.8392 27.3354 41.4345 26.8455 42.5602 26.8346L55.1591 26.7475C55.6029 26.7475 55.7761 26.606 55.906 26.1923L62.4435 3.20062C62.8007 1.98136 63.5259 1.44793 64.5217 1.7092C65.2036 1.88338 65.6041 2.35149 65.7015 3.03732L67.1952 13.5208C67.7472 17.4071 68.2992 21.3044 68.8404 25.2017L69.3167 29.0881C69.7496 32.1253 70.215 35.1517 70.648 38.189L71.7737 46.2448C71.7737 46.3319 71.8061 46.4081 71.936 46.4952L72.8993 43.2402C74.3606 38.2869 75.8218 33.3337 77.283 28.3805C77.6294 27.2048 78.268 26.7366 79.5019 26.7475L91.8194 26.8455H92.6095L93.6702 22.4584C94.1032 20.6512 94.5253 18.8659 94.9583 17.0588C95.1639 16.2314 95.6185 15.8286 96.3004 15.8286C96.9823 15.8286 97.4261 16.2423 97.5885 17.1023L99.9372 29.578C100.294 31.4722 100.63 33.3664 100.987 35.2606L101.041 35.3477L102.21 31.0585C102.427 30.1876 102.632 29.3167 102.86 28.4458L103.401 27.3789C109.906 27.4878 115.632 27.5749 121.347 27.6838L134.682 27.9777C134.887 27.9777 135.082 27.9777 135.277 27.9777V28.0865L134.996 28.1954C128.555 28.326 122.278 28.4567 115.989 28.5764L104.765 28.7724C104.353 28.7724 104.213 28.903 104.137 29.2949L102.091 38.9401C101.918 39.7457 101.528 40.1703 100.944 40.1376L100.078 39.7784C99.212 35.7396 98.4977 32.3431 97.7833 28.9574L96.3978 22.3495C96.3762 22.2406 96.3221 22.1318 96.2463 21.8923L94.9366 27.7382C94.6769 28.8595 94.0491 29.3711 92.9342 29.3711L80.4002 29.4473C79.9456 29.4473 79.7508 29.5671 79.6209 30.0243L73.0401 53.1793C72.6179 54.6598 71.1026 54.9102 70.3558 54.1264L69.8362 53.2773C68.8945 46.7673 68.0395 40.7255 67.206 34.6727L66.5025 29.2296C66.4159 28.5329 66.1453 27.8579 66.1778 27.1721C66.2102 25.9637 65.7232 24.8642 65.6257 23.6776L65.1603 20.096C64.7057 16.754 64.2295 13.401 63.7749 10.0589L63.6991 9.80856C63.0172 11.6483 62.4327 13.6187 61.8591 15.5891L58.2114 27.9232C57.8975 28.9901 57.2806 29.4473 56.1549 29.4364L43.5019 29.3385C43.0689 29.3385 42.8957 29.4473 42.7875 29.8937L40.5578 39.1687C40.363 39.9525 39.9084 40.3553 39.2373 40.3444C38.5662 40.3444 38.1116 39.9308 37.9601 39.1143L35.3083 24.9404C35.0701 23.6667 34.8428 22.393 34.6047 21.1085L34.5181 20.8363" fill="white"/>
</mask>
<g mask="url(#mask1_794_5247)">
<path d="M135.179 1.62207H0V54.5183H135.179V1.62207Z" fill="white"/>
</g>
</g>
<path d="M161.805 14.1413C163.612 14.9686 164.998 16.1335 165.983 17.6466C166.957 19.1598 167.444 20.9452 167.444 23.0244C167.444 25.1037 166.957 26.8564 165.983 28.3805C165.008 29.9045 163.612 31.0694 161.805 31.8858C159.997 32.6914 157.865 33.0942 155.408 33.0942H149.833V40.7799H143.426V12.9111H155.419C157.876 12.9111 160.008 13.3248 161.815 14.1413H161.805ZM159.445 26.5734C160.452 25.7351 160.95 24.5485 160.95 23.0136C160.95 21.4786 160.452 20.2485 159.445 19.4102C158.438 18.572 156.977 18.1583 155.051 18.1583H149.823V27.8253H155.051C156.977 27.8253 158.438 27.4116 159.445 26.5734Z" fill="#000204"/>
<path d="M177.51 37.9493C175.302 35.7503 174.209 32.6042 174.209 28.5218V12.9219H180.617V28.2823C180.617 33.2682 182.673 35.7612 186.786 35.7612C188.789 35.7612 190.326 35.1624 191.376 33.9541C192.425 32.7457 192.956 30.8515 192.956 28.2823V12.9219H199.288V28.5218C199.288 32.6042 198.184 35.7503 195.987 37.9493C193.778 40.1483 190.704 41.2478 186.743 41.2478C182.781 41.2478 179.707 40.1483 177.499 37.9493H177.51Z" fill="#000204"/>
<path d="M207.688 12.9111H214.095V35.5218H227.982V40.7799H207.688V12.9111Z" fill="#000204"/>
<path d="M236.392 40.3552C234.346 39.7564 232.701 38.9835 231.467 38.0255L233.642 33.1703C234.833 34.0412 236.24 34.7488 237.874 35.2822C239.509 35.8156 241.143 36.0769 242.778 36.0769C244.596 36.0769 245.938 35.8047 246.815 35.2604C247.681 34.7161 248.125 33.9976 248.125 33.094C248.125 32.43 247.865 31.8857 247.356 31.4393C246.847 30.993 246.187 30.6446 245.375 30.3834C244.574 30.1221 243.481 29.8282 242.107 29.5125C239.996 29.0117 238.264 28.5001 236.922 27.9993C235.58 27.4985 234.422 26.6821 233.458 25.5717C232.495 24.4613 232.019 22.9699 232.019 21.1192C232.019 19.4971 232.452 18.0384 233.328 16.7212C234.194 15.4039 235.515 14.3697 237.268 13.5968C239.022 12.8239 241.165 12.4429 243.698 12.4429C245.462 12.4429 247.194 12.6606 248.882 13.0743C250.571 13.4988 252.043 14.1085 253.309 14.9032L251.328 19.802C248.774 18.3432 246.209 17.6138 243.654 17.6138C241.858 17.6138 240.537 17.9078 239.682 18.4847C238.827 19.0617 238.394 19.8346 238.394 20.7926C238.394 21.7506 238.892 22.4582 239.877 22.9263C240.862 23.3944 242.377 23.8516 244.412 24.298C246.523 24.7987 248.255 25.3104 249.597 25.8112C250.939 26.3119 252.097 27.1066 253.06 28.1952C254.024 29.2839 254.5 30.7535 254.5 32.6151C254.5 34.2044 254.056 35.6632 253.179 36.9695C252.292 38.2868 250.971 39.321 249.207 40.0939C247.443 40.8668 245.289 41.2478 242.756 41.2478C240.57 41.2478 238.448 40.9539 236.402 40.3552H236.392Z" fill="#000204"/>
<path d="M282.394 35.598V40.769H260.941V12.9111H281.875V18.0821H267.317V24.1348H280.175V29.1534H267.317V35.598H282.394Z" fill="#000204"/>
<path d="M322.658 12.1382V39.9961H316.251V28.5764H303.673V39.9961H297.266V12.1382H303.673V23.1224H316.251V12.1382H322.658Z" fill="white"/>
<path d="M331.285 12.1382H343.862C346.871 12.1382 349.523 12.7152 351.84 13.8691C354.145 15.023 355.942 16.6451 357.219 18.7461C358.496 20.8472 359.135 23.2857 359.135 26.0726C359.135 28.8594 358.496 31.298 357.219 33.399C355.942 35.5 354.145 37.1221 351.84 38.276C349.534 39.43 346.871 40.0069 343.862 40.0069H331.285V12.1382ZM343.549 34.7053C346.319 34.7053 348.527 33.9324 350.173 32.3757C351.818 30.819 352.641 28.7179 352.641 26.0726C352.641 23.4272 351.818 21.3153 350.173 19.7694C348.527 18.2127 346.319 17.4398 343.549 17.4398H337.693V34.7053H343.549Z" fill="white"/>
<path d="M371.626 38.6243C369.342 37.3941 367.556 35.6741 366.246 33.486C364.937 31.2978 364.287 28.8267 364.287 26.0616C364.287 23.2965 364.937 20.8253 366.246 18.6372C367.556 16.449 369.342 14.7399 371.626 13.4989C373.909 12.2687 376.475 11.6482 379.321 11.6482C381.724 11.6482 383.889 12.0728 385.826 12.9219C387.764 13.771 389.388 14.9903 390.708 16.5797L386.595 20.4007C384.722 18.2235 382.406 17.1349 379.635 17.1349C377.925 17.1349 376.388 17.5159 375.046 18.267C373.704 19.0182 372.654 20.0741 371.896 21.4349C371.149 22.7848 370.771 24.3307 370.771 26.0507C370.771 27.7707 371.149 29.3165 371.896 30.6664C372.654 32.0163 373.693 33.0723 375.046 33.8343C376.388 34.5855 377.925 34.9665 379.635 34.9665C382.406 34.9665 384.722 33.867 386.595 31.668L390.708 35.489C389.388 37.1111 387.753 38.3412 385.805 39.1904C383.857 40.0395 381.681 40.464 379.278 40.464C376.453 40.464 373.899 39.8435 371.626 38.6134V38.6243Z" fill="white"/>
<path d="M402.722 38.6025C400.416 37.3505 398.609 35.6414 397.299 33.4533C395.989 31.2651 395.34 28.8048 395.34 26.0724C395.34 23.34 395.989 20.8797 397.299 18.6915C398.609 16.5034 400.416 14.7834 402.722 13.5424C405.027 12.2904 407.625 11.6699 410.493 11.6699C413.361 11.6699 415.948 12.2904 418.254 13.5424C420.559 14.7943 422.356 16.5034 423.677 18.6915C424.997 20.8797 425.657 23.34 425.657 26.0724C425.657 28.8048 424.997 31.2651 423.677 33.4533C422.356 35.6414 420.549 37.3614 418.254 38.6025C415.959 39.8435 413.372 40.4749 410.493 40.4749C407.614 40.4749 405.027 39.8544 402.722 38.6025ZM414.931 33.8452C416.251 33.094 417.28 32.0381 418.037 30.6773C418.795 29.3165 419.163 27.7815 419.163 26.0615C419.163 24.3415 418.784 22.7956 418.037 21.4458C417.291 20.0959 416.251 19.0399 414.931 18.2779C413.61 17.5267 412.138 17.1457 410.504 17.1457C408.87 17.1457 407.387 17.5267 406.077 18.2779C404.757 19.029 403.728 20.085 402.971 21.4458C402.224 22.7956 401.845 24.3415 401.845 26.0615C401.845 27.7815 402.224 29.3274 402.971 30.6773C403.728 32.0272 404.757 33.0831 406.077 33.8452C407.398 34.5963 408.87 34.9773 410.504 34.9773C412.138 34.9773 413.621 34.5963 414.931 33.8452Z" fill="white"/>
<path d="M450.174 39.9961L444.838 32.2342H438.939V39.9961H432.531V12.1382H444.524C446.981 12.1382 449.103 12.5519 450.91 13.3683C452.718 14.1957 454.114 15.3605 455.088 16.8737C456.062 18.3869 456.549 20.1722 456.549 22.2515C456.549 24.3308 456.051 26.1052 455.066 27.6075C454.081 29.1098 452.674 30.2529 450.856 31.0476L457.069 39.9961H450.185H450.174ZM448.551 18.6481C447.544 17.8099 446.083 17.3962 444.156 17.3962H438.928V27.1068H444.156C446.083 27.1068 447.544 26.6822 448.551 25.8331C449.557 24.9839 450.055 23.7865 450.055 22.2515C450.055 20.7165 449.557 19.4864 448.551 18.6481Z" fill="white"/>
<path d="M485.112 34.8251V39.9961H463.67V12.1382H484.603V17.3091H470.045V23.3619H482.904V28.3804H470.045V34.8251H485.123H485.112Z" fill="white"/>
<path d="M160.636 58.3394L157.389 70.8803H153.709L151.717 62.6285L149.661 70.8803H145.981L142.82 58.3394H146.067L147.864 67.462L150.083 58.3394H153.417L155.549 67.462L157.357 58.3394H160.625H160.636Z" fill="#000204"/>
<path d="M169.923 68.6594H165.269L164.522 70.8693H161.34L165.853 58.3284H169.371L173.885 70.8693H170.67L169.923 68.6594ZM169.144 66.2971L167.596 61.7031L166.07 66.2971H169.144Z" fill="#000204"/>
<path d="M184.21 58.3394V60.7888H180.909V70.8803H177.868V60.7888H174.566V58.3394H184.21Z" fill="#000204"/>
<path d="M188.778 60.7779V63.3144H192.848V65.6767H188.778V68.4309H193.378V70.8803H185.736V58.3394H193.378V60.7888H188.778V60.7779Z" fill="#000204"/>
<path d="M201.702 70.8693L199.105 66.1338H198.379V70.8693H195.338V58.3284H200.436C201.421 58.3284 202.254 58.5025 202.947 58.8509C203.64 59.1993 204.159 59.6674 204.506 60.2661C204.852 60.8649 205.025 61.5398 205.025 62.2801C205.025 63.1183 204.787 63.8586 204.322 64.5117C203.856 65.1649 203.164 65.633 202.254 65.9052L205.133 70.8693H201.702ZM198.379 63.9783H200.263C200.815 63.9783 201.237 63.8368 201.518 63.5646C201.8 63.2925 201.94 62.9006 201.94 62.3998C201.94 61.8991 201.8 61.5507 201.518 61.2785C201.237 61.0064 200.826 60.8649 200.263 60.8649H198.379V63.9674V63.9783Z" fill="#000204"/>
<path d="M215.923 64.3593C215.588 64.9581 215.079 65.448 214.397 65.8181C213.715 66.1882 212.86 66.3733 211.843 66.3733H209.959V70.8693H206.918V58.3284H211.832C212.828 58.3284 213.672 58.5025 214.354 58.8509C215.036 59.1993 215.555 59.6674 215.902 60.277C216.248 60.8866 216.421 61.5834 216.421 62.3672C216.421 63.0965 216.259 63.7606 215.923 64.3593ZM212.904 63.532C213.185 63.2598 213.326 62.8679 213.326 62.3672C213.326 61.8664 213.185 61.4854 212.904 61.2023C212.622 60.9302 212.189 60.7887 211.605 60.7887H209.949V63.9348H211.605C212.189 63.9348 212.622 63.7933 212.904 63.5211V63.532Z" fill="#000204"/>
<path d="M224.357 70.8693L221.759 66.1338H221.034V70.8693H217.992V58.3284H223.09C224.075 58.3284 224.909 58.5025 225.601 58.8509C226.294 59.1993 226.814 59.6674 227.16 60.2661C227.506 60.8649 227.68 61.5398 227.68 62.2801C227.68 63.1183 227.441 63.8586 226.976 64.5117C226.511 65.1649 225.818 65.633 224.909 65.9052L227.788 70.8693H224.357ZM221.034 63.9783H222.917C223.469 63.9783 223.891 63.8368 224.173 63.5646C224.454 63.2925 224.595 62.9006 224.595 62.3998C224.595 61.8991 224.454 61.5507 224.173 61.2785C223.891 61.0064 223.48 60.8649 222.917 60.8649H221.034V63.9674V63.9783Z" fill="#000204"/>
<path d="M232.257 70.1727C231.283 69.6284 230.504 68.8555 229.93 67.8757C229.357 66.8959 229.064 65.7855 229.064 64.5663C229.064 63.347 229.357 62.2366 229.93 61.2569C230.504 60.2771 231.283 59.5151 232.257 58.9708C233.232 58.4265 234.314 58.1543 235.483 58.1543C236.652 58.1543 237.734 58.4265 238.708 58.9708C239.683 59.5151 240.451 60.2771 241.014 61.2569C241.577 62.2366 241.858 63.3361 241.858 64.5663C241.858 65.7964 241.577 66.8959 241.003 67.8757C240.429 68.8555 239.661 69.6175 238.698 70.1727C237.723 70.717 236.652 70.9892 235.483 70.9892C234.314 70.9892 233.232 70.717 232.257 70.1727ZM237.864 67.2116C238.46 66.5476 238.763 65.6658 238.763 64.5663C238.763 63.4668 238.46 62.5741 237.864 61.91C237.269 61.246 236.468 60.9194 235.472 60.9194C234.476 60.9194 233.665 61.246 233.069 61.8992C232.474 62.5523 232.171 63.445 232.171 64.5554C232.171 65.6658 232.474 66.5476 233.069 67.2116C233.665 67.8757 234.466 68.2023 235.472 68.2023C236.479 68.2023 237.269 67.8648 237.864 67.2008V67.2116Z" fill="#000204"/>
<path d="M246.209 70.1727C245.235 69.6284 244.455 68.8555 243.882 67.8757C243.308 66.8959 243.016 65.7855 243.016 64.5663C243.016 63.347 243.308 62.2366 243.882 61.2569C244.455 60.2771 245.235 59.5151 246.209 58.9708C247.183 58.4265 248.265 58.1543 249.434 58.1543C250.603 58.1543 251.685 58.4265 252.66 58.9708C253.634 59.5151 254.402 60.2771 254.965 61.2569C255.528 62.2366 255.809 63.3361 255.809 64.5663C255.809 65.7964 255.528 66.8959 254.954 67.8757C254.381 68.8555 253.612 69.6175 252.649 70.1727C251.675 70.717 250.603 70.9892 249.434 70.9892C248.265 70.9892 247.183 70.717 246.209 70.1727ZM251.815 67.2116C252.411 66.5476 252.714 65.6658 252.714 64.5663C252.714 63.4668 252.411 62.5741 251.815 61.91C251.22 61.246 250.419 60.9194 249.423 60.9194C248.428 60.9194 247.616 61.246 247.02 61.8992C246.425 62.5523 246.122 63.445 246.122 64.5554C246.122 65.6658 246.425 66.5476 247.02 67.2116C247.616 67.8757 248.417 68.2023 249.423 68.2023C250.43 68.2023 251.22 67.8648 251.815 67.2008V67.2116Z" fill="#000204"/>
<path d="M265.606 58.3394V60.7888H260.53V63.4341H264.329V65.8073H260.53V70.8803H257.488V58.3394H265.606Z" fill="#000204"/>
<path d="M273.334 58.4591L274.329 60.2771L272.143 61.0501L274.329 61.8012L273.269 63.6954L271.494 62.1278L271.937 64.4466H269.859L270.281 62.1278L268.528 63.7172L267.424 61.7903L269.61 61.0174L267.445 60.2989L268.463 58.4591L270.314 60.0159L269.848 57.6536H271.959L271.494 60.0159L273.344 58.4591H273.334Z" fill="#000204"/>
<path d="M290.262 58.4265V70.8804H288.65V65.2413H282.339V70.8804H280.727V58.4265H282.339V63.8914H288.65V58.4265H290.262Z" fill="black"/>
<path d="M294.624 58.4265V70.8804H293.012V58.4265H294.624Z" fill="black"/>
<path d="M306.757 62.0297C306.411 61.3003 305.913 60.7451 305.263 60.3423C304.614 59.9395 303.856 59.7436 302.99 59.7436C302.124 59.7436 301.345 59.9395 300.652 60.3423C299.96 60.7451 299.418 61.3112 299.018 62.0623C298.617 62.8026 298.423 63.6626 298.423 64.6424C298.423 65.6221 298.617 66.4713 299.018 67.2115C299.418 67.9518 299.96 68.5179 300.652 68.9207C301.345 69.3235 302.124 69.5194 302.99 69.5194C304.202 69.5194 305.187 69.1602 305.978 68.4308C306.757 67.7014 307.212 66.7216 307.341 65.4806H302.406V64.1634H309.062V65.4153C308.965 66.4386 308.651 67.3748 308.099 68.2239C307.558 69.0731 306.844 69.748 305.956 70.2379C305.068 70.7278 304.083 70.9782 302.99 70.9782C301.843 70.9782 300.793 70.706 299.851 70.1617C298.91 69.6174 298.152 68.8662 297.6 67.8974C297.048 66.9285 296.777 65.8399 296.777 64.6315C296.777 63.4231 297.048 62.3236 297.6 61.3547C298.152 60.3859 298.899 59.6238 299.851 59.0904C300.804 58.5461 301.843 58.2739 302.99 58.2739C304.3 58.2739 305.469 58.6005 306.475 59.2537C307.493 59.9069 308.229 60.8322 308.684 62.0188H306.746L306.757 62.0297Z" fill="black"/>
<path d="M320.731 58.4265V70.8804H319.118V65.2413H312.808V70.8804H311.195V58.4265H312.808V63.8914H319.118V58.4265H320.731Z" fill="black"/>
<path d="M335.581 59.1775C336.566 59.6782 337.324 60.4076 337.854 61.3438C338.384 62.28 338.644 63.3904 338.644 64.6641C338.644 65.9378 338.384 67.0482 337.854 67.9735C337.324 68.9097 336.566 69.6282 335.581 70.1181C334.596 70.608 333.427 70.8584 332.074 70.8584H328.221V58.4045H332.074C333.427 58.4045 334.596 58.6549 335.581 59.1666V59.1775ZM335.732 68.2457C336.577 67.3966 336.999 66.1991 336.999 64.6641C336.999 63.1292 336.577 61.9099 335.732 61.039C334.888 60.1681 333.665 59.7327 332.085 59.7327H329.844V69.5194H332.085C333.687 69.5194 334.899 69.0948 335.743 68.2457H335.732Z" fill="black"/>
<path d="M342.39 59.7435V63.9021H346.904V65.2411H342.39V69.5303H347.434V70.8693H340.777V58.4045H347.434V59.7435H342.39Z" fill="black"/>
<path d="M359.622 70.8693H358.009L351.515 60.9519V70.8693H349.902V58.4045H351.515L358.009 68.3001V58.4045H359.622V70.8693Z" fill="black"/>
<path d="M364.102 70.5645C363.452 70.2706 362.954 69.8678 362.586 69.3453C362.218 68.8227 362.034 68.224 362.023 67.549H363.744C363.799 68.1369 364.048 68.6268 364.47 69.0187C364.892 69.4215 365.498 69.6174 366.31 69.6174C367.121 69.6174 367.684 69.4215 368.128 69.0405C368.572 68.6594 368.799 68.1587 368.799 67.549C368.799 67.07 368.669 66.689 368.409 66.3842C368.15 66.0903 367.825 65.8617 367.435 65.7093C367.046 65.5569 366.515 65.3827 365.855 65.2085C365.043 64.9908 364.383 64.7839 363.896 64.5662C363.409 64.3485 362.987 64.011 362.64 63.5538C362.294 63.0966 362.121 62.4761 362.121 61.7031C362.121 61.0282 362.294 60.4186 362.64 59.896C362.987 59.3735 363.463 58.9707 364.091 58.6768C364.719 58.3828 365.422 58.2522 366.234 58.2522C367.392 58.2522 368.345 58.5461 369.081 59.1231C369.817 59.711 370.239 60.4839 370.336 61.4419H368.561C368.507 60.9629 368.258 60.5492 367.814 60.1791C367.381 59.8198 366.797 59.6347 366.072 59.6347C365.4 59.6347 364.848 59.8089 364.415 60.1573C363.983 60.5056 363.777 60.9955 363.777 61.6269C363.777 62.0842 363.907 62.4434 364.156 62.7373C364.405 63.0204 364.719 63.2381 365.097 63.3905C365.476 63.5429 365.996 63.7062 366.667 63.9022C367.479 64.1308 368.139 64.3485 368.637 64.5771C369.135 64.7948 369.557 65.1323 369.914 65.6004C370.271 66.0576 370.444 66.6781 370.444 67.462C370.444 68.0716 370.282 68.6377 369.968 69.182C369.654 69.7154 369.178 70.1508 368.55 70.4883C367.922 70.8258 367.186 70.9891 366.331 70.9891C365.476 70.9891 364.784 70.8476 364.134 70.5536L364.102 70.5645Z" fill="black"/>
<path d="M374.406 58.4265V70.8804H372.793V58.4265H374.406Z" fill="black"/>
<path d="M384.776 58.4265V59.7438H381.399V70.8695H379.786V59.7438H376.398V58.4265H384.776Z" fill="black"/>
<path d="M395.437 58.4265L391.411 66.1775V70.8804H389.798V66.1775L385.75 58.4265H387.547L390.599 64.7296L393.651 58.4265H395.448H395.437Z" fill="black"/>
<path d="M404.659 68.518H408.631V70.8803H401.617V58.3394H404.659V68.518Z" fill="#000204"/>
<path d="M417.843 68.6594H413.189L412.442 70.8693H409.26L413.773 58.3284H417.291L421.805 70.8693H418.59L417.843 68.6594ZM417.064 66.2971L415.516 61.7031L413.99 66.2971H417.064Z" fill="#000204"/>
<path d="M437.293 58.3394V70.8803H434.252V63.3579L431.459 70.8803H429.013L426.209 63.347V70.8803H423.168V58.3394H426.751L430.247 67.0157L433.71 58.3394H437.282H437.293Z" fill="#000204"/>
<path d="M442.51 58.3394V70.8803H439.469V58.3394H442.51Z" fill="#000204"/>
<path d="M455.866 70.8693H452.825L447.749 63.1401V70.8693H444.707V58.3284H447.749L452.825 66.1011V58.3284H455.866V70.8693Z" fill="#000204"/>
<path d="M465.824 68.6594H461.169L460.422 70.8693H457.24L461.754 58.3284H465.271L469.785 70.8693H466.57L465.824 68.6594ZM465.044 66.2971L463.496 61.7031L461.97 66.2971H465.044Z" fill="#000204"/>
<path d="M480.123 58.3394V60.7888H476.821V70.8803H473.78V60.7888H470.479V58.3394H480.123Z" fill="#000204"/>
<path d="M484.679 60.7779V63.3144H488.749V65.6767H484.679V68.4309H489.279V70.8803H481.648V58.3394H489.279V60.7888H484.679V60.7779Z" fill="#000204"/>
<mask id="mask2_794_5247" style="mask-type:luminance" maskUnits="userSpaceOnUse" x="494" y="0" width="136" height="54">
<path d="M629.99 0H494.605V53.3099H629.99V0Z" fill="white"/>
</mask>
<g mask="url(#mask2_794_5247)">
<mask id="mask3_794_5247" style="mask-type:luminance" maskUnits="userSpaceOnUse" x="494" y="0" width="136" height="54">
<path d="M529.015 19.1815L527.727 24.3851C527.576 24.9839 527.424 25.5935 527.273 26.1923C527.056 27.0632 526.688 27.368 525.779 27.3462L511.416 27.1067C505.928 26.9978 500.43 26.8781 494.953 26.7583L494.736 26.7366L495.007 26.5515C503.893 26.3773 512.563 26.2032 521.255 26.0399L525.411 25.9745C525.768 25.9745 525.909 25.833 525.974 25.5173L528.052 15.8503C528.128 15.502 528.29 15.0992 528.55 14.8706C529.167 14.348 530 14.7508 530.184 15.6544L531.115 20.0742C532.003 24.2763 532.879 28.4784 533.767 32.6696L533.81 32.724L534.644 29.5235C534.828 28.6852 535.012 27.847 535.196 27.0087C535.445 25.9201 536.04 25.4302 537.166 25.4193L549.765 25.3323C550.208 25.3323 550.382 25.1907 550.511 24.7771L557.049 1.78533C557.406 0.566074 558.131 0.0326489 559.127 0.293918C559.809 0.468098 560.21 0.936206 560.307 1.62204L561.801 12.1055C562.353 15.9919 562.905 19.8891 563.446 23.7864L563.922 27.6728C564.355 30.7101 564.821 33.7364 565.253 36.7737L566.379 44.8295C566.379 44.9166 566.412 44.9928 566.542 45.0799L567.505 41.8249C568.966 36.8717 570.427 31.9184 571.888 26.9652C572.235 25.7895 572.873 25.3214 574.107 25.3323L586.425 25.4302H587.215L588.276 21.0431C588.709 19.236 589.131 17.4506 589.564 15.6435C589.769 14.8162 590.224 14.4134 590.906 14.4134C591.588 14.4134 592.032 14.827 592.194 15.687L594.543 28.1627C594.9 30.0569 595.235 31.9511 595.593 33.8453L595.647 33.9324L596.816 29.6432C597.032 28.7723 597.238 27.9014 597.465 27.0305L598.006 25.9637C604.511 26.0725 610.237 26.1596 615.952 26.2685L629.287 26.5624C629.493 26.5624 629.688 26.5624 629.882 26.5624V26.6713L629.601 26.7801C623.161 26.9108 616.883 27.0414 610.594 27.1611L599.37 27.3571C598.959 27.3571 598.818 27.4877 598.742 27.8796L596.697 37.5248C596.524 38.3304 596.134 38.755 595.549 38.7223L594.683 38.3631C593.818 34.3243 593.103 30.9278 592.389 27.5422L591.003 20.9342C590.982 20.8254 590.928 20.7165 590.852 20.477L589.542 26.3229C589.282 27.4442 588.655 27.9558 587.54 27.9558L575.006 28.032C574.551 28.032 574.356 28.1518 574.226 28.609L567.646 51.764C567.223 53.2445 565.708 53.4949 564.961 52.7111L564.442 51.862C563.5 45.352 562.645 39.3102 561.812 33.2574L561.108 27.8143C561.021 27.1176 560.751 26.4426 560.783 25.7568C560.816 24.5484 560.329 23.4489 560.231 22.2623L559.766 18.6808C559.311 15.3387 558.835 11.9857 558.38 8.64366L558.305 8.39328C557.623 10.233 557.038 12.2035 556.465 14.1739L552.817 26.508C552.503 27.5748 551.886 28.032 550.76 28.0212L538.107 27.9232C537.674 27.9232 537.501 28.032 537.393 28.4784L535.163 37.7534C534.968 38.5373 534.514 38.94 533.843 38.9292C533.172 38.9292 532.717 38.5155 532.566 37.699L529.914 23.5251C529.676 22.2514 529.448 20.9778 529.21 19.6932L529.124 19.421" fill="white"/>
</mask>
<g mask="url(#mask3_794_5247)">
<path d="M629.786 0.206787H494.607V53.103H629.786V0.206787Z" fill="white"/>
</g>
</g>
</g>
<defs>
<clipPath id="clip0_794_5247">
<rect width="630" height="71" fill="white"/>
</clipPath>
</defs>
</svg>
