<svg width="550" height="55" viewBox="0 0 550 55" fill="none" xmlns="http://www.w3.org/2000/svg">
<g clip-path="url(#clip0_794_4825)">
<mask id="mask0_794_4825" style="mask-type:luminance" maskUnits="userSpaceOnUse" x="0" y="0" width="125" height="49">
<path d="M31.7891 17.6201L30.5991 22.4001C30.4591 22.9501 30.3191 23.5101 30.1791 24.0601C29.9791 24.8601 29.6391 25.1401 28.7991 25.1201L15.5291 24.9001C10.4591 24.8001 5.37914 24.6901 0.319141 24.5801L0.119141 24.5601L0.369141 24.3901C8.57914 24.2301 16.5891 24.0701 24.6191 23.9201L28.4591 23.8601C28.7891 23.8601 28.9191 23.7301 28.9791 23.4401L30.8991 14.5601C30.9691 14.2401 31.1191 13.8701 31.3591 13.6601C31.9291 13.1801 32.6991 13.5501 32.8691 14.3801L33.7291 18.4401C34.5491 22.3001 35.3591 26.1601 36.1791 30.0101L36.2191 30.0601L36.9891 27.1201C37.1591 26.3501 37.3291 25.5801 37.4991 24.8101C37.7291 23.8101 38.2791 23.3601 39.3191 23.3501L50.9591 23.2701C51.3691 23.2701 51.5291 23.1401 51.6491 22.7601L57.6691 1.62006C57.9991 0.50006 58.6691 0.0100596 59.5891 0.25006C60.2191 0.41006 60.5891 0.84006 60.6791 1.47006L62.0591 11.1001C62.5691 14.6701 63.0791 18.2501 63.5791 21.8301L64.0191 25.4001C64.4191 28.1901 64.8491 30.9701 65.2491 33.7601L66.2891 41.1601C66.2891 41.2401 66.3191 41.3101 66.4391 41.3901L67.3291 38.4001C68.6791 33.8501 70.0291 29.3001 71.3791 24.7501C71.6991 23.6701 72.2891 23.2401 73.4291 23.2501L84.8091 23.3401H85.5391L86.5191 19.3101C86.9191 17.6501 87.3091 16.0101 87.7091 14.3501C87.8991 13.5901 88.3191 13.2201 88.9491 13.2201C89.5791 13.2201 89.9891 13.6001 90.1391 14.3901L92.3091 25.8501C92.6391 27.5901 92.9491 29.3301 93.2791 31.0701L93.3291 31.1501L94.4091 27.2101C94.6091 26.4101 94.7991 25.6101 95.0091 24.8101L95.5091 23.8301C101.519 23.9301 106.809 24.0101 112.089 24.1101L124.409 24.3801C124.599 24.3801 124.779 24.3801 124.959 24.3801V24.4801L124.699 24.5801C118.749 24.7001 112.949 24.8201 107.139 24.9301L96.7691 25.1101C96.3891 25.1101 96.2591 25.2301 96.1891 25.5901L94.2991 34.4501C94.1391 35.1901 93.7791 35.5801 93.2391 35.5501L92.4391 35.2201C91.6391 31.5101 90.9791 28.3901 90.3191 25.2801L89.0391 19.2101C89.0191 19.1101 88.9691 19.0101 88.8991 18.7901L87.6891 24.1601C87.4491 25.1901 86.8691 25.6601 85.8391 25.6601L74.2591 25.7301C73.8391 25.7301 73.6591 25.8401 73.5391 26.2601L67.4591 47.5301C67.0691 48.8901 65.6691 49.1201 64.9791 48.4001L64.4991 47.6201C63.6291 41.6401 62.8391 36.0901 62.0691 30.5301L61.4191 25.5301C61.3391 24.8901 61.0891 24.2701 61.1191 23.6401C61.1491 22.5301 60.6991 21.5201 60.6091 20.4301L60.1791 17.1401C59.7591 14.0701 59.3191 10.9901 58.8991 7.92006L58.8291 7.69006C58.1991 9.38006 57.6591 11.1901 57.1291 13.0001L53.7591 24.3301C53.4691 25.3101 52.8991 25.7301 51.8591 25.7201L40.1691 25.6301C39.7691 25.6301 39.6091 25.7301 39.5091 26.1401L37.4491 34.6601C37.2691 35.3801 36.8491 35.7501 36.2291 35.7401C35.6091 35.7301 35.1891 35.3601 35.0491 34.6101L32.5991 21.5901C32.3791 20.4201 32.1691 19.2501 31.9491 18.0701L31.8691 17.8201" fill="white"/>
</mask>
<g mask="url(#mask0_794_4825)">
<path d="M124.89 0.189941H0V48.7799H124.89V0.189941Z" fill="white"/>
</g>
<path d="M157.079 3.72016C159.389 4.76016 161.159 6.25016 162.409 8.16016C163.659 10.0802 164.279 12.3502 164.279 14.9802C164.279 17.6102 163.659 19.8402 162.409 21.7702C161.159 23.7102 159.389 25.1902 157.079 26.2102C154.769 27.2402 152.049 27.7502 148.919 27.7502H141.799V37.5002H133.619V2.16016H148.919C152.049 2.16016 154.769 2.68016 157.079 3.73016V3.72016ZM154.079 19.5002C155.359 18.4402 155.999 16.9302 155.999 14.9802C155.999 13.0302 155.359 11.4702 154.079 10.4102C152.799 9.35016 150.929 8.82016 148.469 8.82016H141.799V21.0902H148.469C150.929 21.0902 152.799 20.5602 154.079 19.5002Z" fill="#000204"/>
<path d="M177.13 33.9202C174.32 31.1302 172.91 27.1402 172.91 21.9502V2.16016H181.09V21.6502C181.09 27.9802 183.72 31.1402 188.97 31.1402C191.53 31.1402 193.48 30.3702 194.83 28.8402C196.18 27.3102 196.85 24.9102 196.85 21.6402V2.16016H204.93V21.9602C204.93 27.1502 203.52 31.1302 200.71 33.9302C197.9 36.7202 193.97 38.1202 188.92 38.1202C183.87 38.1202 179.94 36.7202 177.13 33.9302V33.9202Z" fill="#000204"/>
<path d="M215.631 2.16016H223.811V30.8502H241.541V37.5202H215.631V2.16016Z" fill="#000204"/>
<path d="M252.27 36.9801C249.66 36.2201 247.56 35.2401 245.98 34.0301L248.76 27.8701C250.28 28.9801 252.08 29.8701 254.16 30.5501C256.25 31.2201 258.33 31.5601 260.42 31.5601C262.74 31.5601 264.46 31.2201 265.57 30.5201C266.68 29.8201 267.24 28.9101 267.24 27.7701C267.24 26.9301 266.91 26.2301 266.25 25.6701C265.59 25.1101 264.75 24.6701 263.73 24.3301C262.7 23.9901 261.31 23.6201 259.56 23.2201C256.87 22.5801 254.66 21.9401 252.94 21.3001C251.22 20.6601 249.75 19.6301 248.52 18.2201C247.29 16.8101 246.68 14.9201 246.68 12.5601C246.68 10.5101 247.24 8.65006 248.35 6.98006C249.46 5.31006 251.14 3.99006 253.37 3.02006C255.61 2.04006 258.34 1.56006 261.58 1.56006C263.83 1.56006 266.04 1.83006 268.2 2.37006C270.35 2.91006 272.24 3.68006 273.86 4.69006L271.34 10.9001C268.07 9.05006 264.81 8.12006 261.54 8.12006C259.25 8.12006 257.56 8.49006 256.46 9.23006C255.37 9.97006 254.82 10.9501 254.82 12.1601C254.82 13.3701 255.45 14.2701 256.71 14.8601C257.97 15.4501 259.9 16.0301 262.49 16.6001C265.18 17.2401 267.39 17.8801 269.11 18.5201C270.83 19.1601 272.3 20.1701 273.53 21.5501C274.76 22.9301 275.37 24.8001 275.37 27.1601C275.37 29.1801 274.81 31.0201 273.68 32.6901C272.55 34.3601 270.86 35.6801 268.6 36.6501C266.34 37.6301 263.6 38.1101 260.37 38.1101C257.58 38.1101 254.87 37.7301 252.26 36.9701L252.27 36.9801Z" fill="#000204"/>
<path d="M310.979 30.9402V37.5102H283.609V2.16016H310.329V8.73016H291.749V16.4102H308.159V22.7702H291.749V30.9502H310.989L310.979 30.9402Z" fill="#000204"/>
<path d="M351.359 20.0302C353.009 21.8302 353.829 24.0602 353.829 26.7202C353.829 28.7702 353.289 30.6702 352.209 32.4002C351.129 34.1302 349.489 35.5202 347.289 36.5702C345.079 37.6102 342.379 38.1402 339.179 38.1402C336.689 38.1402 334.239 37.8102 331.829 37.1602C329.419 36.5002 327.379 35.5702 325.689 34.3602L328.869 28.1002C330.219 29.1102 331.769 29.8902 333.539 30.4502C335.309 31.0102 337.119 31.2802 338.969 31.2802C341.019 31.2802 342.639 30.8902 343.819 30.0902C344.999 29.3002 345.589 28.1802 345.589 26.7302C345.589 23.8302 343.379 22.3902 338.969 22.3902H335.229V16.9902L342.499 8.76018H327.449V2.18018H352.199V7.48018L344.219 16.5702C347.319 17.0702 349.689 18.2302 351.339 20.0302H351.359Z" fill="white"/>
<path d="M361.4 36.5199C360.46 35.5799 359.99 34.3999 359.99 32.9799C359.99 31.5599 360.46 30.3599 361.4 29.4699C362.34 28.5799 363.5 28.1299 364.89 28.1299C366.28 28.1299 367.43 28.5799 368.37 29.4699C369.31 30.3599 369.78 31.5299 369.78 32.9799C369.78 34.4299 369.31 35.5699 368.37 36.5199C367.43 37.4599 366.27 37.9299 364.89 37.9299C363.51 37.9299 362.35 37.4599 361.4 36.5199Z" fill="white"/>
<path d="M383.42 35.9598C381.13 34.5098 379.34 32.4198 378.04 29.6698C376.74 26.9298 376.1 23.6498 376.1 19.8498C376.1 16.0498 376.75 12.7698 378.04 10.0298C379.34 7.28982 381.13 5.18982 383.42 3.73982C385.71 2.28982 388.32 1.56982 391.25 1.56982C394.18 1.56982 396.79 2.28982 399.08 3.73982C401.37 5.18982 403.16 7.27982 404.46 10.0298C405.76 12.7798 406.41 16.0498 406.41 19.8498C406.41 23.6498 405.76 26.9298 404.46 29.6698C403.16 32.4198 401.37 34.5098 399.08 35.9598C396.79 37.4098 394.18 38.1298 391.25 38.1298C388.32 38.1298 385.71 37.4098 383.42 35.9598ZM396.32 28.4298C397.55 26.5798 398.16 23.7198 398.16 19.8498C398.16 15.9798 397.55 13.1198 396.32 11.2698C395.09 9.41983 393.4 8.48982 391.24 8.48982C389.08 8.48982 387.44 9.41983 386.22 11.2698C384.99 13.1198 384.38 15.9798 384.38 19.8498C384.38 23.7198 384.99 26.5798 386.22 28.4298C387.45 30.2798 389.12 31.2098 391.24 31.2098C393.36 31.2098 395.09 30.2798 396.32 28.4298Z" fill="white"/>
<path d="M150.61 43.1802L147.56 54.8702H144.11L142.25 47.1802L140.32 54.8702H136.87L133.91 43.1802H136.96L138.64 51.6902L140.72 43.1802H143.85L145.85 51.6902L147.55 43.1802H150.61Z" fill="#000204"/>
<path d="M159.31 52.7999H154.95L154.25 54.8599H151.27L155.5 43.1699H158.8L163.03 54.8599H160.02L159.32 52.7999H159.31ZM158.58 50.5999L157.13 46.3199L155.7 50.5999H158.58Z" fill="#000204"/>
<path d="M172.71 43.1802V45.4602H169.61V54.8702H166.76V45.4602H163.66V43.1802H172.7H172.71Z" fill="#000204"/>
<path d="M176.991 45.4599V47.8199H180.801V50.0199H176.991V52.5799H181.301V54.8599H174.141V43.1699H181.301V45.4499H176.991V45.4599Z" fill="#000204"/>
<path d="M189.101 54.8702L186.671 50.4602H185.991V54.8702H183.141V43.1802H187.921C188.841 43.1802 189.631 43.3402 190.281 43.6602C190.931 43.9802 191.411 44.4202 191.741 44.9802C192.061 45.5402 192.221 46.1602 192.221 46.8502C192.221 47.6302 192.001 48.3202 191.561 48.9302C191.121 49.5402 190.481 49.9702 189.621 50.2302L192.321 54.8602H189.111L189.101 54.8702ZM185.991 48.4402H187.751C188.271 48.4402 188.661 48.3102 188.921 48.0602C189.181 47.8102 189.311 47.4402 189.311 46.9802C189.311 46.5202 189.181 46.1902 188.921 45.9302C188.661 45.6802 188.271 45.5502 187.751 45.5502H185.991V48.4502V48.4402Z" fill="#000204"/>
<path d="M202.43 48.7999C202.12 49.3599 201.64 49.8099 201 50.1599C200.36 50.5099 199.56 50.6799 198.6 50.6799H196.84V54.8799H193.99V43.1899H198.6C199.53 43.1899 200.32 43.3499 200.96 43.6699C201.6 43.9899 202.09 44.4399 202.41 44.9999C202.73 45.5699 202.89 46.2099 202.89 46.9499C202.89 47.6299 202.73 48.2499 202.42 48.8099L202.43 48.7999ZM199.6 48.0299C199.87 47.7799 200 47.4099 200 46.9499C200 46.4899 199.87 46.1199 199.6 45.8699C199.33 45.6199 198.93 45.4899 198.39 45.4899H196.84V48.4199H198.39C198.93 48.4199 199.34 48.2899 199.6 48.0399V48.0299Z" fill="#000204"/>
<path d="M210.341 54.8702L207.911 50.4602H207.231V54.8702H204.381V43.1802H209.161C210.081 43.1802 210.871 43.3402 211.521 43.6602C212.171 43.9802 212.651 44.4202 212.981 44.9802C213.301 45.5402 213.461 46.1602 213.461 46.8502C213.461 47.6302 213.241 48.3202 212.801 48.9302C212.361 49.5402 211.721 49.9702 210.861 50.2302L213.561 54.8602H210.351L210.341 54.8702ZM207.231 48.4402H208.991C209.511 48.4402 209.901 48.3102 210.161 48.0602C210.421 47.8102 210.551 47.4402 210.551 46.9802C210.551 46.5202 210.421 46.1902 210.161 45.9302C209.901 45.6802 209.511 45.5502 208.991 45.5502H207.231V48.4502V48.4402Z" fill="#000204"/>
<path d="M217.74 54.2198C216.82 53.7098 216.1 52.9998 215.56 52.0798C215.02 51.1598 214.75 50.1298 214.75 48.9898C214.75 47.8498 215.02 46.8198 215.56 45.9098C216.1 44.9998 216.83 44.2898 217.74 43.7798C218.66 43.2698 219.66 43.0098 220.76 43.0098C221.86 43.0098 222.87 43.2698 223.78 43.7798C224.7 44.2898 225.42 44.9998 225.94 45.9098C226.46 46.8198 226.73 47.8498 226.73 48.9898C226.73 50.1298 226.46 51.1598 225.93 52.0798C225.4 52.9998 224.68 53.7098 223.77 54.2198C222.86 54.7298 221.85 54.9898 220.76 54.9898C219.67 54.9898 218.65 54.7398 217.74 54.2198ZM223 51.4598C223.56 50.8398 223.84 50.0198 223.84 48.9998C223.84 47.9798 223.56 47.1398 223 46.5298C222.44 45.9098 221.69 45.6098 220.76 45.6098C219.83 45.6098 219.06 45.9198 218.5 46.5298C217.94 47.1398 217.66 47.9698 217.66 49.0098C217.66 50.0498 217.94 50.8698 218.5 51.4798C219.06 52.0898 219.81 52.3998 220.76 52.3998C221.71 52.3998 222.44 52.0898 223 51.4698V51.4598Z" fill="#000204"/>
<path d="M230.82 54.2198C229.9 53.7098 229.18 52.9998 228.64 52.0798C228.1 51.1598 227.83 50.1298 227.83 48.9898C227.83 47.8498 228.1 46.8198 228.64 45.9098C229.18 44.9998 229.91 44.2898 230.82 43.7798C231.74 43.2698 232.74 43.0098 233.84 43.0098C234.94 43.0098 235.95 43.2698 236.86 43.7798C237.78 44.2898 238.5 44.9998 239.02 45.9098C239.54 46.8198 239.81 47.8498 239.81 48.9898C239.81 50.1298 239.54 51.1598 239.01 52.0798C238.48 52.9998 237.76 53.7098 236.85 54.2198C235.94 54.7298 234.93 54.9898 233.84 54.9898C232.75 54.9898 231.73 54.7398 230.82 54.2198ZM236.08 51.4598C236.64 50.8398 236.92 50.0198 236.92 48.9998C236.92 47.9798 236.64 47.1398 236.08 46.5298C235.52 45.9098 234.77 45.6098 233.84 45.6098C232.91 45.6098 232.14 45.9198 231.58 46.5298C231.02 47.1398 230.74 47.9698 230.74 49.0098C230.74 50.0498 231.02 50.8698 231.58 51.4798C232.14 52.0898 232.89 52.3998 233.84 52.3998C234.79 52.3998 235.52 52.0898 236.08 51.4698V51.4598Z" fill="#000204"/>
<path d="M249.01 43.1799V45.4599H244.25V47.9199H247.81V50.1299H244.25V54.8599H241.4V43.1699H249.01V43.1799Z" fill="#000204"/>
<path d="M256.249 43.2998L257.179 44.9998L255.129 45.7198L257.179 46.4198L256.179 48.1798L254.509 46.7198L254.929 48.8798H252.979L253.379 46.7198L251.729 48.1998L250.699 46.3998L252.749 45.6798L250.719 45.0098L251.669 43.2998L253.399 44.7498L252.969 42.5498H254.949L254.519 44.7498L256.249 43.2998Z" fill="#000204"/>
<path d="M269.28 54.87L266.52 50.13H264.69V54.87H263.18V43.27H266.93C267.81 43.27 268.55 43.42 269.15 43.72C269.75 44.02 270.21 44.43 270.51 44.93C270.81 45.44 270.96 46.02 270.96 46.68C270.96 47.48 270.73 48.18 270.27 48.79C269.81 49.4 269.12 49.81 268.2 50.01L271.11 54.87H269.3H269.28ZM264.69 48.91H266.92C267.74 48.91 268.36 48.71 268.77 48.3C269.18 47.9 269.39 47.35 269.39 46.68C269.39 46.01 269.19 45.46 268.78 45.08C268.37 44.7 267.76 44.51 266.92 44.51H264.69V48.9V48.91Z" fill="black"/>
<path d="M274.811 43.2598V54.8598H273.301V43.2598H274.811Z" fill="black"/>
<path d="M286.18 46.6299C285.86 45.9499 285.39 45.4299 284.78 45.0599C284.17 44.6899 283.46 44.4999 282.65 44.4999C281.84 44.4999 281.11 44.6899 280.46 45.0599C279.81 45.4299 279.3 45.9699 278.93 46.6599C278.56 47.3499 278.37 48.1599 278.37 49.0699C278.37 49.9799 278.56 50.7799 278.93 51.4699C279.3 52.1599 279.81 52.6899 280.46 53.0599C281.11 53.4299 281.84 53.6199 282.65 53.6199C283.78 53.6199 284.71 53.2799 285.45 52.6099C286.19 51.9399 286.61 51.0199 286.73 49.8599H282.1V48.6299H288.34V49.7999C288.25 50.7499 287.95 51.6299 287.44 52.4199C286.93 53.2099 286.26 53.8399 285.43 54.2999C284.6 54.7599 283.67 54.9899 282.65 54.9899C281.57 54.9899 280.59 54.7399 279.7 54.2299C278.81 53.7199 278.11 53.0199 277.59 52.1199C277.07 51.2199 276.82 50.2099 276.82 49.0699C276.82 47.9299 277.08 46.9199 277.59 46.0199C278.11 45.1199 278.81 44.4099 279.7 43.9099C280.59 43.4099 281.57 43.1499 282.65 43.1499C283.88 43.1499 284.97 43.4599 285.92 44.0699C286.87 44.6799 287.56 45.5399 287.99 46.6499H286.18V46.6299Z" fill="black"/>
<path d="M291.85 43.2598V54.8598H290.34V43.2598H291.85Z" fill="black"/>
<path d="M301.33 43.97C302.26 44.44 302.97 45.12 303.46 45.99C303.95 46.87 304.2 47.9 304.2 49.09C304.2 50.28 303.95 51.31 303.46 52.18C302.97 53.05 302.26 53.72 301.33 54.18C300.4 54.64 299.31 54.87 298.04 54.87H294.43V43.27H298.04C299.3 43.27 300.4 43.51 301.33 43.98V43.97ZM301.47 52.43C302.26 51.64 302.65 50.52 302.65 49.09C302.65 47.66 302.25 46.52 301.46 45.71C300.67 44.9 299.53 44.49 298.04 44.49H295.94V53.61H298.04C299.54 53.61 300.68 53.21 301.47 52.42V52.43Z" fill="black"/>
<path d="M310.84 45.9999C311.35 45.0999 312.05 44.3899 312.93 43.8799C313.81 43.3699 314.79 43.1099 315.87 43.1099C317.14 43.1099 318.24 43.4199 319.18 44.0299C320.12 44.6399 320.81 45.5099 321.24 46.6299H319.43C319.11 45.9299 318.64 45.3899 318.04 45.0199C317.43 44.6399 316.71 44.4499 315.87 44.4499C315.03 44.4499 314.33 44.6399 313.69 45.0199C313.05 45.3999 312.54 45.9299 312.18 46.6299C311.82 47.3299 311.63 48.1399 311.63 49.0699C311.63 49.9999 311.81 50.7999 312.18 51.4899C312.55 52.1799 313.05 52.7199 313.69 53.0999C314.33 53.4799 315.06 53.6699 315.87 53.6699C316.68 53.6699 317.44 53.4799 318.04 53.1099C318.64 52.7399 319.11 52.1999 319.43 51.4999H321.24C320.81 52.6099 320.12 53.4699 319.18 54.0699C318.24 54.6799 317.13 54.9799 315.87 54.9799C314.79 54.9799 313.81 54.7299 312.93 54.2199C312.05 53.7199 311.35 53.0099 310.84 52.1099C310.33 51.2099 310.07 50.1999 310.07 49.0599C310.07 47.9199 310.32 46.9099 310.84 46.0099V45.9999Z" fill="black"/>
<path d="M325.8 54.2299C324.91 53.7299 324.21 53.0199 323.69 52.1199C323.17 51.2199 322.92 50.1999 322.92 49.0699C322.92 47.9399 323.18 46.9199 323.69 46.0199C324.21 45.1199 324.91 44.4099 325.8 43.9099C326.69 43.4099 327.67 43.1499 328.75 43.1499C329.83 43.1499 330.83 43.3999 331.71 43.9099C332.59 44.4199 333.3 45.1199 333.81 46.0199C334.32 46.9199 334.58 47.9399 334.58 49.0799C334.58 50.2199 334.33 51.2399 333.81 52.1399C333.3 53.0399 332.6 53.7399 331.71 54.2499C330.82 54.7599 329.83 55.0099 328.75 55.0099C327.67 55.0099 326.69 54.7599 325.8 54.2499V54.2299ZM330.94 53.1099C331.59 52.7299 332.1 52.1899 332.47 51.4999C332.84 50.8099 333.03 49.9899 333.03 49.0699C333.03 48.1499 332.84 47.3199 332.47 46.6299C332.1 45.9399 331.59 45.3999 330.95 45.0199C330.31 44.6399 329.57 44.4499 328.75 44.4499C327.93 44.4499 327.2 44.6399 326.55 45.0199C325.91 45.3999 325.4 45.9299 325.03 46.6299C324.66 47.3299 324.47 48.1399 324.47 49.0699C324.47 49.9999 324.66 50.7999 325.03 51.4999C325.4 52.1999 325.91 52.7399 326.56 53.1099C327.21 53.4899 327.94 53.6799 328.75 53.6799C329.56 53.6799 330.29 53.4899 330.94 53.1099Z" fill="black"/>
<path d="M342.68 54.87L339.92 50.13H338.09V54.87H336.58V43.27H340.33C341.21 43.27 341.95 43.42 342.55 43.72C343.15 44.02 343.61 44.43 343.91 44.93C344.21 45.44 344.36 46.02 344.36 46.68C344.36 47.48 344.13 48.18 343.67 48.79C343.21 49.4 342.52 49.81 341.6 50.01L344.51 54.87H342.7H342.68ZM338.09 48.91H340.32C341.14 48.91 341.76 48.71 342.17 48.3C342.58 47.9 342.79 47.35 342.79 46.68C342.79 46.01 342.59 45.46 342.18 45.08C341.77 44.7 341.16 44.51 340.32 44.51H338.09V48.9V48.91Z" fill="black"/>
<path d="M348.209 44.4998V48.3798H352.439V49.6298H348.209V53.6298H352.939V54.8798H346.699V43.2598H352.939V44.5098H348.209V44.4998Z" fill="black"/>
<path d="M370.401 43.1802L366.261 54.8702H362.701L358.551 43.1802H361.581L364.481 52.0002L367.391 43.1802H370.401Z" fill="#000204"/>
<path d="M374.43 43.1802V54.8702H371.58V43.1802H374.43Z" fill="#000204"/>
<path d="M386.95 54.8702H384.1L379.34 47.6602V54.8702H376.49V43.1802H379.34L384.1 50.4202V43.1802H386.95V54.8702Z" fill="#000204"/>
<path d="M399.03 43.1802L394.98 51.0002V54.8602H392.13V51.0002L388.08 43.1802H391.31L393.57 48.0702L395.82 43.1802H399.02H399.03Z" fill="#000204"/>
<path d="M403.02 52.6702H406.75V54.8702H400.17V43.1802H403.02V52.6702Z" fill="#000204"/>
<mask id="mask1_794_4825" style="mask-type:luminance" maskUnits="userSpaceOnUse" x="424" y="0" width="126" height="49">
<path d="M549.769 0H424.689V48.97H549.769V0Z" fill="white"/>
</mask>
<g mask="url(#mask1_794_4825)">
<mask id="mask2_794_4825" style="mask-type:luminance" maskUnits="userSpaceOnUse" x="424" y="0" width="126" height="49">
<path d="M456.469 17.6201L455.279 22.4001C455.139 22.9501 454.999 23.5101 454.859 24.0601C454.659 24.8601 454.319 25.1401 453.479 25.1201L440.209 24.9001C435.139 24.8001 430.059 24.6901 424.999 24.5801L424.799 24.5601L425.049 24.3901C433.259 24.2301 441.269 24.0701 449.299 23.9201L453.139 23.8601C453.469 23.8601 453.599 23.7301 453.659 23.4401L455.579 14.5601C455.649 14.2401 455.799 13.8701 456.039 13.6601C456.609 13.1801 457.379 13.5501 457.549 14.3801L458.409 18.4401C459.229 22.3001 460.039 26.1601 460.859 30.0101L460.899 30.0601L461.669 27.1201C461.839 26.3501 462.009 25.5801 462.179 24.8101C462.409 23.8101 462.959 23.3601 463.999 23.3501L475.639 23.2701C476.049 23.2701 476.209 23.1401 476.329 22.7601L482.369 1.64008C482.699 0.520079 483.369 0.0300792 484.289 0.270079C484.919 0.430079 485.289 0.860079 485.379 1.49008L486.759 11.1201C487.269 14.6901 487.779 18.2701 488.279 21.8501L488.719 25.4201C489.119 28.2101 489.549 30.9901 489.949 33.7801L490.989 41.1801C490.989 41.2601 491.019 41.3301 491.139 41.4101L492.029 38.4201C493.379 33.8701 494.729 29.3201 496.079 24.7701C496.399 23.6901 496.989 23.2601 498.129 23.2701L509.509 23.3601H510.239L511.219 19.3301C511.619 17.6701 512.009 16.0301 512.409 14.3701C512.599 13.6101 513.019 13.2401 513.649 13.2401C514.279 13.2401 514.689 13.6201 514.839 14.4101L517.009 25.8701C517.339 27.6101 517.649 29.3501 517.979 31.0901L518.029 31.1701L519.109 27.2301C519.309 26.4301 519.499 25.6301 519.709 24.8301L520.209 23.8501C526.219 23.9501 531.509 24.0301 536.789 24.1301L549.109 24.4001C549.299 24.4001 549.479 24.4001 549.659 24.4001V24.5001L549.399 24.6001C543.449 24.7201 537.649 24.8401 531.839 24.9501L521.469 25.1301C521.089 25.1301 520.959 25.2501 520.889 25.6101L518.999 34.4701C518.839 35.2101 518.479 35.6001 517.939 35.5701L517.139 35.2401C516.339 31.5301 515.679 28.4101 515.019 25.3001L513.739 19.2301C513.719 19.1301 513.669 19.0301 513.599 18.8101L512.389 24.1801C512.149 25.2101 511.569 25.6801 510.539 25.6801L498.959 25.7501C498.539 25.7501 498.359 25.8601 498.239 26.2801L492.159 47.5501C491.769 48.9101 490.369 49.1401 489.679 48.4201L489.199 47.6401C488.329 41.6601 487.539 36.1101 486.769 30.5501L486.119 25.5501C486.039 24.9101 485.789 24.2901 485.819 23.6601C485.849 22.5501 485.399 21.5401 485.309 20.4501L484.879 17.1601C484.459 14.0901 484.019 11.0101 483.599 7.94008L483.529 7.71008C482.899 9.40008 482.359 11.2101 481.829 13.0201L478.459 24.3501C478.169 25.3301 477.599 25.7501 476.559 25.7401L464.869 25.6501C464.469 25.6501 464.309 25.7501 464.209 26.1601L462.149 34.6801C461.969 35.4001 461.549 35.7701 460.929 35.7601C460.309 35.7601 459.889 35.3801 459.749 34.6301L457.299 21.6101C457.079 20.4401 456.869 19.2701 456.649 18.0901L456.569 17.8401" fill="white"/>
</mask>
<g mask="url(#mask2_794_4825)">
<path d="M549.579 0.189941H424.689V48.7799H549.579V0.189941Z" fill="white"/>
</g>
</g>
</g>
<defs>
<clipPath id="clip0_794_4825">
<rect width="549.77" height="54.98" fill="white"/>
</clipPath>
</defs>
</svg>
