<svg width="126" height="201" viewBox="0 0 126 201" fill="none" xmlns="http://www.w3.org/2000/svg">
<path d="M62.8535 201C28.1964 201 0 172.66 0 137.827V63.1734C0 28.3399 28.1964 0 62.8535 0C97.5106 0 125.707 28.3399 125.707 63.1734V137.827C125.707 172.66 97.5106 201 62.8535 201ZM62.8535 1.85531C29.2116 1.85531 1.86899 29.3603 1.86899 63.1734V137.827C1.86899 171.64 29.2347 199.122 62.8535 199.122C96.4723 199.122 123.838 171.616 123.838 137.827V63.1734C123.838 29.3603 96.4723 1.85531 62.8535 1.85531Z" fill="#464646"/>
<path d="M76.0494 85.2637V91.6753H35V74.0254H58.1687V80.6531H49.5092V84.5865H58.1687C58.1687 84.5865 62.8946 90.5515 69.9835 86.7189L71.4388 85.2493H76.0494V85.2637Z" fill="#464646"/>
<path d="M94.7223 61V80.523L91.8983 81.8917L89.4201 76.604L84.6941 78.0736C79.4062 86.5023 71.5393 83.6928 71.5393 83.6928L64.3351 86.1565L61.2949 82.2231L70.1849 77.9583L67.9372 73.463L94.7223 61Z" fill="#464646"/>
<path d="M75 141H73.04L72.14 139.387L70 135.538L67.86 139.387L66.96 141H65L65.9 139.387L70 132L74.1 139.387L75 141Z" fill="#464646"/>
<path d="M85 132.018V141L83.2077 139.772L76.7923 135.318V141H75V132.037L76.7923 133.265L83.2077 137.719V132H85V132.018Z" fill="#464646"/>
<path d="M87.9531 136.5C87.9531 138.098 89.5469 139.402 91.5 139.402H95.0469V137.676H91.5V136.059H97V141H91.5C88.4694 141 86 138.98 86 136.5C86 134.02 88.4694 132 91.5 132H97V133.616H91.5C89.5469 133.616 87.9531 134.92 87.9531 136.518V136.5Z" fill="#464646"/>
<path d="M106 139.384V141H101.081C100.588 141 100.133 140.89 99.7185 140.706C99.1062 140.431 98.6123 139.953 98.316 139.402C98.0988 139.016 98 138.594 98 138.135V132H99.7383V138.282C99.8173 138.851 100.311 139.292 100.923 139.384H106Z" fill="#464646"/>
<path d="M108.776 134.406V135.251H115.204V136.867H108.776V138.557C108.776 139.016 109.184 139.384 109.694 139.384H117V141H109.694C108.204 141 107 139.898 107 138.576V134.424C107 133.084 108.204 132 109.694 132H117V133.616H109.694C109.184 133.616 108.776 133.984 108.776 134.443V134.406Z" fill="#464646"/>
<path d="M24 141H22.236L21.426 139.387L19.5 135.538L17.574 139.387L16.764 141H15L15.81 139.387L19.5 132L23.19 139.387L24 141Z" fill="#464646"/>
<path d="M33 132.018V141L31.5662 139.772L26.4338 135.318V141H25V132.037L26.4338 133.265L31.5662 137.719V132H33V132.018Z" fill="#464646"/>
<path d="M35.598 136.5C35.598 138.098 36.902 139.402 38.5 139.402H41.402V137.676H38.5V136.059H43V141H38.5C36.0204 141 34 138.98 34 136.5C34 134.02 36.0204 132 38.5 132H43V133.616H38.5C36.902 133.616 35.598 134.92 35.598 136.518V136.5Z" fill="#464646"/>
<path d="M51 139.384V141H46.6963C46.2642 141 45.8667 140.89 45.5037 140.706C44.9679 140.431 44.5358 139.953 44.2765 139.402C44.0864 139.016 44 138.594 44 138.135V132H45.521V138.282C45.5901 138.851 46.0222 139.292 46.558 139.384H51Z" fill="#464646"/>
<path d="M54.4204 134.406V135.251H59.5633V136.867H54.4204V138.557C54.4204 139.016 54.7469 139.384 55.1551 139.384H61V141H55.1551C53.9633 141 53 139.898 53 138.576V134.424C53 133.084 53.9633 132 55.1551 132H61V133.616H55.1551C54.7469 133.616 54.4204 133.984 54.4204 134.443V134.406Z" fill="#464646"/>
<rect x="62" y="135" width="3" height="1" fill="#464646"/>
<path d="M42.8029 118.855C42.8029 120.579 44.2088 121.985 45.9316 121.985H50.783V123.729H45.9316C43.2583 123.729 41.0801 121.55 41.0801 118.875C41.0801 116.199 43.2583 114 45.9316 114H50.783V115.744H45.9316C44.2088 115.744 42.8029 117.151 42.8029 118.875V118.855Z" fill="#464646"/>
<path d="M60.1682 121.985V123.729H55.2375C54.7425 123.729 54.2871 123.61 53.8712 123.412C53.2573 123.115 52.7623 122.6 52.4653 122.005C52.2474 121.589 52.1484 121.133 52.1484 120.638V114H53.891V120.777C53.9702 121.391 54.4653 121.867 55.0791 121.966H60.1682V121.985Z" fill="#464646"/>
<path d="M61.5547 123.709V114H63.2973V123.709H61.5547Z" fill="#464646"/>
<path d="M66.2677 118.854C66.2677 120.578 67.6736 121.985 69.3964 121.985H74.2479V123.729H69.3964C66.7231 123.729 64.5449 121.549 64.5449 118.874C64.5449 116.199 66.7231 114.02 69.3964 114.02H74.2479V115.763H69.3964C67.6736 115.763 66.2677 117.17 66.2677 118.894V118.854Z" fill="#464646"/>
<path d="M81.0792 117.904L85.2772 123.709H83.1386L79.7722 119.073L77.3168 121.312V123.709H75.5742V114H77.3168V118.974L78.7425 117.666L80.0297 116.477L82.7425 114H85.3168L81.0792 117.904Z" fill="#464646"/>
</svg>
