<svg width="126" height="201" viewBox="0 0 126 201" fill="none" xmlns="http://www.w3.org/2000/svg">
<path d="M46.4937 116.212V121.894C46.4937 125.025 43.9556 127.576 40.8406 127.576C37.7256 127.576 35.1875 125.025 35.1875 121.894V116.212H37.218V121.894C37.218 123.912 38.8563 125.559 40.8637 125.559C42.8711 125.559 44.5094 123.912 44.5094 121.894V116.212H46.5399H46.4937Z" fill="#464646"/>
<path d="M59.4153 116.212V127.576L57.3847 126.022L50.1164 120.387V127.576H48.0859V116.235L50.1164 117.789L57.3847 123.425V116.189H59.4153V116.212Z" fill="#464646"/>
<path d="M61.0312 127.576V116.212H63.0618V127.576H61.0312Z" fill="#464646"/>
<path d="M73.9739 125.558V127.599H68.2284C67.6516 127.599 67.1209 127.46 66.6363 127.228C65.921 126.88 65.3442 126.277 64.9981 125.581C64.7443 125.094 64.6289 124.561 64.6289 123.981V116.235H66.6594V124.166C66.7517 124.885 67.3286 125.442 68.0439 125.558H73.9739Z" fill="#464646"/>
<path d="M75.5898 127.576V116.212H77.6204V127.576H75.5898Z" fill="#464646"/>
<path d="M90.5422 116.212V127.576L88.5117 126.022L81.2434 120.387V127.576H79.2129V116.235L81.2434 117.789L88.5117 123.425V116.189H90.5422V116.212Z" fill="#464646"/>
<path d="M39.0172 142.534C39.0172 144.552 40.6555 146.198 42.6629 146.198H48.316V148.239H42.6629C39.5479 148.239 37.0098 145.688 37.0098 142.557C37.0098 139.427 39.5479 136.875 42.6629 136.875H48.316V138.916H42.6629C40.6555 138.916 39.0172 140.563 39.0172 142.581V142.534Z" fill="#464646"/>
<path d="M59.2297 146.198V148.239H53.4843C52.9075 148.239 52.3768 148.1 51.8922 147.868C51.1769 147.52 50.6001 146.917 50.2539 146.222C50.0001 145.735 49.8848 145.201 49.8848 144.621V136.875H51.9153V144.807C52.0076 145.526 52.5844 146.082 53.2997 146.198H59.2297Z" fill="#464646"/>
<path d="M60.8457 148.216V136.852H62.8762V148.216H60.8457Z" fill="#464646"/>
<path d="M66.3375 142.534C66.3375 144.552 67.9758 146.198 69.9832 146.198H75.6363V148.239H69.9832C66.8682 148.239 64.3301 145.688 64.3301 142.557C64.3301 139.427 66.8682 136.875 69.9832 136.875H75.6363V138.916H69.9832C67.9758 138.916 66.3375 140.563 66.3375 142.581V142.534Z" fill="#464646"/>
<path d="M83.6196 141.421L88.5113 148.216H86.0193L82.0968 142.789L79.2356 145.41V148.216H77.2051V136.852H79.2356V142.673L80.8969 141.142L82.3967 139.751L85.5579 136.852H88.5575L83.6196 141.421Z" fill="#464646"/>
<path d="M33.9883 64.8653H50.6708L59.8773 61.804L74.8061 66.164L90.1503 65.3987L62.0693 53.7798L33.9883 64.8653Z" fill="#464646"/>
<path d="M33.9883 78.2467L52.6551 80.3107L62.0693 77.4118L73.0987 80.3107L90.1503 78.2467L59.8773 70.8022L33.9883 78.2467Z" fill="#464646"/>
<path d="M33.9883 92.8804L62.0693 88.0103L91.0964 92.8804L62.0693 98.2841L33.9883 92.8804Z" fill="#464646"/>
<path d="M62.0684 77.4126L91.58 84.5324V93.1364L62.0684 88.0111V77.4126Z" fill="#A4A4A4"/>
<path d="M59.877 61.8042L90.15 70.8025V78.5716L59.877 70.8025V61.8042Z" fill="#A4A4A4"/>
<path d="M59.877 46.73L90.15 56.9342V65.3991L59.877 54.6614V46.73Z" fill="#A4A4A4"/>
<path d="M62.8535 201C28.1964 201 0 172.66 0 137.826V63.1729C0 28.3394 28.1964 -0.000488281 62.8535 -0.000488281C97.5106 -0.000488281 125.707 28.3394 125.707 63.1729V137.826C125.707 172.66 97.5106 201 62.8535 201ZM62.8535 1.85483C29.2116 1.85483 1.86899 29.3598 1.86899 63.1729V137.826C1.86899 171.639 29.2347 199.121 62.8535 199.121C96.4723 199.121 123.838 171.616 123.838 137.826V63.1729C123.838 29.3598 96.4723 1.85483 62.8535 1.85483Z" fill="#464646"/>
</svg>
