<svg width="116" height="184" viewBox="0 0 116 184" fill="none" xmlns="http://www.w3.org/2000/svg">
<path d="M83.5949 76.5619H85.7483V77.4495H83.5949L79.5625 79.9221V78.9711L82.8348 76.9845L79.5625 74.998V74.1104L83.616 76.583L83.5949 76.5619Z" fill="#464646"/>
<path d="M84.9668 68.7002H85.748V73.2017H79.541V68.827H80.3222V72.3141H82.2222V69.2074H82.9823V72.3141H84.9879V68.7002H84.9668Z" fill="#464646"/>
<path d="M84.1853 63.3109V66.6077L85.7265 67.284V68.1928L79.5195 65.382V64.4944L85.7265 61.6836V62.6135L84.1853 63.2898V63.3109ZM83.4886 63.6279L80.4485 64.9593L83.4886 66.2907V63.6068V63.6279Z" fill="#464646"/>
<path d="M85.728 56.6324L83.8279 57.9639C83.8279 58.1329 83.8279 58.2597 83.8279 58.3443V59.887H85.7069V60.7746H79.5V58.3443C79.5 57.5412 79.69 56.9072 80.07 56.4422C80.45 55.9773 80.9778 55.7448 81.6534 55.7448C82.139 55.7448 82.5401 55.8716 82.8779 56.1041C83.2157 56.3366 83.469 56.6747 83.6168 57.1185L85.7069 55.6392V56.6113L85.728 56.6324ZM82.7301 57.0974C82.4768 56.8015 82.139 56.6536 81.6956 56.6536C81.2523 56.6536 80.8934 56.8015 80.6611 57.0974C80.4289 57.3933 80.3022 57.8159 80.3022 58.3865V59.887H83.089V58.3865C83.089 57.8159 82.9624 57.3933 82.7301 57.0974Z" fill="#464646"/>
<path d="M85.5795 53.8641C85.4317 54.3079 85.2417 54.6461 85.0095 54.8785L84.3128 54.5404C84.524 54.3079 84.6929 53.9909 84.8406 53.6317C84.9673 53.2724 85.0306 52.892 85.0306 52.4904C85.0306 51.9832 84.9462 51.5817 84.7773 51.3281C84.6084 51.0745 84.3761 50.9477 84.0806 50.9477C83.8695 50.9477 83.7006 51.0111 83.5528 51.159C83.405 51.3069 83.3206 51.476 83.2572 51.6662C83.1939 51.8776 83.1094 52.1523 83.025 52.5327C82.9194 52.9976 82.7927 53.378 82.6872 53.6528C82.5816 53.9487 82.3916 54.1811 82.1594 54.3925C81.9271 54.6038 81.6105 54.6883 81.2094 54.6883C80.8716 54.6883 80.576 54.6038 80.3226 54.4347C80.0693 54.2657 79.8371 53.9909 79.6893 53.6317C79.5204 53.2724 79.457 52.8286 79.457 52.3002C79.457 51.941 79.4993 51.5817 79.6048 51.2224C79.6893 50.8631 79.8371 50.5673 80.006 50.3137L80.7238 50.6095C80.5549 50.8631 80.4282 51.1379 80.3438 51.4337C80.2593 51.7296 80.2171 52.0255 80.2171 52.3002C80.2171 52.8074 80.3016 53.1878 80.4916 53.4203C80.6816 53.6739 80.9138 53.8007 81.2094 53.8007C81.4205 53.8007 81.5894 53.7373 81.7372 53.5894C81.8638 53.4414 81.9694 53.2724 82.0538 53.061C82.1383 52.8497 82.2016 52.575 82.286 52.2157C82.3916 51.7508 82.5183 51.3703 82.6238 51.0956C82.7294 50.8209 82.8983 50.5673 83.1306 50.3559C83.3628 50.1446 83.6795 50.0601 84.0595 50.0601C84.3762 50.0601 84.6717 50.1446 84.9462 50.3348C85.2206 50.5039 85.4317 50.7786 85.5795 51.1379C85.7273 51.4971 85.8118 51.941 85.8118 52.4693C85.8118 52.9342 85.7484 53.378 85.6006 53.8219L85.5795 53.8641Z" fill="#464646"/>
<path d="M41.3917 59.7816V80.2813H36.0082V59.211C35.7548 57.3089 34.2558 55.8084 32.3557 55.5548H31.1523V50.208H32.3135V50.2503C33.6014 50.3348 34.8469 50.6729 35.9659 51.2436C37.866 52.1946 39.4072 53.7373 40.315 55.6394C40.6106 56.2945 40.8639 56.9708 41.0539 57.6682C41.2228 58.3656 41.3073 59.0842 41.3073 59.8661L41.3917 59.7816Z" fill="#464646"/>
<path d="M64.6352 49.7432C70.0188 49.7432 74.3679 54.0967 74.3679 59.4858V70.1372C74.3679 75.5263 70.0188 79.8798 64.6352 79.8798H55.346C49.9624 79.8798 45.6133 75.5263 45.6133 70.1372V59.4858C45.6133 54.0967 49.9624 49.7432 55.346 49.7432H64.6352ZM55.346 55.1323C52.9392 55.1323 50.9546 57.1188 50.9546 59.5281V70.1794C50.9546 72.5887 52.9392 74.5752 55.346 74.5752H64.6352C67.042 74.5752 69.0265 72.5887 69.0265 70.1794V59.5281C69.0265 57.1188 67.042 55.1323 64.6352 55.1323H55.346Z" fill="#464646"/>
<path d="M41.5594 105.367V115.723H39.7015V110.968H33.0512V115.723H31.1934V105.367H33.0512V109.129H39.7015V105.367H41.5594Z" fill="#464646"/>
<path d="M44.8738 108.157V109.129H51.5242V110.989H44.8738V112.933C44.8738 113.461 45.2961 113.884 45.8239 113.884H53.382V115.744H45.8239C44.2827 115.744 43.0371 114.476 43.0371 112.954V108.178C43.0371 106.635 44.2827 105.388 45.8239 105.388H53.382V107.248H45.8239C45.2961 107.248 44.8738 107.671 44.8738 108.199V108.157Z" fill="#464646"/>
<path d="M64.847 115.722H62.778L61.828 113.863L59.569 109.425L57.31 113.863L56.36 115.722H54.291L55.241 113.863L59.569 105.346L63.897 113.863L64.847 115.722Z" fill="#464646"/>
<path d="M75.6771 105.367L74.727 107.227L70.3991 115.744L66.0711 107.227L65.1211 105.367H67.19L68.1401 107.227L70.3991 111.665L72.658 107.227L73.6081 105.367H75.6771Z" fill="#464646"/>
<path d="M86.339 105.346L82.3278 110.545L82.1166 110.819V115.701H80.2587V110.841L80.0054 110.524L75.9941 105.325H78.3375L81.1666 109.002L83.9956 105.325H86.3179L86.339 105.346Z" fill="#464646"/>
<path d="M15.6342 130.093C15.6342 131.657 16.922 132.946 18.4843 132.946H22.9178V134.531H18.4843C16.0353 134.531 14.0508 132.545 14.0508 130.093C14.0508 127.642 16.0353 125.655 18.4843 125.655H22.9178V127.24H18.4843C16.922 127.24 15.6342 128.529 15.6342 130.093Z" fill="#464646"/>
<path d="M32.7342 130.093C32.7342 132.545 30.7497 134.531 28.3007 134.531C25.8517 134.531 23.8672 132.545 23.8672 130.093C23.8672 127.642 25.8517 125.655 28.3007 125.655C30.7497 125.655 32.7342 127.642 32.7342 130.093ZM31.1508 130.093C31.1508 128.529 29.863 127.24 28.3007 127.24C26.7384 127.24 25.4506 128.529 25.4506 130.093C25.4506 131.657 26.7384 132.946 28.3007 132.946C29.863 132.946 31.1508 131.657 31.1508 130.093Z" fill="#464646"/>
<path d="M42.5311 125.676V134.552H40.9477V128.91L39.3855 130.093L38.0976 131.086L36.8098 130.093L35.2475 128.91V134.552H33.6641V125.676L35.2475 126.902L38.0976 129.1L40.9477 126.902L42.5311 125.676Z" fill="#464646"/>
<path d="M52.6639 125.676V134.552H51.0805V128.91L49.5182 130.093L48.2304 131.086L46.9425 130.093L45.3803 128.91V134.552H43.7969V125.676L45.3803 126.902L48.2304 129.1L51.0805 126.902L52.6639 125.676Z" fill="#464646"/>
<path d="M55.5365 128.064V128.889H61.2367V130.474H55.5365V132.143C55.5365 132.587 55.8954 132.946 56.3388 132.946H62.7991V134.531H56.3388C55.0298 134.531 53.9531 133.453 53.9531 132.143V128.064C53.9531 126.754 55.0087 125.676 56.3388 125.676H62.7991V127.261H56.3388C55.8954 127.261 55.5365 127.621 55.5365 128.064Z" fill="#464646"/>
<path d="M71.223 132.968L72.0253 134.553H70.2519L69.4496 132.968L68.6051 131.298L68.5629 131.213C68.2884 130.748 67.7818 130.453 67.2117 130.453H65.6283V134.531H64.0449V125.655H69.6396C70.2941 125.655 70.8852 125.93 71.3285 126.353C71.7508 126.796 72.0253 127.388 72.0253 128.043C72.0253 129.016 71.4552 129.84 70.6319 130.22C70.4207 130.326 70.1885 130.389 69.9563 130.41L71.223 132.925V132.968ZM69.6607 128.889C69.7663 128.889 69.893 128.868 69.9985 128.804C70.2941 128.677 70.4841 128.382 70.4841 128.065C70.4841 127.769 70.3363 127.578 70.2519 127.473C70.1463 127.367 69.9563 127.24 69.6818 127.24H65.6705V128.868H69.6818L69.6607 128.889Z" fill="#464646"/>
<path d="M74.7904 130.093C74.7904 131.657 76.0783 132.946 77.6406 132.946H82.0741V134.531H77.6406C75.1916 134.531 73.207 132.545 73.207 130.093C73.207 127.642 75.1916 125.655 77.6406 125.655H82.0741V127.24H77.6406C76.0783 127.24 74.7904 128.529 74.7904 130.093Z" fill="#464646"/>
<path d="M83.3398 134.531V125.655H84.9232V134.531H83.3398Z" fill="#464646"/>
<path d="M94.7195 134.531H92.9461L92.1439 132.946L90.2015 129.142L88.2593 132.946L87.457 134.531H85.6836L86.4859 132.946L90.2015 125.655L93.9173 132.946L94.7195 134.531Z" fill="#464646"/>
<path d="M102.806 132.967V134.552H98.3095C97.8662 134.552 97.4439 134.447 97.0639 134.257C96.515 133.982 96.0505 133.517 95.7761 132.967C95.5861 132.587 95.4805 132.164 95.4805 131.721V125.676H97.0639V131.868C97.1483 132.418 97.5917 132.862 98.1406 132.946H102.785L102.806 132.967Z" fill="#464646"/>
<path d="M58.4916 183.583C26.7813 183.583 0.982422 157.757 0.982422 126.015V57.9852C0.982422 26.2424 26.7813 0.416992 58.4916 0.416992C90.2019 0.416992 116.001 26.2424 116.001 57.9852V126.015C116.001 157.757 90.2019 183.583 58.4916 183.583ZM58.4916 2.12882C27.7102 2.12882 2.69249 27.1934 2.69249 57.9852V126.015C2.69249 156.827 27.7314 181.871 58.4916 181.871C89.2518 181.871 114.291 156.806 114.291 126.015V57.9852C114.291 27.1722 89.2518 2.12882 58.4916 2.12882Z" fill="#464646"/>
</svg>
