<svg width="116" height="184" viewBox="0 0 116 184" fill="none" xmlns="http://www.w3.org/2000/svg">
<path d="M89.8241 75.822H91.8931V76.6674H89.8241L85.9395 79.0344V78.1256L89.0851 76.2236L85.9395 74.3004V73.4551L89.8452 75.822H89.8241Z" fill="#464646"/>
<path d="M91.1326 68.2773H91.8716V72.6097H85.918V68.4041H86.6569V71.7644H88.4936V68.7845H89.2114V71.7644H91.1326V68.2985V68.2773Z" fill="#464646"/>
<path d="M90.3941 63.0994V66.2695L91.8931 66.9246V67.8122L85.9395 65.1071V64.2618L91.8931 61.5566V62.4443L90.3941 63.0994ZM89.7185 63.3953L86.8051 64.6844L89.7185 65.9736V63.3953Z" fill="#464646"/>
<path d="M91.8712 56.6749L90.0345 57.964C90.0345 58.1331 90.0345 58.2388 90.0345 58.3444V59.8238H91.8501V60.6691H85.8965V58.3444C85.8965 57.5625 86.0865 56.9707 86.4454 56.5269C86.8043 56.0831 87.3321 55.8718 87.9655 55.8718C88.43 55.8718 88.81 55.9774 89.1478 56.2099C89.4644 56.4424 89.6967 56.7594 89.8445 57.1821L91.8501 55.7661V56.696L91.8712 56.6749ZM88.9789 57.1187C88.7467 56.8439 88.4089 56.696 87.9866 56.696C87.5644 56.696 87.2266 56.8439 86.9944 57.1187C86.7621 57.3934 86.6566 57.8161 86.6566 58.3444V59.8026H89.3378V58.3444C89.3378 57.7949 89.2322 57.3934 88.9789 57.1187Z" fill="#464646"/>
<path d="M91.7454 54.0331C91.5976 54.4558 91.4287 54.7728 91.1965 55.0264L90.542 54.7094C90.7531 54.4769 90.922 54.181 91.0487 53.8429C91.1753 53.4836 91.2387 53.1243 91.2387 52.7439C91.2387 52.2579 91.1542 51.8774 90.9853 51.645C90.8164 51.3914 90.5842 51.2857 90.3098 51.2857C90.0987 51.2857 89.9297 51.3491 89.8031 51.4759C89.6764 51.6027 89.5709 51.7718 89.5075 51.962C89.4442 52.1522 89.3597 52.4269 89.2753 52.7862C89.1697 53.23 89.0641 53.5893 88.9586 53.864C88.853 54.1388 88.6842 54.3712 88.4519 54.5614C88.2197 54.7516 87.9241 54.8573 87.5441 54.8573C87.2274 54.8573 86.9319 54.7728 86.6785 54.6037C86.4252 54.4346 86.214 54.181 86.0663 53.8429C85.9185 53.5047 85.834 53.0821 85.834 52.5749C85.834 52.2156 85.8762 51.8774 85.9607 51.5393C86.0451 51.2012 86.1929 50.9053 86.3618 50.6517L87.0374 50.9264C86.8685 51.18 86.763 51.4336 86.6785 51.7295C86.5941 52.0042 86.5519 52.3001 86.5519 52.5537C86.5519 53.0398 86.6363 53.3991 86.8052 53.6315C86.9741 53.864 87.2063 53.9908 87.4807 53.9908C87.6918 53.9908 87.8608 53.9274 87.9875 53.7795C88.1141 53.6315 88.2197 53.4836 88.283 53.2723C88.3463 53.0609 88.4308 52.8073 88.5153 52.4481C88.6208 52.0043 88.7264 51.645 88.8319 51.3702C88.9375 51.0955 89.1064 50.863 89.3175 50.6728C89.5286 50.4826 89.8453 50.377 90.2042 50.377C90.5209 50.377 90.7953 50.4615 91.0698 50.6306C91.3231 50.7996 91.5343 51.0532 91.6821 51.4125C91.8298 51.7506 91.9143 52.1945 91.9143 52.6805C91.9143 53.1243 91.8509 53.5681 91.7031 53.9697L91.7454 54.0331Z" fill="#464646"/>
<path d="M50.999 59.4011C50.999 61.6201 50.1334 63.649 48.6978 65.1283C50.1334 66.6077 50.999 68.6154 50.999 70.8556C50.999 75.3782 47.3466 79.0343 42.8286 79.0343H23.2578V74.0679H42.8286C44.6232 74.0679 46.0799 72.5885 46.0799 70.8133C46.0799 69.0381 44.7287 67.6432 43.0186 67.5587H28.2614V62.5923H43.0186C44.7287 62.5078 46.1221 61.0918 46.1221 59.3377C46.1221 57.5836 44.6443 56.0831 42.8709 56.0831H23.3V51.1167H42.8709C47.3889 51.1167 51.0413 54.7728 51.0413 59.2954L50.999 59.4222V59.4011Z" fill="#464646"/>
<path d="M72.5539 50.9897C77.5152 50.9897 81.5265 55.0051 81.5265 59.9716V69.7776C81.5265 74.744 77.5152 78.7594 72.5539 78.7594H63.9824C59.0211 78.7594 55.0098 74.744 55.0098 69.7776V59.9716C55.0098 55.0051 59.0211 50.9897 63.9824 50.9897H72.5539ZM63.9824 55.9562C61.7656 55.9562 59.9288 57.7737 59.9288 60.0138V69.8199C59.9288 72.0389 61.7445 73.8775 63.9824 73.8775H72.5539C74.7706 73.8775 76.6073 72.06 76.6073 69.8199V60.0138C76.6073 57.7948 74.7917 55.9562 72.5539 55.9562H63.9824Z" fill="#464646"/>
<path d="M40.7801 105.367V115.723H38.9222V110.968H32.2719V115.723H30.4141V105.367H32.2719V109.129H38.9222V105.367H40.7801Z" fill="#464646"/>
<path d="M44.0945 108.157V109.129H50.7448V110.989H44.0945V112.933C44.0945 113.461 44.5168 113.884 45.0446 113.884H52.6027V115.744H45.0446C43.5034 115.744 42.2578 114.476 42.2578 112.954V108.178C42.2578 106.635 43.5034 105.388 45.0446 105.388H52.6027V107.248H45.0446C44.5168 107.248 44.0945 107.671 44.0945 108.199V108.157Z" fill="#464646"/>
<path d="M64.0463 115.722H61.9773L61.0272 113.863L58.7682 109.425L56.5092 113.863L55.5592 115.722H53.4902L54.4402 113.863L58.7682 105.346L63.0962 113.863L64.0463 115.722Z" fill="#464646"/>
<path d="M74.8978 105.367L73.9478 107.227L69.6198 115.744L65.2919 107.227L64.3418 105.367H66.4108L67.3608 107.227L69.6198 111.665L71.8788 107.227L72.8289 105.367H74.8978Z" fill="#464646"/>
<path d="M85.5382 105.346L81.527 110.545L81.3158 110.819V115.701H79.458V110.841L79.2046 110.524L75.1934 105.325H77.5368L80.3658 109.002L83.1948 105.325H85.5171L85.5382 105.346Z" fill="#464646"/>
<path d="M18.9085 132.968L19.7108 134.553H17.9374L17.1351 132.968L16.2906 131.298L16.2484 131.213C15.974 130.748 15.4673 130.453 14.8973 130.453H13.3139V134.531H11.7305V125.655H17.3251C17.9796 125.655 18.5707 125.93 19.0141 126.353C19.4363 126.796 19.7108 127.388 19.7108 128.043C19.7108 129.016 19.1408 129.84 18.3174 130.22C18.1063 130.326 17.874 130.389 17.6418 130.41L18.9085 132.925V132.968ZM17.3462 128.889C17.4518 128.889 17.5785 128.868 17.684 128.804C17.9796 128.677 18.1696 128.382 18.1696 128.065C18.1696 127.769 18.0219 127.578 17.9374 127.473C17.8319 127.367 17.6418 127.24 17.3673 127.24H13.3561V128.868H17.3673L17.3462 128.889Z" fill="#464646"/>
<path d="M22.5814 128.064V128.889H28.2817V130.474H22.5814V132.143C22.5814 132.587 22.9404 132.946 23.3837 132.946H29.844V134.531H23.3837C22.0748 134.531 20.998 133.453 20.998 132.143V128.064C20.998 126.754 22.0537 125.676 23.3837 125.676H29.844V127.261H23.3837C22.9404 127.261 22.5814 127.621 22.5814 128.064Z" fill="#464646"/>
<path d="M37.9312 128.086C37.9312 127.642 37.5724 127.283 37.129 127.283H33.54C33.0966 127.283 32.7377 127.642 32.7377 128.086V128.128C32.7377 128.572 33.0966 128.931 33.54 128.931H36.7279C37.5513 128.931 38.2902 129.29 38.7968 129.84C38.8391 129.882 38.8602 129.924 38.9024 129.945C39.3036 130.431 39.5358 131.044 39.5358 131.721C39.5358 133.263 38.2902 134.531 36.7279 134.531H33.9622C32.4211 134.531 31.1543 133.285 31.1543 131.721H32.7377C32.7377 132.397 33.2866 132.946 33.9622 132.946H36.7279C37.4035 132.946 37.9524 132.397 37.9524 131.721C37.9524 131.044 37.4035 130.495 36.7279 130.495H33.54C32.8855 130.495 32.3155 130.241 31.8721 129.819C31.7665 129.713 31.661 129.586 31.5766 129.438C31.3021 129.058 31.1543 128.593 31.1543 128.086V128.043C31.1543 126.733 32.2099 125.655 33.54 125.655H37.129C38.438 125.655 39.5146 126.733 39.5146 128.043V128.086H37.9312Z" fill="#464646"/>
<path d="M40.7812 134.531V125.655H42.3647V134.531H40.7812Z" fill="#464646"/>
<path d="M48.0429 125.676C50.4919 125.676 52.4765 127.663 52.4765 130.093C52.4765 131.192 52.0753 132.185 51.4209 132.967C51.3364 133.052 51.252 133.136 51.1675 133.242C50.3653 134.045 49.2674 134.552 48.0429 134.552H43.6094V125.676H48.0218H48.0429ZM45.1928 132.967H48.0429C49.6052 132.967 50.8931 131.678 50.8931 130.114C50.8931 128.55 49.6052 127.261 48.0429 127.261H45.1928V132.967Z" fill="#464646"/>
<path d="M55.3471 128.064V128.889H61.0474V130.474H55.3471V132.143C55.3471 132.587 55.706 132.946 56.1493 132.946H62.6096V134.531H56.1493C54.8404 134.531 53.7637 133.453 53.7637 132.143V128.064C53.7637 126.754 54.8193 125.676 56.1493 125.676H62.6096V127.261H56.1493C55.706 127.261 55.3471 127.621 55.3471 128.064Z" fill="#464646"/>
<path d="M72.7655 125.676V134.552L71.1821 133.327L65.4818 128.931V134.552H63.8984V125.697L65.4818 126.923L71.1821 131.319V125.676H72.7655Z" fill="#464646"/>
<path d="M82.8772 125.676V127.261H79.2459V134.552H77.6625V127.261H74.0312V125.676H82.8772Z" fill="#464646"/>
<path d="M84.166 134.531V125.655H85.7494V134.531H84.166Z" fill="#464646"/>
<path d="M95.5672 134.531H93.7938L92.9915 132.946L91.0492 129.142L89.1069 132.946L88.3047 134.531H86.5312L87.3335 132.946L91.0492 125.655L94.7649 132.946L95.5672 134.531Z" fill="#464646"/>
<path d="M103.631 132.967V134.552H99.1337C98.6903 134.552 98.2681 134.447 97.8881 134.257C97.3392 133.982 96.8747 133.517 96.6002 132.967C96.4102 132.587 96.3047 132.164 96.3047 131.721V125.676H97.8881V131.868C97.9725 132.418 98.4158 132.862 98.9648 132.946H103.609L103.631 132.967Z" fill="#464646"/>
<path d="M57.6908 183.583C25.9805 183.583 0.181641 157.757 0.181641 126.015V57.9852C0.181641 26.2424 25.9805 0.416992 57.6908 0.416992C89.4011 0.416992 115.2 26.2424 115.2 57.9852V126.015C115.2 157.757 89.4011 183.583 57.6908 183.583ZM57.6908 2.12882C26.9095 2.12882 1.89171 27.1934 1.89171 57.9852V126.015C1.89171 156.827 26.9306 181.871 57.6908 181.871C88.451 181.871 113.49 156.806 113.49 126.015V57.9852C113.49 27.1722 88.451 2.12882 57.6908 2.12882Z" fill="#464646"/>
</svg>
